<?xml version="1.0" encoding="utf-8"?><svg viewBox="0 0 63 48" xmlns="http://www.w3.org/2000/svg" xmlns:xlink="http://www.w3.org/1999/xlink"><style>:root>svg{display:none}:root>svg:target{display:block}</style><svg viewBox="0 0 63 48" id="caw" xmlns="http://www.w3.org/2000/svg"><path d="M61.797 11.923l-7.574-6.46c-.444-.374-1.035-.71-1.686-.976a4.979 4.979 0 011.44-2.969.887.887 0 00-1.253-1.252 6.788 6.788 0 00-1.903 3.728 4.878 4.878 0 00-.819-.079h-.947a5.057 5.057 0 011.342-2.397.887.887 0 00-1.253-1.252 6.768 6.768 0 00-1.913 3.807 7.448 7.448 0 00-1.361.473c-.089-.059-.168-.128-.257-.177a6.446 6.446 0 00-5.434-.474.893.893 0 00-.572.987 6.434 6.434 0 001.795 3.441c-1.174.878-2.742.888-4.694.888H7.653c-3.767 0-6.825 3.067-6.825 6.825v11.578A1.715 1.715 0 000 29.074c0 .177 0 .582.621 1.716a1.237 1.237 0 002.17 0c.621-1.134.621-1.539.621-1.716 0-.622-.335-1.154-.828-1.46V16.036a5.064 5.064 0 014.616-5.04 6.791 6.791 0 00-2.23 5.04v31.066c0 .493.395.888.888.888h3.61a.885.885 0 00.878-.78l1.232-10.246c1.144.522 2.348.887 3.6 1.065l-.059.779a.89.89 0 00.819.947h.059a.892.892 0 00.887-.829l.06-.769h.069c1.104 0 2.18-.138 3.215-.394l.236.71a.885.885 0 001.125.552.899.899 0 00.562-1.124l-.237-.7a12.476 12.476 0 002.89-1.638l.473.543a.909.909 0 00.67.305.872.872 0 00.583-.217.898.898 0 00.088-1.252l-.483-.523a12.908 12.908 0 001.696-2.08h5.76v14.763c0 .493.395.888.888.888h3.59a.885.885 0 00.877-.78l1.322-10.996a14.625 14.625 0 007.308-6.913c.789-1.578 2.219-4.419 3.422-6.786a.89.89 0 00-.394-1.193.89.89 0 00-1.194.395c-.414.828-.868 1.716-1.301 2.584a5.838 5.838 0 00-2.772-.7 5.897 5.897 0 00-5.888 5.887c0 1.627.661 3.126 1.805 4.221-.67.414-1.39.78-2.14 1.065a.888.888 0 00-.562.72l-1.292 10.73h-1.923V31.451a.884.884 0 00-.888-.888H21.57a.884.884 0 00-.888.888c0 .493.395.887.888.887h4.073c-2.11 2.565-5.227 4.054-8.63 4.054-1.42 0-2.81-.276-4.112-.79a14.603 14.603 0 004.27-3.53c.02-.02.04-.04.06-.069a14.623 14.623 0 002.534-4.606.89.89 0 00-.562-1.124.89.89 0 00-1.124.562 12.847 12.847 0 01-2.17 3.985l-.06.059a12.877 12.877 0 01-5.325 3.876.888.888 0 00-.562.72l-1.282 10.75H6.756v-30.19a5.063 5.063 0 015.06-5.059h5.522a5.891 5.891 0 002.2 4.35 5.795 5.795 0 00-.592 2.574 5.897 5.897 0 005.887 5.888c2.93 0 5.366-2.15 5.81-5a5.894 5.894 0 005.779-5.888c0-.661-.119-1.312-.336-1.924h.641c2.377 0 4.626 0 6.352-1.745l.217-.227a.847.847 0 00.187-.187.876.876 0 00-.217-1.233 4.619 4.619 0 01-1.696-2.23 4.633 4.633 0 013.166.553 4.628 4.628 0 011.952 2.21c.188.453.71.66 1.164.463a.876.876 0 00.464-1.164 6.618 6.618 0 00-.957-1.558c.375-.109.74-.178 1.045-.178h1.598c.927 0 2.357.533 3.067 1.135l7.575 6.46c.552.473.75 1.459.424 2.11l-.237.473c-.533 1.056-.848 1.361-1.39 1.361h-7.19a.884.884 0 00-.888.888c0 .493.395.887.888.887h7.19c1.784 0 2.524-1.46 2.968-2.327l.237-.473c.71-1.39.335-3.265-.849-4.27zM41.254 29.478a4.116 4.116 0 014.113-4.112c.7 0 1.37.177 1.972.512-.513 1.016-.986 1.953-1.321 2.634a12.847 12.847 0 01-3.275 4.122 4.049 4.049 0 01-1.489-3.156zM34.637 12.91a4.116 4.116 0 01-4.113 4.113c-.178 0-.355-.02-.582-.05-.256-.039-.513.07-.7.237a.94.94 0 00-.306.7 4.116 4.116 0 01-4.113 4.113 4.116 4.116 0 01-4.112-4.112c0-.839.256-1.647.73-2.338a.923.923 0 00.138-.7.84.84 0 00-.424-.572 4.103 4.103 0 01-2.042-3.314h15.04c.316.582.483 1.243.483 1.923z"/><path d="M52.576 10.69c.227-.236.365-.552.365-.877 0-.326-.138-.642-.365-.878-.464-.464-1.302-.464-1.755 0a1.24 1.24 0 000 1.755c.226.227.542.365.877.365.326-.01.641-.138.878-.365z"/></svg><svg viewBox="0 0 48 47" id="control" xmlns="http://www.w3.org/2000/svg"><path d="M15.91 31.63l-2.37-4.673a6.172 6.172 0 00-3.344-3v-.985c0-2.436-1.471-4.596-3.679-5.542a6.03 6.03 0 00-4.195-3.736 1.726 1.726 0 00-.44-.058A1.878 1.878 0 000 15.51v16.322c0 .525.124 1.032.354 1.5.238.468.573.86.993 1.176l9.89 7.243v3.899c0 .478.383.86.86.86.479 0 .861-.382.861-.86v-2.647l1.548 1.137a.87.87 0 001.204-.191.867.867 0 00-.181-1.204L2.369 33.12a1.497 1.497 0 01-.477-.564 1.565 1.565 0 01-.172-.726V15.509c0-.086.067-.153.163-.153a4.308 4.308 0 013.296 4.205v6.02c0 .01.01.02.01.029 0 .277.067.554.191.822l4.472 8.84c.21.42.736.592 1.157.381a.865.865 0 00.382-1.156l-4.472-8.83c-.048-.086-.01-.2.095-.248a4.438 4.438 0 014.988 2.331l2.59 5.132c.143.287.44.468.765.468a5.738 5.738 0 015.733 5.734v6.584c0 .478.382.86.86.86s.86-.382.86-.86v-6.584c.01-3.947-3.048-7.177-6.9-7.454zM6.9 23.68v-4.033a4.304 4.304 0 011.576 3.326v.611a5.86 5.86 0 00-1.577.096zM46.127 13.636a2.08 2.08 0 00-.42.048 6.038 6.038 0 00-4.224 3.736 6.023 6.023 0 00-3.68 5.543v.984a6.144 6.144 0 00-3.344 3l-2.37 4.683c-3.86.277-6.909 3.498-6.909 7.425v6.584c0 .478.382.86.86.86s.86-.382.86-.86v-6.584a5.738 5.738 0 015.734-5.733.853.853 0 00.764-.469l2.59-5.131a4.446 4.446 0 015.007-2.322c.086.048.125.153.077.239L36.6 34.478a.863.863 0 00.382 1.156c.42.22.936.048 1.156-.382l4.472-8.84c.134-.267.191-.544.191-.821 0-.01.01-.02.01-.029v-6.02a4.32 4.32 0 013.316-4.205c.086 0 .153.067.153.153v16.322c0 .258-.057.497-.172.726-.115.22-.277.411-.478.564l-13.159 9.652a.857.857 0 00-.181 1.204.87.87 0 00.697.353.91.91 0 00.507-.162l1.548-1.138v2.648c0 .477.382.86.86.86s.86-.383.86-.86v-3.9l9.89-7.262c.43-.315.765-.707.994-1.175a3.27 3.27 0 00.354-1.5V15.5a1.88 1.88 0 00-1.873-1.864zm-6.603 9.948v-.611c0-1.32.602-2.523 1.576-3.326v4.033a5.887 5.887 0 00-1.576-.096zM32.414 13.942c0-5.676-3.058-10.97-7.98-13.818a.864.864 0 00-.86 0c-4.92 2.848-7.979 8.142-7.979 13.818 0 5.505 2.886 10.646 7.55 13.55v3.278c0 .478.382.86.86.86s.86-.382.86-.86v-3.277c4.663-2.905 7.55-8.046 7.55-13.55zM24.855 25.43v-4.473l5.772-5.771c-.353 4.07-2.475 7.816-5.772 10.244zM28.42 6.24L26.7 7.96a.86.86 0 000 1.214.852.852 0 00.611.248c.22 0 .44-.086.612-.248l1.376-1.376a14.376 14.376 0 011.347 4.95l-5.781 5.781V2.446A14.578 14.578 0 0128.42 6.24zm-5.275-3.794v7.358L19.58 6.24a14.454 14.454 0 013.565-3.794zm-5.772 12.738l2.714 2.714a.852.852 0 00.611.249c.22 0 .44-.086.612-.249a.86.86 0 000-1.213l-3.937-3.937c.143-1.73.602-3.402 1.347-4.95l4.434 4.434v13.187a14.212 14.212 0 01-5.781-10.235z"/></svg><svg viewBox="0 0 35 48" id="eco" xmlns="http://www.w3.org/2000/svg"><path d="M33.92 19.788c-.738-1.007-.738-2.697 0-3.694l.114-.156c.615-.84.833-1.857.596-2.775-.237-.929-.918-1.69-1.864-2.101l-.18-.079c-1.126-.488-1.94-1.954-1.788-3.195l.028-.195c.123-.987-.132-1.906-.71-2.58-.652-.762-1.617-1.134-2.753-.987l-.19.03c-1.22.156-2.64-.714-3.093-1.848l-.076-.175C23.512.772 22.443 0 21.251 0c-.682 0-1.354.244-1.959.713l-.151.118c-.918.723-2.66.713-3.577 0l-.152-.127C14.816.244 14.146 0 13.463 0c-1.201 0-2.261.772-2.763 2.023l-.075.185C10.16 3.342 8.732 4.212 7.53 4.055l-.19-.029c-1.116-.147-2.09.225-2.744.987-.577.674-.832 1.593-.71 2.58l.03.195c.15 1.25-.663 2.717-1.79 3.195l-.17.079c-.946.41-1.618 1.172-1.864 2.1-.236.92-.018 1.935.597 2.776l.113.156c.738.997.738 2.687 0 3.694l-.113.156c-.615.84-.833 1.857-.597 2.775.237.929.918 1.69 1.864 2.101l.17.078c1.127.49 1.94 1.955 1.79 3.196l-.03.195c-.122.987.133 1.906.71 2.58.606.713 1.476 1.085 2.517 1.006l-5.128 9.166a.908.908 0 00.028.929.83.83 0 00.814.38l5.63-.761 2.176 5.423a.838.838 0 00.729.538h.056a.846.846 0 00.739-.44l6.803-12.176c.057.04.123.069.17.108l.151.117c.597.469 1.268.713 1.95.713 1.201 0 2.261-.772 2.763-2.023l.075-.185c.284-.694.928-1.29 1.666-1.603l4.645 8.306-4.57-.625a.856.856 0 00-.899.537l-1.769 4.398-2.952-5.277a.838.838 0 00-1.164-.323.896.896 0 00-.312 1.202l3.813 6.821c.151.274.435.44.738.44h.057a.855.855 0 00.728-.538l2.177-5.423 5.63.762a.83.83 0 00.813-.381.907.907 0 00.029-.928l-5.129-9.166c1.013.068 1.912-.293 2.517-1.007.577-.674.823-1.593.71-2.58l-.029-.195c-.151-1.25.663-2.716 1.789-3.195l.18-.078c.946-.41 1.618-1.173 1.864-2.101.236-.929.019-1.935-.596-2.776l-.086-.146zM11.552 44.696L9.782 40.3a.855.855 0 00-.898-.538l-4.57.626 4.645-8.306c.738.322 1.372.918 1.656 1.612l.076.176c.501 1.25 1.57 2.023 2.763 2.023.681 0 1.353-.245 1.958-.723l.142-.118c.436-.342 1.05-.508 1.675-.527l-5.677 10.172zM32.993 22.27c-.104.4-.416.733-.87.928l-.18.078c-1.826.792-3.066 3.01-2.82 5.043l.028.195c.057.479-.047.909-.293 1.202-.284.332-.757.479-1.249.41l-.199-.029c-1.977-.254-4.125 1.046-4.873 2.912l-.075.186c-.388.957-1.325 1.211-2.12.586l-.151-.127c-.757-.596-1.76-.928-2.82-.928-1.06 0-2.053.332-2.82.928l-.142.117c-.804.626-1.731.372-2.128-.596L12.205 33c-.69-1.71-2.536-2.941-4.372-2.941-.17 0-.34.01-.51.03l-.18.029c-.53.068-.975-.079-1.259-.41-.246-.294-.35-.714-.293-1.203l.028-.195c.246-2.033-.984-4.241-2.82-5.042l-.17-.079c-.463-.195-.776-.527-.88-.938-.104-.4.01-.85.303-1.26l.114-.157c1.201-1.631 1.201-4.192 0-5.814l-.114-.156c-.303-.41-.416-.86-.312-1.26.104-.401.416-.734.88-.929l.17-.078c1.826-.792 3.066-3.01 2.82-5.042l-.029-.196c-.056-.479.048-.909.294-1.202.284-.332.738-.469 1.258-.41l.19.03c1.958.283 4.106-1.027 4.863-2.893l.076-.186c.388-.958 1.324-1.212 2.12-.586l.15.127c.758.596 1.76.918 2.82.918 1.06 0 2.053-.332 2.82-.928l.151-.117c.795-.626 1.732-.372 2.12.596l.075.176c.758 1.866 2.877 3.185 4.883 2.912l.19-.03c.53-.068.974.079 1.258.41.246.294.35.714.293 1.203l-.028.195c-.246 2.033.993 4.25 2.82 5.042l.18.079c.463.195.775.527.879.928.104.4 0 .85-.312 1.26l-.114.157c-1.201 1.632-1.201 4.192 0 5.824l.114.156c.303.4.416.85.312 1.25z"/><path d="M17.352 5.423c-6.68 0-12.12 5.62-12.12 12.518 0 3.342 1.258 6.488 3.548 8.853 1.958 2.023 4.646 2.795 6.68 1.925 1.504-.645 2.46-2.081 2.687-4.006h.01c1.722 0 3.34-.694 4.55-1.945 1.43-1.475 2.101-3.518 1.827-5.599a.858.858 0 00-.729-.752 6.324 6.324 0 00-3.67.605 6.748 6.748 0 00.217-1.7c0-2.091-.928-4.016-2.546-5.296a.817.817 0 00-1.03 0c-1.619 1.27-2.546 3.205-2.546 5.296 0 .567.076 1.114.208 1.652a6.339 6.339 0 00-3.558-.557.857.857 0 00-.728.752c-.275 2.081.397 4.124 1.826 5.6a6.293 6.293 0 004.438 1.944c-.19 1.172-.738 2.013-1.618 2.394-1.41.596-3.35-.02-4.826-1.544-1.968-2.033-3.056-4.74-3.056-7.612 0-5.932 4.674-10.759 10.427-10.759 5.743 0 10.418 4.827 10.418 10.759 0 5.218-3.605 9.674-8.573 10.592a.88.88 0 00-.69 1.017c.075.43.434.723.832.723.047 0 .104 0 .151-.01 5.782-1.065 9.983-6.254 9.983-12.322.01-6.909-5.422-12.528-12.112-12.528zm4.164 16.104a4.636 4.636 0 01-3.312 1.437 4.955 4.955 0 011.39-3.42 4.675 4.675 0 013.313-1.437c-.02 1.29-.502 2.502-1.391 3.42zm-4.211-9.635a4.932 4.932 0 011.353 3.43c0 1.3-.492 2.521-1.353 3.43a4.94 4.94 0 01-1.362-3.43c.009-1.3.492-2.521 1.362-3.43zm-5.497 6.225a4.63 4.63 0 013.311 1.436 4.955 4.955 0 011.391 3.42 4.63 4.63 0 01-3.312-1.436 4.972 4.972 0 01-1.39-3.42z"/></svg><svg viewBox="0 0 48 48" id="house" xmlns="http://www.w3.org/2000/svg"><path d="M40.228 0c-4.28 0-7.771 3.481-7.771 7.772v6.193l-12.88-6.263a.9.9 0 00-.78 0L4.655 14.586a.855.855 0 00-.444.484L.06 25.997a.865.865 0 00.099.819.893.893 0 00.73.384h34.074v19.025h-7.23l-7.278-7.279 6.016-6.026v9.163c0 .493.395.887.888.887a.884.884 0 00.888-.887V30.79a.884.884 0 00-.888-.887H11.046a.884.884 0 00-.888.887v15.435H3.452V30.337a.884.884 0 00-.888-.888.884.884 0 00-.887.888v16.775c0 .493.394.888.887.888H35.85a.884.884 0 00.888-.888V36.165h9.488v10.06h-6.352a.884.884 0 00-.887.887c0 .493.394.888.887.888h7.24a.884.884 0 00.887-.888V7.772C48 3.482 44.509 0 40.228 0zm-15 46.225H13.186l6.016-6.026 6.026 6.026zm-7.269-7.279l-6.026 6.026V32.93l6.026 6.016zm-4.773-7.268h12.042l-6.016 6.026-6.026-6.026zm21.046-16.46v-2.722h11.993v10.06h-9.182l-2.81-7.338zm11.993-6.559v2.071H34.232V8.66h11.993zm-5.997-6.884c3.008 0 5.494 2.22 5.928 5.109H34.3c.434-2.89 2.92-5.109 5.927-5.109zM2.17 25.435l3.58-9.409 13.442-6.538 13.452 6.538 3.6 9.409H2.17zm34.567 8.955V27.2h.79a.893.893 0 00.729-.384.892.892 0 00.099-.819l-.641-1.667h8.5v10.06h-9.477z"/><path d="M22.092 14.823h-5.77a.884.884 0 00-.887.888v5.77c0 .492.394.887.887.887h5.77a.884.884 0 00.887-.888v-5.77a.884.884 0 00-.887-.887zm-.888 5.77H17.21v-3.994h3.994v3.994z"/></svg><svg fill="#FF7F40" viewBox="0 0 27 28" id="star" xmlns="http://www.w3.org/2000/svg"><path d="M0 14c7.456 0 13.5-6.268 13.5-14 0 7.732 6.044 14 13.5 14-7.456 0-13.5 6.268-13.5 14 0-7.732-6.044-14-13.5-14z"/></svg><svg viewBox="0 0 24 14" id="video" xmlns="http://www.w3.org/2000/svg"><path d="M24 13.094l-6-3V13H0V1h18v2.906l6-3v12.188zM16.5 2.5h-15v9h15v-9zm6 .832L18 5.594v2.812l4.5 2.262V3.332z"/></svg><svg viewBox="0 0 48 48" id="wheat" xmlns="http://www.w3.org/2000/svg"><path d="M19.656 15.149a.89.89 0 00-.76-.76 9.702 9.702 0 00-1.193-.079c-1.41 0-2.771.335-3.994.967a8.823 8.823 0 00.167-1.618 8.66 8.66 0 00-3.461-6.953.902.902 0 00-1.075 0 8.66 8.66 0 00-3.462 6.953c0 .553.069 1.085.168 1.618a8.763 8.763 0 00-5.198-.898.89.89 0 00-.76.76 8.637 8.637 0 001.845 6.667c-.365.01-.73.03-1.085.078a.89.89 0 00-.76.76 8.637 8.637 0 001.845 6.667c-.365 0-.73.03-1.085.079a.89.89 0 00-.76.76 8.676 8.676 0 002.466 7.366 8.652 8.652 0 006.164 2.545c.385 0 .77-.03 1.154-.08a8.661 8.661 0 007.318-2.476c1.943-1.942 2.84-4.624 2.466-7.366a.89.89 0 00-.76-.76 9.866 9.866 0 00-1.085-.078 8.636 8.636 0 001.845-6.667.89.89 0 00-.76-.76 9.866 9.866 0 00-1.085-.078 8.59 8.59 0 001.845-6.647zM9.872 32.486c.345.049.69.069 1.036.069a8.175 8.175 0 00-1.036 1.637 9.018 9.018 0 00-1.045-1.637c.345 0 .7-.03 1.045-.07zm0-5.8a9.014 9.014 0 00-1.045-1.637c.345 0 .7-.03 1.035-.069.345.05.69.07 1.046.07a8.46 8.46 0 00-1.036 1.636zm0-18.127a6.896 6.896 0 012.229 5.09c0 1.459-.454 2.85-1.272 4.004-.01.01-.01.02-.02.02-.276.384-.592.739-.937 1.064a6.844 6.844 0 01-.937-1.065c-.01-.01-.02-.02-.02-.03a6.866 6.866 0 01-1.262-3.994 6.83 6.83 0 012.22-5.089zm-2.92 9.547a6.878 6.878 0 012.023 5.178h-.257c-1.864 0-3.61-.72-4.911-2.032a6.878 6.878 0 01-2.022-5.177 6.894 6.894 0 015.168 2.031zm0 7.505a6.87 6.87 0 012.023 5.168h-.257a6.9 6.9 0 01-4.911-2.031 6.87 6.87 0 01-2.022-5.168 6.858 6.858 0 015.168 2.031zm1.766 12.674a6.9 6.9 0 01-4.911-2.032 6.87 6.87 0 01-2.022-5.168 6.938 6.938 0 015.178 2.022 6.87 6.87 0 012.022 5.168c-.09.01-.178.01-.267.01zm7.22-2.032a6.9 6.9 0 01-5.178 2.022 6.907 6.907 0 012.021-5.178c1.371-1.37 3.216-2.081 5.178-2.022a6.878 6.878 0 01-2.021 5.178zm0-7.495a6.857 6.857 0 01-5.178 2.021 6.87 6.87 0 012.021-5.168 6.938 6.938 0 015.178-2.021 6.885 6.885 0 01-2.021 5.168zm0-7.506a6.85 6.85 0 01-5.178 2.022 6.907 6.907 0 012.021-5.178 6.886 6.886 0 015.178-2.021 6.878 6.878 0 01-2.021 5.177zM9.872 42.053a.884.884 0 00-.887.888v4.171c0 .493.394.888.887.888a.884.884 0 00.888-.888v-4.171a.89.89 0 00-.888-.888zM9.872 4.27a.884.884 0 00.888-.887V.888A.884.884 0 009.872 0a.884.884 0 00-.887.888v2.505c0 .483.394.877.887.877zM.966 12.13a.884.884 0 00.888-.887V8.748a.884.884 0 00-.888-.888.884.884 0 00-.887.888v2.495c0 .493.394.887.887.887zM18.778 12.13a.884.884 0 00.888-.887V8.748a.884.884 0 00-.888-.888.884.884 0 00-.888.888v2.495c0 .493.395.887.888.887zM47.911 22.644a.89.89 0 00-.76-.76 9.866 9.866 0 00-1.084-.079 8.636 8.636 0 001.844-6.666.89.89 0 00-.76-.76 9.702 9.702 0 00-1.193-.079c-1.41 0-2.771.335-3.994.967a8.823 8.823 0 00.168-1.618 8.66 8.66 0 00-3.462-6.953.902.902 0 00-1.075 0 8.66 8.66 0 00-3.462 6.953c0 .553.07 1.085.168 1.618a8.684 8.684 0 00-3.994-.967 9.7 9.7 0 00-1.194.08.89.89 0 00-.759.758 8.637 8.637 0 001.844 6.667c-.365.01-.73.03-1.085.08a.89.89 0 00-.759.759 8.637 8.637 0 001.844 6.667c-.365 0-.73.03-1.085.079a.89.89 0 00-.759.759 8.676 8.676 0 002.466 7.367 8.652 8.652 0 006.164 2.545c.384 0 .769-.03 1.154-.08a8.662 8.662 0 007.318-2.475c1.942-1.943 2.84-4.625 2.465-7.367a.89.89 0 00-.76-.76 9.862 9.862 0 00-1.084-.078 8.636 8.636 0 001.834-6.657zm-9.783 9.842c.345.05.69.07 1.035.07a8.169 8.169 0 00-1.035 1.637 9.015 9.015 0 00-1.046-1.638c.355 0 .7-.03 1.046-.069zm0-5.799a9.019 9.019 0 00-1.046-1.637c.345 0 .7-.03 1.036-.069.345.05.69.07 1.045.07a9.526 9.526 0 00-1.035 1.636zm8.097-10.602a6.906 6.906 0 01-2.022 5.178 6.849 6.849 0 01-5.178 2.022 6.907 6.907 0 012.022-5.178 6.886 6.886 0 015.178-2.022zM38.128 8.56a6.896 6.896 0 012.228 5.09c0 1.459-.453 2.85-1.272 4.003-.01.01-.01.02-.02.02-.276.385-.591.74-.936 1.065a6.84 6.84 0 01-.937-1.065c-.01-.01-.02-.02-.02-.03a6.866 6.866 0 01-1.262-3.994c-.01-1.952.799-3.767 2.219-5.089zm-2.92 9.547a6.878 6.878 0 012.022 5.178h-.256c-1.864 0-3.61-.72-4.912-2.032a6.878 6.878 0 01-2.021-5.178 6.88 6.88 0 015.167 2.032zm0 7.505a6.87 6.87 0 012.022 5.168h-.256a6.9 6.9 0 01-4.912-2.032 6.87 6.87 0 01-2.021-5.167 6.858 6.858 0 015.167 2.031zm1.766 12.673a6.9 6.9 0 01-4.912-2.031 6.87 6.87 0 01-2.021-5.168 6.937 6.937 0 015.177 2.022 6.87 6.87 0 012.022 5.168c-.089.01-.178.01-.266.01zm7.219-2.031a6.886 6.886 0 01-5.178 2.022 6.907 6.907 0 012.022-5.178c1.37-1.371 3.225-2.081 5.178-2.022a6.878 6.878 0 01-2.022 5.178zm0-7.496a6.871 6.871 0 01-5.178 2.022 6.87 6.87 0 012.022-5.168 6.938 6.938 0 015.178-2.021 6.885 6.885 0 01-2.022 5.167zM38.128 42.053a.884.884 0 00-.888.888v4.171c0 .493.395.888.888.888a.884.884 0 00.887-.888v-4.171a.884.884 0 00-.887-.888zM38.128 4.27a.884.884 0 00.887-.887V.888A.884.884 0 0038.128 0a.884.884 0 00-.888.888v2.505c0 .483.395.877.888.877zM29.222 12.13a.884.884 0 00.888-.887V8.748a.884.884 0 00-.888-.888.884.884 0 00-.888.888v2.495c0 .493.395.887.888.887zM47.033 12.13a.884.884 0 00.888-.887V8.748a.884.884 0 00-.888-.888.884.884 0 00-.887.888v2.495c.01.493.404.887.887.887z"/></svg></svg>