<svg width="1920" height="361" viewBox="0 0 1920 361" fill="none" xmlns="http://www.w3.org/2000/svg">
<g filter="url(#filter0_dddd)">
<path d="M0 248.168V68.1889C2.55701 65.636 6.073 64.6786 10.2281 64.9977C11.5066 64.9977 13.1047 64.6786 14.3832 64.0404C17.5795 63.0831 20.4562 62.1257 23.6525 62.1257C24.931 62.1257 25.8898 61.4875 27.1683 61.1684C28.4468 60.8492 29.7252 60.5302 30.6841 60.5302C33.5608 61.1684 36.1178 60.8492 38.6748 59.5728C39.9534 58.9346 41.5516 59.2537 42.8301 58.6155C45.7068 57.6582 46.6656 57.9772 47.6245 61.1684C48.2638 63.083 50.1815 63.7213 51.7797 63.4022C55.2955 62.7639 58.8113 61.4875 62.6469 61.8066C63.6057 61.8066 64.5647 61.1684 65.5236 60.8493C66.8021 60.2111 68.4001 60.2111 69.6787 60.8493C71.5964 61.4875 73.8339 62.4448 76.0712 63.4022C76.0712 62.4448 76.0713 61.8066 75.7517 61.1684C75.7517 59.8919 75.432 58.6155 75.1124 57.6581C75.1124 56.7008 76.0712 55.7435 77.03 56.0626C77.3497 56.0626 77.3497 56.0626 77.6693 56.3817C82.7833 59.8919 88.5366 60.2111 94.6095 60.2111C96.2076 60.2111 97.8059 59.5728 99.0844 60.2111C102.281 61.1684 104.838 60.211 107.395 58.9346C107.714 58.9346 108.034 58.9346 108.354 58.9346C110.271 59.5728 112.509 60.211 114.427 61.1684C117.623 62.7639 120.819 63.4022 124.335 64.0404C127.851 64.6786 131.047 64.6786 134.563 64.0404C136.481 63.7213 138.399 63.4022 140.316 64.3595C142.234 65.3169 144.152 65.3168 146.07 64.9977C148.946 64.3595 151.823 64.6786 154.7 64.9977C158.535 65.3168 162.69 65.3168 166.526 64.9977C167.804 64.9977 169.083 64.9977 170.042 64.0404C172.279 62.1257 174.516 62.4449 177.073 62.4449C178.032 62.4449 178.991 62.7639 179.95 62.7639C182.187 62.7639 183.786 63.7213 184.744 65.3168C185.064 65.9551 185.703 66.2742 186.343 66.9124C186.662 67.2315 187.941 67.2315 188.26 66.5933C189.539 65.3168 190.817 64.0404 191.776 63.0831C193.374 61.8066 194.973 60.8493 197.21 60.8493C199.447 60.8493 201.685 60.211 203.603 59.5728C204.561 59.2537 205.201 59.8919 205.201 61.1684C205.201 61.4875 205.201 62.1257 205.52 62.4449C206.479 63.0831 207.758 62.7639 209.036 63.0831C210.634 63.4022 211.913 63.4022 213.511 63.7213C215.748 64.0404 217.027 66.5933 219.264 66.2742C221.501 66.2742 223.419 67.5507 225.337 68.8271C227.255 70.1035 229.492 70.4227 231.41 71.0609C233.008 71.38 234.606 71.6991 236.524 71.0609C237.803 70.7418 238.761 70.1035 240.04 70.1035C241.958 69.7844 243.875 70.1035 245.474 71.6991C246.432 72.9756 247.391 73.9329 248.67 74.8902C250.907 77.124 253.784 78.0814 256.661 77.7622C261.135 77.4431 265.93 76.8049 270.085 74.8902C273.601 73.2946 276.797 73.9329 279.993 75.5285C281.591 76.1667 282.87 77.4431 284.468 78.4005C287.025 79.6769 289.582 79.996 292.139 78.4005C292.459 78.0814 293.098 77.7622 293.418 77.4431C295.016 76.4858 296.614 76.1667 298.212 77.4431C298.532 77.4431 298.532 77.7622 298.851 77.7622C300.769 79.0387 302.687 78.7196 304.605 77.7622C305.563 77.4431 306.203 76.8049 307.162 76.1667C308.76 75.2094 310.038 74.5711 311.317 73.6138C314.833 74.252 318.349 73.9329 321.545 75.5285C322.504 75.8476 323.463 75.8476 324.422 75.8476C326.979 76.1667 329.855 76.8049 332.093 78.0814C334.33 79.6769 337.207 79.996 339.764 79.996C341.681 79.6769 342.96 80.6343 344.238 81.9107C345.197 82.868 346.156 84.1445 347.115 85.1018C349.352 87.3356 351.909 88.6121 355.106 87.6547C358.302 86.6974 361.818 86.6974 365.334 87.0165C365.653 87.0165 366.293 87.0165 366.612 87.3356C370.767 88.6121 374.923 87.3356 378.758 85.7401C380.995 84.7827 383.233 83.8254 385.79 83.1872C388.027 82.549 389.945 82.2298 392.182 82.5489C394.1 82.5489 396.018 82.868 397.936 82.5489C403.369 81.5916 408.803 82.5489 413.917 82.868C415.196 82.868 416.155 83.5063 417.433 83.8254C419.031 84.1445 419.99 85.421 419.67 87.0165C419.67 87.3356 419.99 87.3356 419.99 87.6547C421.269 87.9738 422.867 88.293 424.145 88.6121C425.743 88.9312 427.022 88.6121 428.3 87.6547C429.579 86.3783 431.177 85.7401 433.095 86.0592C435.332 86.3783 437.25 86.0592 439.487 85.1018C444.282 83.5063 448.756 82.2298 453.551 80.9534C455.469 80.3152 457.386 79.6769 459.304 79.0387C460.263 78.7196 461.222 79.0387 462.181 79.6769C462.82 79.996 463.14 80.6342 463.779 80.9534C465.057 81.9107 466.336 82.2298 467.934 82.2298C469.852 82.2298 471.77 81.9107 473.687 80.9534C479.441 78.7196 485.514 77.7622 491.586 77.7622C492.865 77.7622 494.143 77.7622 495.102 77.7622C498.938 77.124 502.773 77.7622 506.609 79.6769C509.166 80.9534 511.723 80.6342 514.6 80.9534C516.198 80.9534 516.837 79.996 516.837 78.7196C516.837 77.7622 517.796 77.7622 518.435 77.7622C520.673 78.0814 522.91 78.7196 524.188 80.6342C524.508 80.9534 524.828 81.2725 525.147 81.5916C526.426 82.868 528.024 83.5063 529.622 83.8254C532.179 83.8254 534.417 84.1445 536.974 83.8254C539.531 83.5063 541.768 83.8254 544.005 85.421C545.604 86.3783 547.202 86.6974 548.8 86.0592C549.759 85.7401 550.718 85.421 551.676 85.1018C553.914 84.4636 555.832 83.8254 558.069 84.4636C560.946 85.1018 563.503 84.1445 566.06 83.1872C567.018 82.868 567.658 82.2298 568.617 81.9107C571.813 80.6343 575.009 79.3578 578.525 79.3578C582.041 79.3578 585.237 78.4005 588.433 76.8049C593.547 74.252 599.301 73.6138 604.734 73.9329C606.013 73.9329 606.972 74.5711 608.25 74.8902C609.529 75.2093 610.807 75.8476 611.766 75.8476C614.323 75.5284 615.921 76.1667 617.839 77.7622C618.159 78.0814 619.118 78.4005 619.757 78.4005C622.634 78.4005 625.51 78.7196 628.387 79.0387C629.665 79.3578 631.264 79.0387 632.862 79.0387C635.738 78.7196 638.615 79.0387 641.492 79.6769C644.049 80.3151 646.606 80.6343 649.482 80.3152C651.08 79.996 652.998 80.3152 654.596 80.6342C657.153 81.2725 659.391 81.2725 661.948 80.6342C667.062 79.0387 672.495 79.3578 677.929 79.3578C680.167 79.3578 682.084 79.996 684.322 80.6342C689.116 81.9107 693.91 82.5489 698.705 80.9534C702.54 79.996 706.376 79.0387 710.211 78.4005C712.449 77.7623 714.686 78.4005 716.284 79.996C717.563 81.2725 719.161 82.2298 720.759 82.5489C722.038 82.868 722.996 83.5063 724.275 84.1445C726.832 85.7401 729.709 86.3783 732.585 87.0165C735.142 87.6547 737.699 88.293 740.576 88.6121C742.494 88.6121 744.411 88.9312 746.329 89.8885C748.886 91.165 751.443 91.4841 754.32 91.4841C757.197 91.4841 760.073 91.8032 763.269 91.4841C766.785 91.165 769.982 91.165 773.178 93.3988C774.456 94.3561 776.055 94.3561 777.333 94.3561C779.251 94.6752 781.169 95.3134 782.767 96.5899C784.684 97.8663 786.602 98.8237 788.52 99.781C790.438 100.738 792.356 101.696 794.593 102.015C797.15 102.334 799.387 102.972 801.625 104.249C804.182 105.525 806.739 106.163 809.296 106.482C813.771 107.121 817.926 107.759 822.401 108.078C828.473 108.397 834.546 107.121 840.619 105.844C845.094 104.887 849.249 102.653 853.404 100.738C854.044 100.419 854.683 100.1 855.322 99.781C857.879 98.1855 860.116 98.1854 862.673 100.419C864.591 102.015 866.829 102.972 869.386 103.61C871.623 104.249 874.18 104.887 876.417 105.525C877.376 104.568 878.016 103.929 879.294 102.972C882.49 103.291 885.367 103.61 888.563 102.972C889.842 102.653 891.44 102.972 893.038 103.291C894.636 103.291 896.554 103.929 898.152 103.61C901.988 102.972 905.823 102.972 909.659 103.61C910.937 103.929 912.216 103.61 913.175 103.291C916.051 102.334 918.928 102.334 921.805 102.972C922.444 103.291 923.403 102.972 924.042 102.972C925.32 102.653 926.279 102.015 926.919 101.057C927.238 100.1 927.558 99.1428 928.197 98.1855C928.836 96.909 929.476 96.2708 930.754 95.9517C932.033 95.6326 932.672 96.2708 933.311 97.8663C933.631 98.5046 933.95 99.1428 934.27 100.1C934.909 101.377 936.507 102.015 938.106 101.696C942.261 100.1 946.416 98.5046 950.571 96.909C950.891 96.5899 951.53 96.5899 951.849 96.2708C953.128 95.9517 954.406 95.9517 955.365 96.5899C956.324 96.909 956.964 97.5472 957.922 98.1855C958.562 98.5046 959.521 98.5046 960.16 98.5046C963.676 98.1855 967.511 97.8663 971.027 97.2281C971.986 97.2281 972.945 96.909 973.904 96.2708C975.182 95.6326 976.78 95.3134 978.059 95.9517C978.698 96.2708 979.657 96.2708 980.296 95.9517C982.853 94.6752 985.41 94.6752 988.287 94.6752C989.566 94.6752 990.844 94.3561 991.803 93.7179C993.401 92.1223 995.319 92.4414 997.237 92.4414C1002.99 93.3987 1008.74 93.3988 1014.82 92.1223C1017.69 91.4841 1020.57 91.8032 1023.45 91.4841C1025.68 91.4841 1027.92 91.4841 1030.16 91.4841C1033.35 91.4841 1036.55 90.8459 1039.43 89.5694C1041.98 88.293 1044.22 87.6547 1047.1 87.6547C1049.02 87.6547 1050.93 87.0165 1052.85 87.0165C1055.73 86.6974 1057.97 86.0592 1060.2 84.4636C1061.16 83.5063 1062.76 83.1872 1064.04 82.5489C1065.64 81.9107 1067.23 81.5916 1068.83 80.9534C1071.71 79.6769 1074.59 79.3578 1077.46 80.3152C1077.78 80.3152 1078.42 80.6342 1078.74 80.6342C1081.3 81.2725 1083.54 80.6342 1085.77 79.3578C1086.41 79.0387 1087.05 78.7196 1087.69 78.4005C1088.65 78.7196 1089.61 79.0387 1090.57 79.0387C1092.17 79.3578 1094.08 79.0387 1095.68 79.3578C1097.6 79.6769 1099.52 79.6769 1101.43 79.0387C1104.95 78.0814 1108.15 78.4005 1111.34 79.996C1112.3 80.6343 1113.26 79.996 1113.9 79.0387C1114.22 78.4005 1114.54 77.7622 1114.86 77.124C1115.5 75.8476 1116.14 74.8902 1117.74 74.8902C1119.65 74.8902 1121.57 74.252 1123.17 73.6138C1124.45 72.9756 1126.05 73.2947 1127.32 73.9329C1128.28 74.5711 1129.24 75.2094 1130.52 75.8476C1132.12 76.8049 1133.72 76.4858 1135.32 75.5285C1135.95 75.8476 1136.91 75.8476 1137.55 76.1667C1142.35 79.0387 1147.78 80.6342 1153.21 82.2298C1154.49 82.5489 1156.09 83.1872 1157.37 83.1872C1161.52 83.5063 1165.36 84.7827 1169.52 85.7401C1171.11 86.0592 1172.39 86.3783 1173.67 86.0592C1173.99 86.0592 1174.31 86.0592 1174.31 86.0592C1176.55 85.1018 1178.47 87.0165 1180.7 86.6974C1182.94 86.3783 1184.86 85.421 1187.1 85.1018C1188.69 84.7827 1190.61 85.4209 1192.21 85.7401C1193.49 86.0592 1195.09 86.6974 1196.36 87.3356C1197.96 87.9738 1198.28 87.9738 1199.56 86.3783C1200.84 84.7827 1202.12 84.1445 1204.04 84.4636C1207.23 84.7827 1210.11 86.0592 1212.98 87.9738C1214.26 88.9312 1215.86 88.6121 1217.14 87.9738C1219.7 86.6974 1222.57 85.7401 1225.13 84.4636C1227.05 83.8254 1228.97 83.5063 1230.88 84.4636C1233.44 85.7401 1236 85.421 1238.87 85.1018C1246.55 84.1445 1244.31 85.1018 1250.7 81.9107C1251.66 81.5916 1252.62 81.2725 1253.58 80.6342C1254.54 81.5916 1255.5 82.2298 1256.45 82.868C1258.05 84.1445 1259.97 84.7827 1261.89 84.1445C1263.49 83.8254 1265.08 83.1872 1266.68 82.868C1268.6 82.2298 1270.52 82.2298 1272.44 83.1872C1274.67 84.4636 1277.23 84.4636 1279.47 83.1872C1281.39 82.2298 1283.62 82.2298 1285.86 82.2298C1290.97 82.5489 1296.09 81.9107 1301.2 81.5916C1302.48 81.5916 1304.08 80.9534 1305.36 80.3152C1308.87 78.7196 1312.39 76.8049 1315.9 74.8902C1317.5 73.9329 1319.1 72.9756 1321.34 72.3373C1323.26 72.0182 1324.22 70.7418 1325.17 69.1462C1326.77 65.3169 1329.97 64.3595 1333.48 64.3595C1334.44 64.3595 1335.4 64.6786 1336.36 64.3595C1338.92 63.7213 1341.16 63.4022 1343.39 62.4449C1344.35 62.1257 1345.31 61.1684 1346.27 60.2111C1347.55 58.6155 1349.47 57.9773 1351.38 57.339C1356.18 55.7435 1360.97 56.0626 1365.77 57.0199C1368 57.3391 1369.92 58.2964 1371.84 59.5728C1374.08 61.1684 1376.63 61.4875 1379.51 61.1684C1380.79 60.8492 1382.39 60.8493 1383.99 60.8493C1384.62 61.4875 1384.94 62.1257 1385.26 62.7639C1386.22 64.3595 1387.5 65.3169 1389.42 65.9551C1394.21 67.5507 1399.33 68.8271 1404.12 70.4227C1406.68 71.0609 1408.92 71.0609 1411.47 70.7418C1413.39 70.1035 1415.31 70.4226 1417.23 71.38C1418.51 72.0182 1420.1 72.6564 1421.38 72.6564C1424.26 72.9756 1427.14 73.9329 1429.69 75.5285C1432.25 77.124 1435.13 77.4431 1438 77.124C1438.64 77.124 1438.96 77.124 1439.6 76.8049C1444.39 76.1667 1444.39 76.1667 1449.51 79.0387C1451.11 78.7196 1452.71 78.4005 1454.3 78.4005C1455.9 78.0814 1457.18 77.7623 1458.46 76.8049C1460.06 75.5285 1461.97 74.8902 1463.89 74.8902C1465.49 74.8902 1466.77 74.5711 1468.37 74.252C1472.84 73.2947 1477 73.6138 1481.47 74.5711C1484.35 75.2094 1487.22 75.5284 1490.1 74.8902C1491.7 74.5711 1493.62 74.252 1495.22 74.252C1497.13 74.252 1499.05 73.9329 1500.97 72.9756C1502.89 72.0182 1504.8 72.0182 1506.72 71.6991C1510.24 71.38 1513.43 71.38 1516.63 72.9756C1517.59 73.6138 1519.19 73.2947 1520.15 72.6564C1521.74 71.6991 1523.34 70.4227 1525.26 69.4653C1526.22 70.4227 1527.5 70.7418 1528.78 70.1035C1530.37 69.4653 1531.65 69.4653 1532.93 70.4227C1534.53 71.6991 1536.13 71.6991 1537.73 71.0609C1539.64 70.4227 1541.56 70.1035 1543.16 69.1462C1547 67.2315 1550.19 68.508 1553.07 71.38C1553.07 71.6991 1553.39 71.6991 1553.71 72.0182C1555.63 73.6138 1558.18 73.9329 1560.42 72.0182C1562.34 70.4227 1563.94 70.4226 1565.85 71.38C1567.77 72.6564 1569.69 73.2947 1572.25 72.9756C1573.84 72.6564 1575.76 73.2947 1577.36 73.9329C1580.24 75.2094 1583.11 75.5284 1585.99 74.5711C1587.59 73.9329 1589.19 74.252 1590.78 75.2094C1592.7 76.1667 1594.62 76.4858 1596.22 77.7622C1598.77 79.3578 1601.65 79.996 1604.53 80.6342C1607.09 81.2725 1609.32 81.2725 1611.88 80.3152C1616.35 78.4005 1620.83 78.4005 1625.62 79.0387C1627.54 79.3578 1629.46 79.3578 1631.38 79.0387C1633.93 78.7196 1636.17 78.7196 1638.73 79.0387C1639.69 79.3578 1640.65 79.6769 1641.6 79.3578C1645.76 79.0387 1649.92 80.3152 1653.75 81.5916C1656.63 82.549 1659.5 83.1872 1662.38 83.1872C1664.94 83.1872 1667.81 83.5063 1670.37 83.5063C1671.97 83.5063 1673.89 83.5063 1675.49 82.868C1677.4 81.9107 1679.64 81.9107 1681.88 82.2298C1686.03 82.868 1690.19 82.868 1694.34 82.868C1698.5 82.868 1702.65 83.8254 1706.81 84.1445C1707.45 84.1445 1708.41 84.4636 1708.73 85.1018C1711.6 87.6548 1715.12 87.3356 1718.32 86.3783C1720.87 85.421 1723.43 85.1018 1726.31 86.0592C1729.82 87.0165 1733.66 86.6974 1737.17 85.7401C1740.05 85.1018 1742.93 84.1445 1745.48 83.1872C1747.4 82.549 1749.32 82.2298 1751.24 81.5916C1754.75 80.9534 1757.63 80.9534 1760.83 83.1872C1763.7 85.1018 1767.22 85.7401 1770.73 85.1018C1774.57 84.4636 1778.09 85.421 1781.6 85.421C1783.84 85.421 1786.4 86.3783 1788.95 85.7401C1789.91 85.4209 1791.19 86.0592 1792.47 86.6974C1794.07 87.3356 1795.67 87.6547 1797.58 87.3356C1799.82 86.6974 1802.06 87.9738 1803.98 86.3783C1805.57 85.1018 1807.49 84.7827 1809.41 85.1018C1811.65 85.421 1813.88 85.4209 1815.8 84.4636C1818.68 83.1872 1821.24 81.2725 1822.19 77.7622C1822.83 75.8476 1824.43 75.5285 1825.39 77.124C1826.03 78.0814 1826.67 79.3578 1827.63 79.996C1828.91 81.5916 1831.14 82.2298 1833.06 81.2725C1833.7 80.9534 1834.34 80.6343 1834.98 80.3152C1836.9 78.7196 1838.81 79.3578 1840.41 80.9534C1841.37 81.5916 1842.01 82.5489 1842.97 83.8254C1843.61 84.4636 1843.93 85.421 1844.57 86.3783C1845.53 87.6548 1847.44 87.6548 1848.4 86.3783C1849.36 84.7827 1850 83.5063 1850.96 81.9107C1851.28 81.2725 1852.56 81.2725 1852.88 81.9107C1853.2 82.2298 1853.52 82.868 1853.52 83.1872C1854.48 84.7827 1855.44 86.3783 1856.39 87.9738H1857.03C1857.99 87.0165 1858.95 86.0592 1858.95 84.7827C1858.95 82.549 1860.23 80.9534 1862.15 80.3152C1863.43 79.6769 1864.7 79.0387 1866.3 78.7196C1868.54 78.0814 1871.1 77.7622 1873.33 77.124C1874.61 76.8049 1875.57 77.124 1876.21 78.7196C1876.85 80.3152 1877.81 81.5916 1879.09 82.868C1880.37 83.8254 1881.64 84.1445 1883.24 83.8254C1883.88 83.5063 1884.52 83.1872 1885.16 82.868C1886.76 82.2298 1888.36 81.9107 1890.27 82.5489C1892.19 83.1872 1893.47 82.549 1894.11 80.3152C1894.43 79.0387 1895.39 79.0387 1896.35 79.3578C1897.31 79.996 1898.58 80.3152 1899.54 80.9534C1902.1 81.9107 1904.66 82.2298 1907.21 80.9534C1909.45 79.6769 1912.01 79.6769 1914.25 80.9534C1915.53 81.5916 1917.12 81.5916 1918.4 81.2725C1919.04 81.2725 1919.68 81.2725 1920 81.2725V319.011C1919.04 319.011 1917.76 319.011 1916.8 318.692C1914.57 318.373 1912.65 318.692 1910.41 319.65C1907.53 321.245 1904.66 322.841 1901.78 324.117C1898.9 325.394 1895.71 325.394 1892.83 326.989C1891.87 327.627 1891.23 326.989 1891.23 325.394C1891.23 325.075 1891.23 324.436 1891.23 323.798C1890.91 323.479 1890.27 323.16 1890.27 323.16C1889 323.798 1887.72 324.436 1886.44 325.075C1885.16 325.713 1883.56 325.713 1882.28 325.075C1881.64 324.755 1881.01 324.117 1880.37 323.798C1879.09 322.841 1877.81 322.522 1876.21 322.522C1873.65 322.841 1871.42 322.841 1868.86 323.16C1865.66 323.479 1862.47 323.16 1859.59 321.245C1857.03 319.65 1854.16 318.373 1850.96 317.735C1848.08 317.416 1845.53 316.139 1842.97 314.225C1842.01 313.587 1841.05 313.587 1840.09 314.225C1836.9 317.097 1832.42 317.416 1829.23 320.288C1828.59 320.926 1827.31 320.926 1826.35 320.607C1819.64 318.373 1812.92 318.692 1805.89 319.65C1803.02 319.969 1800.14 319.969 1797.26 319.331C1791.19 317.416 1785.12 317.416 1779.04 318.373C1775.85 319.011 1772.65 319.011 1769.46 318.373C1764.98 317.416 1760.83 317.416 1756.35 318.373C1752.84 319.011 1749 319.011 1745.48 319.011C1739.73 319.011 1734.3 318.054 1728.86 317.416C1726.31 317.097 1724.07 317.097 1721.51 318.054C1717.68 319.331 1714.16 320.607 1710.32 322.203C1707.45 323.479 1704.57 323.798 1702.01 322.203C1700.1 321.245 1698.18 321.564 1696.26 322.522C1694.66 323.479 1693.38 324.436 1691.79 325.075C1687.95 327.308 1683.8 328.585 1679.32 328.266C1677.72 328.266 1675.8 328.266 1674.21 327.947C1668.45 326.67 1662.7 326.989 1656.63 327.627C1655.35 327.627 1654.07 327.627 1653.11 327.308C1651.83 326.989 1650.23 326.351 1648.96 326.032C1645.44 324.436 1641.6 322.841 1637.77 323.479C1632.34 322.203 1626.58 321.564 1621.47 319.65C1619.55 319.011 1617.63 318.692 1615.72 319.65C1613.8 320.607 1611.56 320.926 1609.32 320.926C1605.81 320.926 1602.29 320.926 1599.09 320.926C1595.58 320.926 1592.38 320.926 1589.19 322.841C1587.59 323.798 1585.67 323.798 1584.07 322.841C1581.51 321.564 1578.64 320.607 1576.08 319.011C1573.52 317.416 1570.65 316.459 1567.77 316.778C1565.85 317.097 1563.94 316.778 1562.02 316.139C1561.06 315.82 1560.1 315.82 1559.14 315.82C1556.26 316.139 1553.71 315.82 1551.15 314.863C1548.59 313.906 1546.04 313.587 1543.16 313.587C1539.64 313.587 1536.45 313.587 1532.93 313.267C1531.01 313.267 1529.1 312.948 1527.18 311.991C1524.62 310.395 1521.74 310.076 1518.55 309.757C1515.03 309.119 1511.84 308.8 1509.28 305.928C1508.96 305.29 1508 304.97 1507.36 304.97C1502.89 304.013 1498.41 303.375 1494.58 305.609C1491.06 307.523 1487.54 307.523 1484.03 308.162C1482.75 308.481 1481.47 308.162 1480.51 307.523C1480.19 307.523 1480.19 307.204 1479.87 307.204C1476.36 304.332 1472.52 304.97 1468.69 306.247C1467.41 306.566 1466.45 307.204 1465.17 307.523C1463.89 308.162 1462.61 308.162 1461.65 307.523C1457.18 304.97 1452.07 305.609 1447.27 304.651C1445.99 304.332 1444.39 304.651 1442.8 304.97C1440.56 305.29 1438.32 305.609 1436.4 306.247C1434.17 306.566 1432.25 306.885 1430.01 306.566C1429.05 306.566 1428.09 306.247 1427.14 306.566C1424.26 307.842 1421.38 307.204 1418.51 307.204C1409.88 307.204 1401.56 307.204 1392.93 307.204C1391.34 307.204 1390.06 307.204 1388.46 307.523C1383.99 308.8 1379.83 307.523 1375.36 306.566C1374.08 306.247 1372.48 305.609 1371.2 304.97C1368.32 304.332 1365.45 304.332 1362.57 305.609C1360.65 306.566 1358.42 307.204 1356.5 308.162C1352.98 310.076 1348.83 310.395 1344.99 309.757C1339.88 308.8 1334.76 309.438 1329.65 307.842C1328.37 307.523 1327.09 307.842 1326.13 307.842C1324.85 307.842 1323.58 308.162 1322.62 307.842C1318.14 306.566 1313.67 306.247 1308.87 305.609C1304.4 304.651 1300.24 304.332 1296.09 306.247C1294.17 307.204 1292.25 306.885 1290.33 306.566C1286.18 305.928 1282.02 305.29 1277.87 304.651C1276.59 304.332 1274.99 304.332 1273.39 304.332C1271.48 304.332 1269.56 304.651 1267.64 305.609C1266.68 306.247 1266.04 306.566 1265.08 306.885C1263.49 307.842 1261.89 307.842 1259.97 307.523C1259.01 307.204 1258.05 306.885 1257.09 306.885C1255.5 306.566 1253.58 306.566 1252.3 307.842C1248.14 310.395 1243.99 312.948 1240.79 316.778C1239.83 317.735 1238.56 319.011 1237.6 319.969C1236.96 320.288 1236.32 320.926 1235.68 320.926C1233.76 321.245 1231.84 321.245 1229.93 321.245C1229.29 321.245 1228.65 320.926 1227.69 320.607C1226.73 320.288 1226.09 319.65 1225.13 319.331C1222.89 318.054 1220.66 317.735 1218.1 319.331C1213.94 321.883 1209.15 322.203 1204.99 324.117C1204.35 324.436 1203.4 324.117 1202.76 324.117C1201.48 323.798 1200.52 323.479 1199.24 323.798C1197.96 324.117 1197 323.479 1196.04 322.522C1193.17 319.331 1189.33 318.692 1185.18 319.969C1181.66 321.245 1177.83 321.564 1174.31 322.203C1170.47 323.16 1166.64 323.798 1163.44 326.351C1162.8 326.989 1161.52 326.989 1160.57 327.308C1153.53 327.627 1146.5 329.542 1139.79 331.776C1138.51 332.095 1137.23 333.052 1135.95 334.01C1131.8 336.563 1127.64 339.116 1122.53 340.073C1119.33 340.711 1116.14 342.307 1112.94 343.902C1110.7 344.86 1108.47 345.179 1106.87 343.902C1103.99 341.668 1100.48 341.668 1097.6 339.435C1097.28 339.116 1096 339.116 1095.68 339.435C1093.76 340.711 1091.85 341.03 1089.61 341.03C1086.41 341.03 1083.22 341.349 1080.02 341.03C1077.14 340.711 1074.27 341.349 1071.39 341.988C1070.11 342.307 1069.15 342.945 1068.19 343.583C1065.64 345.498 1062.76 347.093 1060.84 349.646C1059.24 351.561 1057.33 352.199 1055.09 352.518C1054.13 352.518 1053.17 352.518 1052.21 352.837C1048.38 353.476 1045.5 352.199 1042.94 349.646C1041.66 348.689 1041.03 347.412 1041.35 345.817C1041.98 343.902 1041.03 342.626 1039.43 341.349C1037.19 339.754 1034.63 339.116 1031.76 339.435C1027.28 339.754 1022.49 340.073 1018.01 339.435C1016.41 339.116 1014.5 339.435 1012.9 340.073C1009.06 341.668 1005.23 341.03 1001.39 341.988C1000.75 342.307 999.794 341.988 999.154 341.988C994.999 341.03 990.844 341.03 986.689 341.03C982.853 341.03 979.337 339.754 977.1 336.563C975.822 334.967 974.223 334.01 972.306 333.371C968.79 332.414 965.594 330.819 962.397 328.904C961.438 328.266 960.16 327.947 958.881 327.627C956.964 326.989 955.046 326.67 953.128 326.032C951.21 325.394 949.292 325.075 947.375 325.394C945.137 325.713 942.9 325.713 940.982 325.075C938.425 324.755 936.188 324.436 933.631 324.117C932.033 323.798 930.115 323.798 928.517 324.436C925.32 325.713 922.444 325.713 919.248 325.075C917.01 324.755 914.773 324.436 912.855 325.394C910.298 326.351 908.061 326.351 905.504 325.713C904.864 325.713 903.905 325.394 903.266 325.394C900.709 324.755 898.472 324.755 895.915 325.394C891.76 326.67 887.285 327.627 882.81 327.627C881.532 327.627 880.573 328.266 879.294 328.585C878.655 328.585 877.696 328.585 877.057 328.266C876.098 327.947 875.459 327.308 874.5 326.67C872.902 325.713 871.303 325.394 869.705 325.075C868.427 325.075 866.829 325.075 865.231 325.075C863.313 325.075 861.395 325.394 859.477 325.075C853.404 324.117 847.651 324.436 842.217 326.351C841.898 326.351 841.259 326.67 840.619 326.67C839.021 326.67 837.743 326.67 836.145 326.989C834.866 327.308 833.587 328.266 831.989 328.904C831.03 328.266 830.391 327.947 829.432 327.308C828.154 326.351 826.875 326.032 825.277 326.032C823.679 326.032 821.761 326.032 820.163 326.351C816.008 327.308 811.533 327.947 807.378 329.861C803.862 331.776 800.027 332.095 795.871 331.776C792.356 331.457 789.159 331.457 785.643 332.095C785.004 332.095 784.045 332.095 783.406 332.414C779.571 334.01 776.055 334.329 771.899 333.691C770.301 333.371 768.703 334.01 766.785 334.648C765.187 334.967 763.909 335.286 762.63 334.648C760.073 333.371 757.516 334.01 754.959 335.286C754 335.605 753.041 336.244 752.402 336.563C749.206 338.158 746.01 338.477 742.494 336.563C740.896 335.605 739.297 335.286 737.38 335.605C735.142 335.924 733.544 335.286 732.266 333.371C729.389 328.904 725.554 325.713 721.398 322.522C716.924 319.011 711.81 316.459 706.056 315.82C703.819 315.501 701.901 314.863 700.303 313.267C699.025 311.991 697.426 311.353 695.828 311.034C693.271 310.714 690.714 310.076 687.838 309.438C684.961 308.8 682.404 307.523 680.166 305.29C679.527 304.651 679.208 304.332 678.568 303.694C677.29 302.098 675.692 301.141 673.774 300.503C671.536 300.184 669.619 298.907 667.701 297.631C665.144 296.035 662.267 294.44 659.391 292.844C657.153 291.568 654.596 291.568 652.359 292.844C649.482 294.44 646.606 294.44 643.729 293.802C641.172 293.163 638.935 292.844 636.378 293.482C633.821 294.121 631.583 293.482 629.026 292.844C628.387 292.525 627.748 292.525 626.789 292.206C624.232 291.249 621.675 290.61 618.798 290.93C615.921 291.249 613.364 290.93 611.127 289.334C608.25 287.419 604.734 286.781 601.219 286.462C599.62 286.462 597.703 286.143 596.104 285.824C588.433 284.547 580.443 284.547 572.772 286.781C570.854 287.419 568.936 287.738 567.018 288.057C565.42 288.377 563.822 289.015 562.224 289.653C560.306 290.291 558.069 291.249 555.832 291.568C554.233 292.206 552.316 292.206 550.717 291.249C546.882 289.334 542.727 289.334 538.572 289.972C533.777 290.93 528.663 290.61 523.869 289.972C517.476 289.015 511.403 288.057 505.011 287.1C503.093 286.781 501.175 286.781 499.258 287.1C493.824 288.057 488.071 289.015 482.637 289.653C478.162 289.972 473.368 290.291 468.893 291.249C467.615 291.568 466.016 291.249 464.418 291.249C462.82 291.249 461.542 290.93 459.943 291.568C456.747 292.525 453.551 292.525 450.674 291.568C449.396 291.249 448.117 291.249 447.158 290.93C443.323 289.972 439.807 290.291 436.611 292.206C433.414 294.121 430.218 294.121 426.702 293.163C425.424 292.844 424.465 292.525 423.186 292.206C421.588 291.887 420.31 291.887 419.031 292.206C418.392 292.525 417.433 292.844 416.794 292.525C413.917 291.568 411.68 292.844 409.442 294.759C408.803 295.078 408.164 295.716 407.844 296.035C404.968 298.588 401.452 299.865 397.616 299.865C394.74 299.865 391.863 300.503 388.986 299.546C388.347 299.226 387.388 299.226 386.749 299.226C382.594 300.184 379.078 297.95 375.881 296.035C373.644 294.759 371.407 293.802 369.169 293.482C366.293 292.844 363.416 292.206 360.539 291.568C357.023 290.61 353.188 290.61 349.672 291.249C348.074 291.568 346.795 291.887 345.197 291.887C341.042 291.887 336.887 292.206 333.052 294.44C332.093 294.759 331.134 295.078 330.175 295.078C323.463 295.716 317.07 296.674 310.678 298.269C306.522 299.226 302.367 298.907 298.532 297.312C297.892 296.993 297.253 296.674 296.614 296.354C295.335 295.716 293.737 295.716 292.459 296.354C287.345 298.588 281.911 297.95 276.477 298.907C275.838 298.907 275.519 298.907 274.879 298.907C268.806 297.631 262.733 298.269 256.661 298.269C251.866 298.269 247.391 297.95 243.236 295.078C242.277 294.44 240.999 294.121 239.72 293.802C238.122 293.163 236.524 292.844 234.926 292.206C230.771 290.291 226.296 290.291 222.141 291.249C219.584 291.568 217.346 292.206 215.109 292.844C213.191 293.482 211.274 293.482 209.356 292.844C207.438 292.525 205.52 291.887 203.603 291.887C197.849 291.887 192.416 290.291 186.982 289.015C185.703 288.696 184.425 288.377 183.466 287.738C179.63 285.824 175.795 284.866 171.64 284.228C166.206 283.59 161.092 282.633 155.978 280.718C153.741 280.08 151.184 279.761 148.627 279.761C145.75 279.761 142.873 279.441 139.997 278.803C138.718 278.484 137.12 278.165 135.522 278.165C131.686 278.165 128.17 277.527 124.655 276.25C121.458 274.974 117.942 274.974 114.427 275.612C113.468 275.612 112.509 275.931 111.55 276.25C110.911 276.25 109.952 275.612 109.952 274.974C109.952 274.017 109.952 273.378 109.952 272.421H105.797C105.797 272.74 105.477 273.378 105.157 273.697C104.838 274.017 104.198 274.017 103.879 273.697C101.002 270.825 97.1667 270.825 93.9705 268.911C93.3312 268.592 92.3723 268.592 91.733 268.592C89.176 268.911 86.9386 268.592 84.3816 269.549C84.062 269.868 83.7422 270.187 83.4226 270.506C82.144 271.783 80.8656 272.102 79.2675 271.145C76.3909 269.549 73.8337 269.23 70.6376 269.868C69.6786 270.187 68.0806 269.868 67.1217 269.549C65.5236 269.23 64.2451 268.911 62.9666 268.273C58.4918 266.358 54.0171 265.72 49.2227 266.677C48.5834 266.677 47.6245 266.039 47.6245 265.4C47.6245 265.081 47.6245 264.762 47.6245 264.762C48.2638 261.252 46.0264 259.018 43.7889 257.104C43.1497 256.465 41.8712 256.146 41.2319 256.146C38.6749 256.146 36.4375 255.508 34.2002 254.232C33.2412 253.593 32.2825 254.232 31.6432 254.551C29.7255 255.827 29.7255 255.827 28.4469 253.912C27.488 252.636 26.2095 251.998 24.6113 251.998C23.6525 251.998 22.6935 251.998 21.7346 252.317C18.8579 252.955 16.3009 252.636 13.7439 251.36C9.58875 249.445 4.79443 248.807 0 248.168Z" fill="white"/>
</g>
<defs>
<filter id="filter0_dddd" x="-32" y="0" width="1984" height="361" filterUnits="userSpaceOnUse" color-interpolation-filters="sRGB">
<feFlood flood-opacity="0" result="BackgroundImageFix"/>
<feColorMatrix in="SourceAlpha" type="matrix" values="0 0 0 0 0 0 0 0 0 0 0 0 0 0 0 0 0 0 127 0"/>
<feOffset/>
<feGaussianBlur stdDeviation="0.5"/>
<feColorMatrix type="matrix" values="0 0 0 0 0 0 0 0 0 0 0 0 0 0 0 0 0 0 0.04 0"/>
<feBlend mode="normal" in2="BackgroundImageFix" result="effect1_dropShadow"/>
<feColorMatrix in="SourceAlpha" type="matrix" values="0 0 0 0 0 0 0 0 0 0 0 0 0 0 0 0 0 0 127 0"/>
<feOffset dy="-4"/>
<feGaussianBlur stdDeviation="4"/>
<feColorMatrix type="matrix" values="0 0 0 0 0 0 0 0 0 0 0 0 0 0 0 0 0 0 0.04 0"/>
<feBlend mode="normal" in2="effect1_dropShadow" result="effect2_dropShadow"/>
<feColorMatrix in="SourceAlpha" type="matrix" values="0 0 0 0 0 0 0 0 0 0 0 0 0 0 0 0 0 0 127 0"/>
<feOffset dy="-16"/>
<feGaussianBlur stdDeviation="12"/>
<feColorMatrix type="matrix" values="0 0 0 0 0 0 0 0 0 0 0 0 0 0 0 0 0 0 0.04 0"/>
<feBlend mode="normal" in2="effect2_dropShadow" result="effect3_dropShadow"/>
<feColorMatrix in="SourceAlpha" type="matrix" values="0 0 0 0 0 0 0 0 0 0 0 0 0 0 0 0 0 0 127 0"/>
<feOffset dy="-24"/>
<feGaussianBlur stdDeviation="16"/>
<feColorMatrix type="matrix" values="0 0 0 0 0 0 0 0 0 0 0 0 0 0 0 0 0 0 0.04 0"/>
<feBlend mode="normal" in2="effect3_dropShadow" result="effect4_dropShadow"/>
<feBlend mode="normal" in="SourceGraphic" in2="effect4_dropShadow" result="shape"/>
</filter>
</defs>
</svg>
