<svg xmlns="http://www.w3.org/2000/svg" viewBox="0 0 303 241"><path d="M29.436,229.958a10.918,10.918,0,0,1-3.248,4.375,7.579,7.579,0,0,1-4.5,1.313q-9.3,0-9.3-14.069a22.8,22.8,0,0,1,2.422-11.048,7.619,7.619,0,0,1,6.993-4.373c3.155,0,5.3,2.049,6.442,6.121a4.405,4.405,0,0,0,.9,0,5.6,5.6,0,0,0,.969,0q.117-4.06.458-7.488a14.643,14.643,0,0,0-8.773-2.811,15.295,15.295,0,0,0-12.348,5.386q-4.532,5.371-4.531,15.146.039,8.421,4.046,13.281t11.864,4.86a17.769,17.769,0,0,0,9.349-2.627q.393-2.286.9-8.066a1.445,1.445,0,0,0-.734-.118A2.924,2.924,0,0,0,29.436,229.958Z" fill="#ffffff" /><path d="M32.015,202.648c.04,2.588-.065,5.307-.288,8.119a2.283,2.283,0,0,0,1.31,0,8,8,0,0,1,3.129-3.4,9.141,9.141,0,0,1,4.911-1.313H41.3a.34.34,0,0,1,.158.017.354.354,0,0,1,.218.218.357.357,0,0,1,.017.159v28.309c0,1.983-.34,3.231-1.021,3.731-.3.183-.341.617-.118,1.313a75.9,75.9,0,0,1,9.467,0c.275-.7.262-1.13,0-1.313-.8-.539-1.205-1.774-1.205-3.731V206.445c0-.263.131-.394.445-.368h.223a9.136,9.136,0,0,1,4.91,1.314,7.991,7.991,0,0,1,3.038,3.376,2.283,2.283,0,0,0,1.31,0,78.738,78.738,0,0,1-.288-8.119Z" fill="#ffffff" /><path d="M81.878,231.614c-1.7,3.048-5.081,4.677-10.318,4.86h-.733c-.276,0-.406-.131-.406-.394V222.116h1.427a22.849,22.849,0,0,1,7.529.92,18.989,18.989,0,0,1,0-5.439,22.47,22.47,0,0,1-7.582.894H70.369V206.313a.355.355,0,0,1,.012-.165.352.352,0,0,1,.394-.242h1.191a24.1,24.1,0,0,1,3.392.289,10.262,10.262,0,0,1,3.194,1.313,9.114,9.114,0,0,1,3.1,2.943,2.249,2.249,0,0,0,1.31,0q-.458-4.5-.459-7.777H62.2c-.288.684-.261,1.13,0,1.314.8.539,1.193,1.774,1.193,3.718v27.048c0,1.983-.342,3.231-1.022,3.731-.3.183-.341.617-.118,1.313H82.73c.039-2.561.195-5.281.458-8.184A2.249,2.249,0,0,0,81.878,231.614Z" fill="#ffffff" /><path d="M102.069,200.257q5.421,0,9.978-5.832l-.969-1.826a10.9,10.9,0,0,1-7.188,2.167,8.313,8.313,0,0,1-6.155-2.167l-2.618,5.491a7.226,7.226,0,0,0,2.906,1.511A12.912,12.912,0,0,0,102.069,200.257Z" fill="#ffffff" /><path d="M114.719,237.214a3.788,3.788,0,0,1-.223-1.856V207.049a3.85,3.85,0,0,1,1.309-3.376c.1-.026.04-.381-.236-1.025l-7.162.066L95.692,230.3V207.076A3.8,3.8,0,0,1,97,203.7c.118-.026.039-.38-.223-1.025H87.941c-.223.645-.341,1.025-.223,1.025a3.749,3.749,0,0,1,1.427,3.377v28.308a3.823,3.823,0,0,1-1.309,3.376c-.1.04-.026.381.236,1.037H95.26a61.4,61.4,0,0,0,4.047-7.671l8.6-18.469v21.7c0,1.6-.34,2.64-1.021,3.1-.314.3-.341.736-.117,1.313h8.811c.223-.656.342-1.037.223-1.037A3.784,3.784,0,0,1,114.719,237.214Z" fill="#ffffff" /><path d="M145.974,234.6c-1.191-1.8-2.867-4.479-5.054-8.092s-3.824-6.266-4.923-7.987l6.952-10.233A15.054,15.054,0,0,1,146.878,204c.1-.039.1-.236.1-.578a2.644,2.644,0,0,0-.1-.8c-2.553.079-4.517.079-5.827,0a64.482,64.482,0,0,1-5.355,8.92l-5.526,7.882V207.6c0-1.983.34-3.231,1.021-3.717.3-.184.341-.617.117-1.314a75.9,75.9,0,0,1-9.467,0c-.222.684-.209,1.117.066,1.314.8.525,1.192,1.76,1.192,3.717v27.154c0,1.983-.341,3.231-1.021,3.731-.315.183-.342.617-.118,1.312a76.284,76.284,0,0,1,9.467,0c.222-.695.209-1.129-.066-1.312-.8-.539-1.191-1.774-1.191-3.731V221.722l10.605,18.128a75.984,75.984,0,0,1,8.617,0q.274-.972,0-1.314A12.489,12.489,0,0,1,145.974,234.6Z" fill="#ffffff" /><path d="M176.052,210.57a15.751,15.751,0,0,0-2.62-4.44,11.644,11.644,0,0,0-4.241-3.022,14.626,14.626,0,0,0-6.011-1.182,14.449,14.449,0,0,0-7.241,1.721,11.309,11.309,0,0,0-4.57,4.689,23.811,23.811,0,0,0-2.187,6.149,34.47,34.47,0,0,0-.654,6.9,31.993,31.993,0,0,0,.68,6.8,23.625,23.625,0,0,0,2.227,6.057,11.408,11.408,0,0,0,4.53,4.637,14.282,14.282,0,0,0,7.215,1.72,14.727,14.727,0,0,0,6.05-1.064,11.458,11.458,0,0,0,4.255-3.061,15.586,15.586,0,0,0,2.619-4.519,23.686,23.686,0,0,0,1.4-5.254,38.2,38.2,0,0,0,.367-5.491,35.84,35.84,0,0,0-.393-5.426A24.277,24.277,0,0,0,176.052,210.57ZM170.3,224.691a38.277,38.277,0,0,1-.537,4.033,18.125,18.125,0,0,1-1.178,4.006,7.875,7.875,0,0,1-2.135,2.89,4.851,4.851,0,0,1-3.273,1.2V236.8a5.118,5.118,0,0,1-3.849-1.615,9.473,9.473,0,0,1-2.253-4.349,35.778,35.778,0,0,1-.917-4.913c-.143-1.472-.222-2.982-.222-4.545q0-1.826.117-3.547a32.789,32.789,0,0,1,.537-4.033,18.323,18.323,0,0,1,1.166-4.006,8.139,8.139,0,0,1,2.134-2.89,4.874,4.874,0,0,1,3.287-1.2,5.131,5.131,0,0,1,3.85,1.629,9.591,9.591,0,0,1,2.251,4.348,35.179,35.179,0,0,1,.9,4.913,42.342,42.342,0,0,1,.236,4.546Q170.421,222.971,170.3,224.691Z" fill="#ffffff" /><path d="M197.382,219.424a10.709,10.709,0,0,0,5.421-3.442,8.427,8.427,0,0,0,1.873-5.426q.014-7.881-11.288-7.882H182.049c-.236.684-.2,1.13.1,1.314.734.539,1.088,1.774,1.088,3.718V235.45a4.043,4.043,0,0,1-1.31,3.376,1.762,1.762,0,0,0,.17.972h9.519a18.738,18.738,0,0,0,10.634-3.074,9.405,9.405,0,0,0,3.849-8.04,8.55,8.55,0,0,0-2.173-5.885A11.507,11.507,0,0,0,197.382,219.424Zm-7.041-12.774a1.891,1.891,0,0,1,.428-.718,2.736,2.736,0,0,1,1.65-.394c3.457,0,5.186,1.708,5.186,5.15q0,7.422-7.346,8v-11.2A1.9,1.9,0,0,1,190.341,206.65Zm6.989,27.71a4.894,4.894,0,0,1-4.111,1.944h-.027a3.093,3.093,0,0,1-2.278-.709,3.524,3.524,0,0,1-.707-2.5V221.775q8.432.459,8.432,7.948A7.742,7.742,0,0,1,197.33,234.36Z" fill="#ffffff" /><path d="M266.415,233.716,255.468,201.69a49.006,49.006,0,0,1-7.189.748,1.689,1.689,0,0,0-.222.749c-.092.341-.079.552,0,.63a2.508,2.508,0,0,1,2.029,1.459,6.733,6.733,0,0,1-.484,3.94l-9.363,25.576a9.288,9.288,0,0,1-2.16,3.731,2.05,2.05,0,0,0-.051.312.644.644,0,0,0-.12-.3,12.822,12.822,0,0,1-3.416-3.94c-1.179-1.8-2.855-4.479-5.042-8.092s-3.837-6.266-4.936-7.987l6.952-10.233A15.244,15.244,0,0,1,235.46,204c.118-.039.118-.236.118-.578a2.183,2.183,0,0,0-.118-.8q-3.811.118-5.814,0a65.549,65.549,0,0,1-5.356,8.92l-5.538,7.882V207.6c0-1.983.354-3.231,1.034-3.717.3-.184.34-.617.118-1.314a75.9,75.9,0,0,1-9.467,0c-.288.684-.262,1.117,0,1.314.8.525,1.2,1.76,1.2,3.717v27.154c0,1.983-.34,3.231-1.035,3.731-.3.183-.34.617-.1,1.312a76.075,76.075,0,0,1,9.454,0c.288-.695.261-1.129,0-1.312-.8-.539-1.2-1.774-1.2-3.731V221.722l10.554,18.128a75.72,75.72,0,0,1,8.6,0,4.032,4.032,0,0,0,.1-.424,2.039,2.039,0,0,0,.068.411,33.571,33.571,0,0,1,6.783,0,2.6,2.6,0,0,0,0-.683,2.6,2.6,0,0,0,0-.683c-.812-.38-.8-1.694,0-3.941l1.938-5.543h10.724l1.885,5.6q1.088,3.1-.13,3.836a2.6,2.6,0,0,0,0,.682,2.6,2.6,0,0,0,0,.683,46.493,46.493,0,0,1,9.754,0,2.6,2.6,0,0,0,0-.683,2.6,2.6,0,0,0,0-.682C268.143,238.142,267.279,236.579,266.415,233.716Zm-18.005-9,3.929-11.152,3.7,11.152Z" fill="#ffffff" /><path d="M266.539,50.081,194.423,29.064,94.344,43.028,0,198.3l16.5-5.255q1.709-2.7,3.391-5.254L133.247,127.6l-24.7,27.758L174.86,123.1l5.395,1.208L157.1,150.956l46.039-21.2c26.974,6.659,50.387,13.136,50.387,13.136l.052.026s17.82-8.828,17.82-9.484c0-.458,1.606-39.684,2.578-63.364C282.246,62.7,303,41.373,303,41.373S280.918,46.492,266.539,50.081Z" fill="#ff7f40" /><path d="M244.378,70.128,270.71,58.306c-.956,23.317-2.619,63.567-2.973,73.051-2.147,1.222-6.625,3.546-11.352,5.924Z" fill="#ffffff" /><path d="M183.542,101.288s27.419-23.764,34.62-28.624A7.358,7.358,0,0,1,223,71.416c2.684.276,6.547,1.655,9.847,6.568a17.821,17.821,0,0,1,3.129,10.68,5.944,5.944,0,0,1-4.884,5.57C219.38,96.427,183.542,101.288,183.542,101.288Z" fill="#ffffff" /><path d="M244.915,13.012A12.643,12.643,0,0,0,257.537.349,12.643,12.643,0,0,0,270.16,13.012a12.643,12.643,0,0,0-12.623,12.663A12.643,12.643,0,0,0,244.915,13.012Z" fill="#ffffff" /><path d="M190.691,159.39a12.643,12.643,0,0,0,12.623-12.663,12.642,12.642,0,0,0,12.623,12.663,12.643,12.643,0,0,0-12.623,12.664A12.644,12.644,0,0,0,190.691,159.39Z" fill="#ffffff" /><path d="M2.959,110.418A12.644,12.644,0,0,0,15.582,97.755a12.643,12.643,0,0,0,12.623,12.663,12.643,12.643,0,0,0-12.623,12.664A12.644,12.644,0,0,0,2.959,110.418Z" fill="#ffffff" />
</svg>