<?xml version="1.0" encoding="utf-8"?>
<svg version="1.1" id="Слой_1" xmlns="http://www.w3.org/2000/svg" xmlns:xlink="http://www.w3.org/1999/xlink" x="0px" y="0px" viewBox="0 0 1920 297" style="enable-background:new 0 0 1920 297;" xml:space="preserve">
	<g>
		<path d="M0,192.2v-180C2.6,9.6,6.1,8.7,10.2,9c1.3,0,2.9-0.3,4.2-1c3.2-1,6.1-1.9,9.3-1.9c1.3,0,2.2-0.6,3.5-1
		c1.3-0.3,2.6-0.6,3.5-0.6c2.9,0.6,5.4,0.3,8-1c1.3-0.6,2.9-0.3,4.2-1c2.9-1,3.8-0.6,4.8,2.6c0.6,1.9,2.6,2.6,4.2,2.2
		c3.5-0.6,7-1.9,10.9-1.6c1,0,1.9-0.6,2.9-1c1.3-0.6,2.9-0.6,4.2,0c1.9,0.6,4.2,1.6,6.4,2.6c0-1,0-1.6-0.3-2.2
		c0-1.3-0.3-2.6-0.6-3.5c0-1,1-1.9,1.9-1.6c0.3,0,0.3,0,0.6,0.3c5.1,3.5,10.9,3.8,16.9,3.8c1.6,0,3.2-0.6,4.5,0c3.2,1,5.8,0,8.3-1.3
		c0.3,0,0.6,0,1,0c1.9,0.6,4.2,1.3,6.1,2.2c3.2,1.6,6.4,2.2,9.9,2.9s6.7,0.6,10.2,0c1.9-0.3,3.8-0.6,5.8,0.3c1.9,1,3.8,1,5.8,0.6
		c2.9-0.6,5.8-0.3,8.6,0c3.8,0.3,8,0.3,11.8,0c1.3,0,2.6,0,3.5-1c2.2-1.9,4.5-1.6,7-1.6c1,0,1.9,0.3,2.9,0.3c2.2,0,3.8,1,4.8,2.6
		c0.3,0.6,1,1,1.6,1.6c0.3,0.3,1.6,0.3,1.9-0.3c1.3-1.3,2.6-2.6,3.5-3.5c1.6-1.3,3.2-2.2,5.4-2.2s4.5-0.6,6.4-1.3
		c1-0.3,1.6,0.3,1.6,1.6c0,0.3,0,1,0.3,1.3c1,0.6,2.2,0.3,3.5,0.6c1.6,0.3,2.9,0.3,4.5,0.6c2.2,0.3,3.5,2.9,5.8,2.6
		c2.2,0,4.2,1.3,6.1,2.6c1.9,1.3,4.2,1.6,6.1,2.2c1.6,0.3,3.2,0.6,5.1,0c1.3-0.3,2.2-1,3.5-1c1.9-0.3,3.8,0,5.4,1.6
		c1,1.3,1.9,2.2,3.2,3.2c2.2,2.2,5.1,3.2,8,2.9c4.5-0.3,9.3-1,13.4-2.9c3.5-1.6,6.7-1,9.9,0.6c1.6,0.6,2.9,1.9,4.5,2.9
		c2.6,1.3,5.1,1.6,7.7,0c0.3-0.3,1-0.6,1.3-1c1.6-1,3.2-1.3,4.8,0c0.3,0,0.3,0.3,0.6,0.3c1.9,1.3,3.8,1,5.8,0c1-0.3,1.6-1,2.6-1.6
		c1.6-1,2.9-1.6,4.2-2.6c3.5,0.6,7,0.3,10.2,1.9c1,0.3,1.9,0.3,2.9,0.3c2.6,0.3,5.4,1,7.7,2.2c2.2,1.6,5.1,1.9,7.7,1.9
		c1.9-0.3,3.2,0.6,4.5,1.9c1,1,1.9,2.2,2.9,3.2c2.2,2.2,4.8,3.5,8,2.6c3.2-1,6.7-1,10.2-0.6c0.3,0,1,0,1.3,0.3
		c4.2,1.3,8.3,0,12.1-1.6c2.2-1,4.5-1.9,7-2.6c2.2-0.6,4.2-1,6.4-0.6c1.9,0,3.8,0.3,5.8,0c5.4-1,10.9,0,16,0.3c1.3,0,2.2,0.6,3.5,1
		c1.6,0.3,2.6,1.6,2.2,3.2c0,0.3,0.3,0.3,0.3,0.6c1.3,0.3,2.9,0.6,4.2,1c1.6,0.3,2.9,0,4.2-1c1.3-1.3,2.9-1.9,4.8-1.6
		c2.2,0.3,4.2,0,6.4-1c4.8-1.6,9.3-2.9,14.1-4.1c1.9-0.6,3.8-1.3,5.8-1.9c1-0.3,1.9,0,2.9,0.6c0.6,0.3,1,1,1.6,1.3
		c1.3,1,2.6,1.3,4.2,1.3c1.9,0,3.8-0.3,5.8-1.3c5.8-2.2,11.8-3.2,17.9-3.2c1.3,0,2.6,0,3.5,0c3.8-0.6,7.7,0,11.5,1.9
		c2.6,1.3,5.1,1,8,1.3c1.6,0,2.2-1,2.2-2.2c0-1,1-1,1.6-1c2.2,0.3,4.5,1,5.8,2.9c0.3,0.3,0.6,0.6,1,1c1.3,1.3,2.9,1.9,4.5,2.2
		c2.6,0,4.8,0.3,7.4,0s4.8,0,7,1.6c1.6,1,3.2,1.3,4.8,0.6c1-0.3,1.9-0.6,2.9-1c2.2-0.6,4.2-1.3,6.4-0.6c2.9,0.6,5.4-0.3,8-1.3
		c1-0.3,1.6-1,2.6-1.3c3.2-1.3,6.4-2.6,9.9-2.6c3.5,0,6.7-1,9.9-2.6c5.1-2.6,10.9-3.2,16.3-2.9c1.3,0,2.2,0.6,3.5,1
		c1.3,0.3,2.6,1,3.5,1c2.6-0.3,4.2,0.3,6.1,1.9c0.3,0.3,1.3,0.6,1.9,0.6c2.9,0,5.8,0.3,8.6,0.6c1.3,0.3,2.9,0,4.5,0
		c2.9-0.3,5.8,0,8.6,0.6c2.6,0.6,5.1,1,8,0.6c1.6-0.3,3.5,0,5.1,0.3c2.6,0.6,4.8,0.6,7.4,0c5.1-1.6,10.5-1.3,16-1.3
		c2.2,0,4.2,0.6,6.4,1.3c4.8,1.3,9.6,1.9,14.4,0.3c3.8-1,7.7-1.9,11.5-2.6c2.2-0.6,4.5,0,6.1,1.6c1.3,1.3,2.9,2.2,4.5,2.6
		c1.3,0.3,2.2,1,3.5,1.6c2.6,1.6,5.4,2.2,8.3,2.9c2.6,0.6,5.1,1.3,8,1.6c1.9,0,3.8,0.3,5.8,1.3c2.6,1.3,5.1,1.6,8,1.6s5.8,0.3,8.9,0
		c3.5-0.3,6.7-0.3,9.9,1.9c1.3,1,2.9,1,4.2,1c1.9,0.3,3.8,1,5.4,2.2c1.9,1.3,3.8,2.2,5.8,3.2c1.9,1,3.8,1.9,6.1,2.2
		c2.6,0.3,4.8,1,7,2.2c2.6,1.3,5.1,1.9,7.7,2.2c4.5,0.6,8.6,1.3,13.1,1.6c6.1,0.3,12.1-1,18.2-2.2c4.5-1,8.6-3.2,12.8-5.1
		c0.6-0.3,1.3-0.6,1.9-1c2.6-1.6,4.8-1.6,7.4,0.6c1.9,1.6,4.2,2.6,6.7,3.2c2.2,0.6,4.8,1.3,7,1.9c1-1,1.6-1.6,2.9-2.6
		c3.2,0.3,6.1,0.6,9.3,0c1.3-0.3,2.9,0,4.5,0.3c1.6,0,3.5,0.6,5.1,0.3c3.8-0.6,7.7-0.6,11.5,0c1.3,0.3,2.6,0,3.5-0.3
		c2.9-1,5.8-1,8.6-0.3c0.6,0.3,1.6,0,2.2,0c1.3-0.3,2.2-1,2.9-1.9c0.3-1,0.6-1.9,1.3-2.9c0.6-1.3,1.3-1.9,2.6-2.2
		c1.3-0.3,1.9,0.3,2.6,1.9c0.3,0.6,0.6,1.3,1,2.2c0.6,1.3,2.2,1.9,3.8,1.6c4.2-1.6,8.3-3.2,12.5-4.8c0.3-0.3,1-0.3,1.3-0.6
		c1.3-0.3,2.6-0.3,3.5,0.3c1,0.3,1.6,1,2.6,1.6c0.6,0.3,1.6,0.3,2.2,0.3c3.5-0.3,7.4-0.6,10.9-1.3c1,0,1.9-0.3,2.9-1
		c1.3-0.6,2.9-1,4.2-0.3c0.6,0.3,1.6,0.3,2.2,0c2.6-1.3,5.1-1.3,8-1.3c1.3,0,2.6-0.3,3.5-1c1.6-1.6,3.5-1.3,5.4-1.3
		c5.8,1,11.5,1,17.6-0.3c2.9-0.6,5.8-0.3,8.6-0.6c2.2,0,4.5,0,6.7,0c3.2,0,6.4-0.6,9.3-1.9c2.5-1.3,4.8-1.9,7.7-1.9
		c1.9,0,3.8-0.6,5.8-0.6c2.9-0.3,5.1-1,7.3-2.6c1-1,2.6-1.3,3.8-1.9c1.6-0.6,3.2-1,4.8-1.6c2.9-1.3,5.8-1.6,8.6-0.6
		c0.3,0,1,0.3,1.3,0.3c2.6,0.6,4.8,0,7-1.3c0.6-0.3,1.3-0.6,1.9-1c1,0.3,1.9,0.6,2.9,0.6c1.6,0.3,3.5,0,5.1,0.3
		c1.9,0.3,3.8,0.3,5.8-0.3c3.5-1,6.7-0.6,9.9,1c1,0.6,1.9,0,2.6-1c0.3-0.6,0.6-1.3,1-1.9c0.6-1.3,1.3-2.2,2.9-2.2
		c1.9,0,3.8-0.6,5.4-1.3c1.3-0.6,2.9-0.3,4.1,0.3c1,0.6,1.9,1.3,3.2,1.9c1.6,1,3.2,0.6,4.8-0.3c0.6,0.3,1.6,0.3,2.2,0.6
		c4.8,2.9,10.2,4.5,15.7,6.1c1.3,0.3,2.9,1,4.2,1c4.2,0.3,8,1.6,12.2,2.6c1.6,0.3,2.9,0.6,4.2,0.3c0.3,0,0.6,0,0.6,0
		c2.2-1,4.2,1,6.4,0.6c2.2-0.3,4.2-1.3,6.4-1.6c1.6-0.3,3.5,0.3,5.1,0.6c1.3,0.3,2.9,1,4.2,1.6c1.6,0.6,1.9,0.6,3.2-1
		c1.3-1.6,2.6-2.2,4.5-1.9c3.2,0.3,6.1,1.6,8.9,3.5c1.3,1,2.9,0.6,4.2,0c2.6-1.3,5.4-2.2,8-3.5c1.9-0.6,3.8-1,5.8,0
		c2.6,1.3,5.1,1,8,0.6c7.7-1,5.4,0,11.8-3.2c1-0.3,1.9-0.6,2.9-1.3c1,1,1.9,1.6,2.9,2.2c1.6,1.3,3.5,1.9,5.4,1.3
		c1.6-0.3,3.2-1,4.8-1.3c1.9-0.6,3.8-0.6,5.8,0.3c2.2,1.3,4.8,1.3,7,0c1.9-1,4.2-1,6.4-1c5.1,0.3,10.2-0.3,15.3-0.6
		c1.3,0,2.9-0.6,4.2-1.3c3.5-1.6,7-3.5,10.5-5.4c1.6-1,3.2-1.9,5.4-2.6c1.9-0.3,2.9-1.6,3.8-3.2c1.6-3.8,4.8-4.8,8.3-4.8
		c1,0,1.9,0.3,2.9,0c2.6-0.6,4.8-1,7-1.9c1-0.3,1.9-1.3,2.9-2.2c1.3-1.6,3.2-2.2,5.1-2.9c4.8-1.6,9.6-1.3,14.4-0.3
		c2.2,0.3,4.2,1.3,6.1,2.6c2.2,1.6,4.8,1.9,7.7,1.6c1.3-0.3,2.9-0.3,4.5-0.3c0.6,0.6,0.9,1.3,1.3,1.9c1,1.6,2.2,2.6,4.2,3.2
		c4.8,1.6,9.9,2.9,14.7,4.5c2.6,0.6,4.8,0.6,7.3,0.3c1.9-0.6,3.8-0.3,5.8,0.6c1.3,0.6,2.9,1.3,4.2,1.3c2.9,0.3,5.8,1.3,8.3,2.9
		c2.6,1.6,5.4,1.9,8.3,1.6c0.6,0,1,0,1.6-0.3c4.8-0.6,4.8-0.6,9.9,2.2c1.6-0.3,3.2-0.6,4.8-0.6c1.6-0.3,2.9-0.6,4.2-1.6
		c1.6-1.3,3.5-1.9,5.4-1.9c1.6,0,2.9-0.3,4.5-0.6c4.5-1,8.6-0.6,13.1,0.3c2.9,0.6,5.8,1,8.6,0.3c1.6-0.3,3.5-0.6,5.1-0.6
		c1.9,0,3.8-0.3,5.8-1.3c1.9-1,3.8-1,5.8-1.3c3.5-0.3,6.7-0.3,9.9,1.3c1,0.6,2.6,0.3,3.5-0.3c1.6-1,3.2-2.2,5.1-3.2
		c1,1,2.2,1.3,3.5,0.6c1.6-0.6,2.9-0.6,4.2,0.3c1.6,1.3,3.2,1.3,4.8,0.6c1.9-0.6,3.8-1,5.4-1.9c3.8-1.9,7-0.6,9.9,2.2
		c0,0.3,0.3,0.3,0.6,0.6c1.9,1.6,4.5,1.9,6.7,0c1.9-1.6,3.5-1.6,5.4-0.6c1.9,1.3,3.8,1.9,6.4,1.6c1.6-0.3,3.5,0.3,5.1,1
		c2.9,1.3,5.8,1.6,8.6,0.6c1.6-0.6,3.2-0.3,4.8,0.6c1.9,1,3.8,1.3,5.4,2.6c2.6,1.6,5.4,2.2,8.3,2.9c2.6,0.6,4.8,0.6,7.3-0.3
		c4.5-1.9,8.9-1.9,13.7-1.3c1.9,0.3,3.8,0.3,5.8,0c2.6-0.3,4.8-0.3,7.3,0c1,0.3,1.9,0.6,2.9,0.3c4.2-0.3,8.3,1,12.2,2.2
		c2.9,1,5.8,1.6,8.6,1.6c2.6,0,5.4,0.3,8,0.3c1.6,0,3.5,0,5.1-0.6c1.9-1,4.2-1,6.4-0.6c4.2,0.6,8.3,0.6,12.5,0.6
		c4.2,0,8.3,1,12.5,1.3c0.6,0,1.6,0.3,1.9,1c2.9,2.6,6.4,2.2,9.6,1.3c2.6-1,5.1-1.3,8-0.3c3.5,1,7.3,0.6,10.9-0.3
		c2.9-0.6,5.8-1.6,8.3-2.6c1.9-0.6,3.8-1,5.8-1.6c3.5-0.6,6.4-0.6,9.6,1.6c2.9,1.9,6.4,2.6,9.9,1.9c3.8-0.6,7.4,0.3,10.9,0.3
		c2.2,0,4.8,1,7.3,0.3c1-0.3,2.2,0.3,3.5,1c1.6,0.6,3.2,1,5.1,0.6c2.2-0.6,4.5,0.6,6.4-1c1.6-1.3,3.5-1.6,5.4-1.3
		c2.2,0.3,4.5,0.3,6.4-0.6c2.9-1.3,5.4-3.2,6.4-6.7c0.6-1.9,2.2-2.2,3.2-0.6c0.6,1,1.3,2.2,2.2,2.9c1.3,1.6,3.5,2.2,5.4,1.3
		c0.6-0.3,1.3-0.6,1.9-1c1.9-1.6,3.8-1,5.4,0.6c1,0.6,1.6,1.6,2.6,2.9c0.6,0.6,1,1.6,1.6,2.6c1,1.3,2.9,1.3,3.8,0
		c1-1.6,1.6-2.9,2.6-4.5c0.3-0.6,1.6-0.6,1.9,0c0.3,0.3,0.6,1,0.6,1.3c1,1.6,1.9,3.2,2.9,4.8h0.6c1-1,1.9-1.9,1.9-3.2
		c0-2.2,1.3-3.8,3.2-4.5c1.3-0.6,2.5-1.3,4.2-1.6c2.2-0.6,4.8-1,7-1.6c1.3-0.3,2.2,0,2.9,1.6c0.6,1.6,1.6,2.9,2.9,4.1
		c1.3,1,2.6,1.3,4.2,1c0.6-0.3,1.3-0.6,1.9-1c1.6-0.6,3.2-1,5.1-0.3c1.9,0.6,3.2,0,3.8-2.2c0.3-1.3,1.3-1.3,2.2-1
		c1,0.6,2.2,1,3.2,1.6c2.6,1,5.1,1.3,7.7,0c2.2-1.3,4.8-1.3,7,0c1.3,0.6,2.9,0.6,4.2,0.3c0.6,0,1.3,0,1.6,0V263c-1,0-2.2,0-3.2-0.3
		c-2.2-0.3-4.2,0-6.4,1c-2.9,1.6-5.8,3.2-8.6,4.5c-2.9,1.3-6.1,1.3-9,2.9c-1,0.6-1.6,0-1.6-1.6c0-0.3,0-1,0-1.6
		c-0.3-0.3-1-0.6-1-0.6c-1.3,0.6-2.6,1.3-3.8,1.9c-1.3,0.6-2.9,0.6-4.2,0c-0.6-0.3-1.3-1-1.9-1.3c-1.3-1-2.6-1.3-4.2-1.3
		c-2.6,0.3-4.8,0.3-7.3,0.6c-3.2,0.3-6.4,0-9.3-1.9c-2.6-1.6-5.4-2.9-8.6-3.5c-2.9-0.3-5.4-1.6-8-3.5c-1-0.6-1.9-0.6-2.9,0
		c-3.2,2.9-7.7,3.2-10.9,6.1c-0.6,0.6-1.9,0.6-2.9,0.3c-6.7-2.2-13.4-1.9-20.5-1c-2.9,0.3-5.8,0.3-8.6-0.3c-6.1-1.9-12.1-1.9-18.2-1
		c-3.2,0.6-6.4,0.6-9.6,0c-4.5-1-8.6-1-13.1,0c-3.5,0.6-7.3,0.6-10.9,0.6c-5.8,0-11.2-1-16.6-1.6c-2.5-0.3-4.8-0.3-7.3,0.6
		c-3.8,1.3-7.3,2.6-11.2,4.1c-2.9,1.3-5.8,1.6-8.3,0c-1.9-1-3.8-0.6-5.8,0.3c-1.6,1-2.9,1.9-4.5,2.6c-3.8,2.2-8,3.5-12.5,3.2
		c-1.6,0-3.5,0-5.1-0.3c-5.8-1.3-11.5-1-17.6-0.3c-1.3,0-2.6,0-3.5-0.3c-1.3-0.3-2.9-1-4.2-1.3c-3.5-1.6-7.4-3.2-11.2-2.6
		c-5.4-1.3-11.2-1.9-16.3-3.8c-1.9-0.6-3.8-1-5.8,0c-1.9,1-4.2,1.3-6.4,1.3c-3.5,0-7,0-10.2,0c-3.5,0-6.7,0-9.9,1.9
		c-1.6,1-3.5,1-5.1,0c-2.6-1.3-5.4-2.2-8-3.8c-2.6-1.6-5.4-2.6-8.3-2.2c-1.9,0.3-3.8,0-5.8-0.6c-1-0.3-1.9-0.3-2.9-0.3
		c-2.9,0.3-5.4,0-8-1c-2.6-1-5.1-1.3-8-1.3c-3.5,0-6.7,0-10.2-0.3c-1.9,0-3.8-0.3-5.8-1.3c-2.6-1.6-5.4-1.9-8.6-2.2
		c-3.5-0.6-6.7-1-9.3-3.8c-0.3-0.6-1.3-1-1.9-1c-4.5-1-8.9-1.6-12.8,0.6c-3.5,1.9-7,1.9-10.5,2.6c-1.3,0.3-2.6,0-3.5-0.6
		c-0.3,0-0.3-0.3-0.6-0.3c-3.5-2.9-7.3-2.2-11.2-1c-1.3,0.3-2.2,1-3.5,1.3c-1.3,0.6-2.6,0.6-3.5,0c-4.5-2.6-9.6-1.9-14.4-2.9
		c-1.3-0.3-2.9,0-4.5,0.3c-2.2,0.3-4.5,0.6-6.4,1.3c-2.2,0.3-4.2,0.6-6.4,0.3c-1,0-1.9-0.3-2.9,0c-2.9,1.3-5.8,0.6-8.6,0.6
		c-8.6,0-16.9,0-25.6,0c-1.6,0-2.9,0-4.5,0.3c-4.5,1.3-8.6,0-13.1-1c-1.3-0.3-2.9-1-4.2-1.6c-2.9-0.6-5.8-0.6-8.6,0.6
		c-1.9,1-4.1,1.6-6.1,2.6c-3.5,1.9-7.7,2.2-11.5,1.6c-5.1-1-10.2-0.3-15.3-1.9c-1.3-0.3-2.6,0-3.5,0c-1.3,0-2.6,0.3-3.5,0
		c-4.5-1.3-8.9-1.6-13.8-2.2c-4.5-1-8.6-1.3-12.8,0.6c-1.9,1-3.8,0.6-5.8,0.3c-4.1-0.6-8.3-1.3-12.5-1.9c-1.3-0.3-2.9-0.3-4.5-0.3
		c-1.9,0-3.8,0.3-5.8,1.3c-1,0.6-1.6,1-2.6,1.3c-1.6,1-3.2,1-5.1,0.6c-1-0.3-1.9-0.6-2.9-0.6c-1.6-0.3-3.5-0.3-4.8,1
		c-4.2,2.6-8.3,5.1-11.5,8.9c-1,1-2.2,2.2-3.2,3.2c-0.6,0.3-1.3,1-1.9,1c-1.9,0.3-3.8,0.3-5.8,0.3c-0.6,0-1.3-0.3-2.2-0.6
		c-1-0.3-1.6-1-2.6-1.3c-2.2-1.3-4.5-1.6-7,0c-4.2,2.6-8.9,2.9-13.1,4.8c-0.6,0.3-1.6,0-2.2,0c-1.3-0.3-2.2-0.6-3.5-0.3
		s-2.2-0.3-3.2-1.3c-2.9-3.2-6.7-3.8-10.9-2.6c-3.5,1.3-7.4,1.6-10.9,2.2c-3.8,1-7.7,1.6-10.9,4.1c-0.6,0.6-1.9,0.6-2.9,1
		c-7,0.3-14.1,2.2-20.8,4.5c-1.3,0.3-2.6,1.3-3.8,2.2c-4.1,2.6-8.3,5.1-13.4,6.1c-3.2,0.6-6.4,2.2-9.6,3.8c-2.2,1-4.5,1.3-6.1,0
		c-2.9-2.2-6.4-2.2-9.3-4.5c-0.3-0.3-1.6-0.3-1.9,0c-1.9,1.3-3.8,1.6-6.1,1.6c-3.2,0-6.4,0.3-9.6,0c-2.9-0.3-5.8,0.3-8.6,1
		c-1.3,0.3-2.2,1-3.2,1.6c-2.5,1.9-5.4,3.5-7.3,6.1c-1.6,1.9-3.5,2.6-5.8,2.9c-1,0-1.9,0-2.9,0.3c-3.8,0.6-6.7-0.6-9.3-3.2
		c-1.3-1-1.9-2.2-1.6-3.8c0.6-1.9-0.3-3.2-1.9-4.5c-2.2-1.6-4.8-2.2-7.7-1.9c-4.5,0.3-9.3,0.6-13.8,0c-1.6-0.3-3.5,0-5.1,0.6
		c-3.8,1.6-7.7,1-11.5,1.9c-0.6,0.3-1.6,0-2.2,0c-4.2-1-8.3-1-12.5-1c-3.8,0-7.4-1.3-9.6-4.5c-1.3-1.6-2.9-2.6-4.8-3.2
		c-3.5-1-6.7-2.6-9.9-4.5c-1-0.6-2.2-1-3.5-1.3c-1.9-0.6-3.8-1-5.8-1.6c-1.9-0.6-3.8-1-5.8-0.6c-2.2,0.3-4.5,0.3-6.4-0.3
		c-2.6-0.3-4.8-0.6-7.4-1c-1.6-0.3-3.5-0.3-5.1,0.3c-3.2,1.3-6.1,1.3-9.3,0.6c-2.2-0.3-4.5-0.6-6.4,0.3c-2.6,1-4.8,1-7.4,0.3
		c-0.6,0-1.6-0.3-2.2-0.3c-2.6-0.6-4.8-0.6-7.4,0c-4.2,1.3-8.6,2.2-13.1,2.2c-1.3,0-2.2,0.6-3.5,1c-0.6,0-1.6,0-2.2-0.3
		c-1-0.3-1.6-1-2.6-1.6c-1.6-1-3.2-1.3-4.8-1.6c-1.3,0-2.9,0-4.5,0c-1.9,0-3.8,0.3-5.8,0c-6.1-1-11.8-0.6-17.3,1.3
		c-0.3,0-1,0.3-1.6,0.3c-1.6,0-2.9,0-4.5,0.3c-1.3,0.3-2.6,1.3-4.2,1.9c-1-0.6-1.6-1-2.6-1.6c-1.3-1-2.6-1.3-4.2-1.3
		c-1.6,0-3.5,0-5.1,0.3c-4.2,1-8.6,1.6-12.8,3.5c-3.5,1.9-7.4,2.2-11.5,1.9c-3.5-0.3-6.7-0.3-10.2,0.3c-0.6,0-1.6,0-2.2,0.3
		c-3.8,1.6-7.4,1.9-11.5,1.3c-1.6-0.3-3.2,0.3-5.1,1c-1.6,0.3-2.9,0.6-4.2,0c-2.6-1.3-5.1-0.6-7.7,0.6c-1,0.3-1.9,1-2.6,1.3
		c-3.2,1.6-6.4,1.9-9.9,0c-1.6-1-3.2-1.3-5.1-1c-2.2,0.3-3.8-0.3-5.1-2.2c-2.9-4.5-6.7-7.7-10.9-10.8c-4.5-3.5-9.6-6.1-15.3-6.7
		c-2.2-0.3-4.2-1-5.8-2.6c-1.3-1.3-2.9-1.9-4.5-2.2c-2.6-0.3-5.1-1-8-1.6c-2.9-0.6-5.4-1.9-7.7-4.1c-0.6-0.6-1-1-1.6-1.6
		c-1.3-1.6-2.9-2.6-4.8-3.2c-2.2-0.3-4.2-1.6-6.1-2.9c-2.6-1.6-5.4-3.2-8.3-4.8c-2.2-1.3-4.8-1.3-7,0c-2.9,1.6-5.8,1.6-8.6,1
		c-2.6-0.6-4.8-1-7.4-0.3c-2.6,0.6-4.8,0-7.4-0.6c-0.6-0.3-1.3-0.3-2.2-0.6c-2.6-1-5.1-1.6-8-1.3c-2.9,0.3-5.4,0-7.7-1.6
		c-2.9-1.9-6.4-2.6-9.9-2.9c-1.6,0-3.5-0.3-5.1-0.6c-7.7-1.3-15.7-1.3-23.3,1c-1.9,0.6-3.8,1-5.8,1.3c-1.6,0.3-3.2,1-4.8,1.6
		c-1.9,0.6-4.2,1.6-6.4,1.9c-1.6,0.6-3.5,0.6-5.1-0.3c-3.8-1.9-8-1.9-12.1-1.3c-4.8,1-9.9,0.6-14.7,0c-6.4-1-12.5-1.9-18.9-2.9
		c-1.9-0.3-3.8-0.3-5.8,0c-5.4,1-11.2,1.9-16.6,2.6c-4.5,0.3-9.3,0.6-13.7,1.6c-1.3,0.3-2.9,0-4.5,0s-2.9-0.3-4.5,0.3
		c-3.2,1-6.4,1-9.3,0c-1.3-0.3-2.6-0.3-3.5-0.6c-3.8-1-7.4-0.6-10.5,1.3c-3.2,1.9-6.4,1.9-9.9,1c-1.3-0.3-2.2-0.6-3.5-1
		c-1.6-0.3-2.9-0.3-4.2,0c-0.6,0.3-1.6,0.6-2.2,0.3c-2.9-1-5.1,0.3-7.4,2.2c-0.6,0.3-1.3,1-1.6,1.3c-2.9,2.6-6.4,3.8-10.2,3.8
		c-2.9,0-5.8,0.6-8.6-0.3c-0.6-0.3-1.6-0.3-2.2-0.3c-4.2,1-7.7-1.3-10.9-3.2c-2.2-1.3-4.5-2.2-6.7-2.6c-2.9-0.6-5.8-1.3-8.6-1.9
		c-3.5-1-7.4-1-10.9-0.3c-1.6,0.3-2.9,0.6-4.5,0.6c-4.2,0-8.3,0.3-12.1,2.6c-1,0.3-1.9,0.6-2.9,0.6c-6.7,0.6-13.1,1.6-19.5,3.2
		c-4.2,1-8.3,0.6-12.1-1c-0.6-0.3-1.3-0.6-1.9-1c-1.3-0.6-2.9-0.6-4.2,0c-5.1,2.2-10.5,1.6-16,2.6c-0.6,0-1,0-1.6,0
		c-6.1-1.3-12.1-0.6-18.2-0.6c-4.8,0-9.3-0.3-13.4-3.2c-1-0.6-2.2-1-3.5-1.3c-1.6-0.6-3.2-1-4.8-1.6c-4.2-1.9-8.6-1.9-12.8-1
		c-2.6,0.3-4.8,1-7,1.6c-1.9,0.6-3.8,0.6-5.8,0c-1.9-0.3-3.8-1-5.8-1c-5.8,0-11.2-1.6-16.6-2.9c-1.3-0.3-2.6-0.6-3.5-1.3
		c-3.8-1.9-7.7-2.9-11.8-3.5c-5.4-0.6-10.5-1.6-15.7-3.5c-2.2-0.6-4.8-1-7.4-1c-2.9,0-5.8-0.3-8.6-1c-1.3-0.3-2.9-0.6-4.5-0.6
		c-3.8,0-7.4-0.6-10.9-1.9c-3.2-1.3-6.7-1.3-10.2-0.6c-1,0-1.9,0.3-2.9,0.6c-0.6,0-1.6-0.6-1.6-1.3c0-1,0-1.6,0-2.6h-4.2
		c0,0.3-0.3,1-0.6,1.3c-0.3,0.3-1,0.3-1.3,0c-2.9-2.9-6.7-2.9-9.9-4.8c-0.6-0.3-1.6-0.3-2.2-0.3c-2.6,0.3-4.8,0-7.4,1
		c-0.3,0.3-0.6,0.6-1,1c-1.3,1.3-2.6,1.6-4.2,0.6c-2.9-1.6-5.4-1.9-8.6-1.3c-1,0.3-2.6,0-3.5-0.3c-1.6-0.3-2.9-0.6-4.2-1.3
		c-4.5-1.9-8.9-2.6-13.7-1.6c-0.6,0-1.6-0.6-1.6-1.3c0-0.3,0-0.6,0-0.6c0.6-3.5-1.6-5.7-3.8-7.7c-0.6-0.6-1.9-1-2.6-1
		c-2.6,0-4.8-0.6-7-1.9c-1-0.6-1.9,0-2.6,0.3c-1.9,1.3-1.9,1.3-3.2-0.6c-1-1.3-2.2-1.9-3.8-1.9c-1,0-1.9,0-2.9,0.3
		c-2.9,0.6-5.4,0.3-8-1C9.6,193.4,4.8,192.8,0,192.2z" fill="#ffffff"/>
	</g>
</svg>
