<svg fill="none" height="181" viewBox="0 0 268 181" width="268" xmlns="http://www.w3.org/2000/svg"><path d="m0 41 134-41 134 41v96l-134 43.5-134-43.5z" fill="#eee"/><path clip-rule="evenodd" d="m117.86 129.7 2.308-.788v7.088h-2.308zm1.539-56.7c.12.092 4.993 25.808 4.583 41.743-.248 9.634-3.814 14.169-3.814 14.169l-2.308.788c-2.689-5.088-4.014-10.786-3.846-16.538.452-16.678 5.385-40.162 5.385-40.162z" fill="#003da6" fill-rule="evenodd"/><path clip-rule="evenodd" d="m224.018 122 3-1v9h-3zm2-72c.156.117 6.491 32.773 5.958 53.008-.322 12.233-4.958 17.992-4.958 17.992l-3 1c-3.489-6.437-5.214-13.682-5-21 .588-21.18 7-51 7-51z" fill="#003da6" fill-rule="evenodd"/><path clip-rule="evenodd" d="m133.03 127.893 3.016-1.01v9.117h-3.016zm2.01-72.893c.157.119 6.511 33.182 5.977 53.67-.324 12.386-4.974 18.217-4.974 18.217l-3.009 1.013c-3.503-6.527-5.232-13.859-5.016-21.263.59-21.444 7.022-51.637 7.022-51.637z" fill="#003da6" fill-rule="evenodd"/><path clip-rule="evenodd" d="m5 133s41.245-.862 74 0c22.088.581 40 3 40 3s28.679-7.383 61-12c37.318-5.331 79-8 79-8s-42.557 5.893-76 12c-21.131 3.859-39 9-39 9l17 2c15.129-3.965 30.493-6.971 46-9 17.598-1.973 35.292-2.975 53-3 0 0-28.268 2.971-51 7-9.478 1.71-18.832 4.048-28 7l45 7-18 6c-29.04-6.355-58.422-11.03-88-14-51.888-5.163-115-7-115-7zm28 13s39.289 2.359 73 7c35.254 4.854 69 12 69 12l-15 5s-25.592-7.223-53-12c-27.091-4.722-62-8-62-8z" fill="#003da6" fill-rule="evenodd"/><circle cx="47.5" cy="135.5" fill="#eee" r="6.5"/><circle cx="86.5" cy="135.5" fill="#eee" r="6.5"/><path d="m33 98h43v36h-43z" fill="#eee"/><g fill="#003da6"><path d="m47.332 128.083c-3.8605 0-7 3.14-7 7 0 3.861 3.1395 7 7 7 3.8606 0 7-3.139 7-7 0-3.86-3.1396-7-7-7zm0 11.667c-2.5737 0-4.6666-2.093-4.6666-4.667 0-2.573 2.093-4.666 4.6666-4.666s4.6667 2.093 4.6667 4.666c0 2.574-2.0931 4.667-4.6667 4.667z"/><path d="m87 128.083c-3.8605 0-7 3.14-7 7 0 3.861 3.1395 7 7 7s7-3.139 7-7c0-3.86-3.1395-7-7-7zm0 11.667c-2.5737 0-4.6666-2.093-4.6666-4.667 0-2.573 2.093-4.666 4.6666-4.666 2.5737 0 4.6666 2.093 4.6666 4.666 0 2.574-2.0929 4.667-4.6666 4.667z"/><path d="m100.813 121.619-10.4999-16.333c-.2146-.334-.5845-.536-.9812-.536h-12.8332c-.6452 0-1.1667.523-1.1667 1.167v29.166c0 .645.5215 1.167 1.1667 1.167h4.6666v-2.334h-3.5v-26.833h11.0296l9.9704 15.51v11.324h-5.8334v2.333h7c.6451 0 1.1671-.521 1.1671-1.167v-12.833c0-.223-.064-.443-.186-.631z"/><path d="m82.3332 119.917v-8.167h9.3334v-2.333h-10.5c-.6452 0-1.1666.522-1.1666 1.166v10.5c0 .646.5214 1.167 1.1666 1.167h17.5v-2.333z"/><path d="m76.5 96.5835h-44.3334c-.6439 0-1.1666.5227-1.1666 1.1666v37.3329c0 .646.5227 1.167 1.1666 1.167h9.3334v-2.333h-8.1666v-35.0003h42v35.0003h-22.1668v2.333h23.3334c.6452 0 1.1666-.521 1.1666-1.167v-37.3329c0-.6439-.5214-1.1666-1.1666-1.1666z"/><path d="m39.166 129.25h-7v2.333h7z"/><path d="m75.3334 129.25h-19.8334v2.333h19.8334z"/><path d="m99.8346 129.25h-4.6666v2.333h4.6666z"/><path d="m76.4994 101.25h-40.8334v2.333h40.8334z"/><path d="m48.4994 133.917h-2.3334v2.333h2.3334z"/><path d="m88.1674 133.917h-2.3334v2.333h2.3334z"/><path d="m51.9994 91.9167h-16.3334v2.3334h16.3334z"/><path d="m33.3334 91.9167h-2.3334v2.3334h2.3334z"/></g><circle cx="161.5" cy="135.5" fill="#eee" r="6.5"/><circle cx="200.5" cy="135.5" fill="#eee" r="6.5"/><path d="m147 98h43v36h-43z" fill="#eee"/><path d="m191 106h12.5l10.5 16v13h-23z" fill="#eee"/><path d="m161.332 128.083c-3.86 0-7 3.14-7 7 0 3.861 3.14 7 7 7 3.861 0 7-3.139 7-7 0-3.86-3.14-7-7-7zm0 11.667c-2.574 0-4.667-2.093-4.667-4.667 0-2.573 2.093-4.666 4.667-4.666s4.667 2.093 4.667 4.666c0 2.574-2.093 4.667-4.667 4.667z" fill="#003da6"/><path d="m201 128.083c-3.861 0-7 3.14-7 7 0 3.861 3.139 7 7 7s7-3.139 7-7c0-3.86-3.139-7-7-7zm0 11.667c-2.574 0-4.667-2.093-4.667-4.667 0-2.573 2.093-4.666 4.667-4.666s4.667 2.093 4.667 4.666c0 2.574-2.093 4.667-4.667 4.667z" fill="#003da6"/><path d="m214.813 121.619-10.5-16.333c-.215-.334-.584-.536-.981-.536h-12.833c-.646 0-1.167.523-1.167 1.167v29.166c0 .645.521 1.167 1.167 1.167h4.666v-2.334h-3.5v-26.833h11.03l9.97 15.51v11.324h-5.833v2.333h7c.645 0 1.167-.521 1.167-1.167v-12.833c0-.223-.064-.443-.186-.631z" fill="#003da6"/><path d="m196.333 119.917v-8.167h9.334v-2.333h-10.5c-.646 0-1.167.522-1.167 1.166v10.5c0 .646.521 1.167 1.167 1.167h17.5v-2.333z" fill="#003da6"/><path d="m190.5 96.5835h-44.333c-.644 0-1.167.5227-1.167 1.1666v37.3329c0 .646.523 1.167 1.167 1.167h9.333v-2.333h-8.167v-35.0003h42v35.0003h-22.166v2.333h23.333c.645 0 1.167-.521 1.167-1.167v-37.3329c0-.6439-.522-1.1666-1.167-1.1666z" fill="#003da6"/><path d="m153.166 129.25h-7v2.333h7z" fill="#003da6"/><path d="m189.333 129.25h-19.833v2.333h19.833z" fill="#003da6"/><path d="m213.835 129.25h-4.667v2.333h4.667z" fill="#003da6"/><path d="m190.499 101.25h-40.833v2.333h40.833z" fill="#003da6"/><path d="m162.499 133.917h-2.333v2.333h2.333z" fill="#003da6"/><path d="m202.167 133.917h-2.333v2.333h2.333z" fill="#003da6"/><path d="m165.999 91.9167h-16.333v2.3334h16.333z" fill="#003da6"/><path d="m147.333 91.9167h-2.333v2.3334h2.333z" fill="#003da6"/></svg>