<svg fill="none" height="181" viewBox="0 0 268 181" width="268" xmlns="http://www.w3.org/2000/svg" xmlns:xlink="http://www.w3.org/1999/xlink"><clipPath id="a"><path d="m65 26h122v155h-122z"/></clipPath><path d="m0 41 134-41 134 41v96l-134 43.5-134-43.5z" fill="#eee"/><path clip-rule="evenodd" d="m5 133s41.245-.862 74 0c22.088.581 40 3 40 3s28.679-7.383 61-12c37.318-5.331 79-8 79-8s-42.557 5.893-76 12c-21.131 3.859-39 9-39 9l17 2c15.129-3.965 30.493-6.971 46-9 17.598-1.973 35.292-2.975 53-3 0 0-28.268 2.971-51 7-9.478 1.71-18.832 4.048-28 7l45 7-18 6c-29.04-6.355-58.422-11.03-88-14-51.888-5.163-115-7-115-7zm28 13s39.289 2.359 73 7c35.254 4.854 69 12 69 12l-15 5s-25.592-7.223-53-12c-27.091-4.722-62-8-62-8z" fill="#003da6" fill-rule="evenodd"/><g clip-path="url(#a)"><path d="m104.5 126-19.5 4-2.5 9-4 8.5c1.1667 3 3.6 9.7 4 12.5.5 3.5 13.5 6 15.5 6s34 6.5 40.5 7 29.5-5 34-7 9.5-8 10.5-9.5c.8-1.2 1-7.167 1-10l-4-19-1.5-7-24.5 3.5c-7.667 1-20.8 8-22 8s-12.5-1.333-18-2z" fill="#eee"/><path clip-rule="evenodd" d="m98.9092 169.6c-.69-.164-15.24-1.754-18.15-11.087s-3.31-13.671-.98-18.91 4.1699-8.841 4.1699-8.841l1.7201-6.14c-.08.348-9.02-9.9-13.78-17.917-4.64-7.8161-6.55-12.9811-6.58-14.0091-.02-1-.69-2.866 0-2.947s19.3799-9.578 19.3799-9.578c.7576.5416 1.42 1.2053 1.9601 1.964.86 1.228 9.5599 15.472 9.5599 15.472s2.83-1.51 6.6199-3.192c4.7-2.082 10.55-4.421 10.55-4.421 1.078 3.1042 1.819 6.3154 2.21 9.578.15 2.2141 1.22 8.6001 1.22 8.6001s12.06 2.39 18.64 2.456c8.21.081 16.92-2.948 16.92-2.948l-.25-14.4891-.49-3.93 17.41 5.894s6.01 2.456 8.59 10.3151c2.58 7.859 4.9 19.156 4.9 19.156s1.92 11.379 2.94 14.244 2.27 10.987.98 15.535c-1.83 6.463-4.83 11.3-11.45 13.6-2.719.855-5.389 1.857-8 3l-32 10s-35.3998-11.244-36.0898-11.405zm18.1498-77.6411s1.16 6.253 4.17 8.3501c3.01 2.097 4.41 3.192 4.41 3.192.217-.016.425-.093.598-.224.174-.13.307-.308.382-.512.39-.769 4.17-5.1581 4.17-5.1581.967.2007 1.954.2833 2.94.246 1.15-.0213 2.299-.1034 3.44-.246l4.41 5.6491c.61.014 1.21-.157 1.72-.491.64-.523 4.75-3.7341 5.39-5.1581.814-1.5174 1.552-3.0747 2.21-4.666.104-.5682.104-1.1507 0-1.719l-1.23-.246c-.715 1.8981-1.894 3.5868-3.43 4.912-1.245 1.0618-2.554 2.046-3.92 2.947l-1.23-2.456s7.13-.967 9.56-10.069-.98-13.507-.98-13.507-.38-.722 0-.737.56.163 1.23-1.228 1.96-4.175 1.96-4.175 1.73-4.209 0-5.4c-.591-.3389-1.252-.5372-1.931-.5797-.68-.0425-1.361.072-1.989.3347l.24-1.228c2.176.473 4.394.7197 6.62.736 2.05-.211 8.21-2.1 7.11-8.35s-3.22-16.979-18.39-23.822-25.01 3.439-25.01 3.439l-.25 1.473s-8.81 1.587-9.07 7.122 1.24 9.5 2.7 11.3c1.17 1.2615 2.59 2.2652 4.17 2.947l.24 2.211.74.736v3.439s-4.74-1.346-4.42 2.21c.395 2.656 1.226 5.2284 2.46 7.613.366.4478.775.8591 1.22 1.228.32.167.17.57 0 .983s-2.53 4.45-2.2 7.367 1.54 10.443 5.39 13.016c2.217 1.504 4.603 2.7405 7.11 3.684l-2.21 3.1931c-1.867-.7706-3.54-1.9447-4.9-3.4381-1.026-1.2183-1.931-2.5346-2.7-3.93zm-31.6398 67.7821c-1.4903-1.797-2.605-3.875-3.2783-6.111s-.8916-4.584-.6418-6.905c.81-7.984 2.4701-10.273 3.4301-12.034s3.9299-5.894 3.9299-5.894l-1.4799.491.25-3.684c1.1048-1.344 2.3373-2.577 3.68-3.683 1.2995-.896 2.6989-1.638 4.1699-2.211-.3955 1.361-.6436 2.761-.74 4.175.11 1.064-.66 4.033-.24 4.666.651.672 1.3912 1.25 2.2 1.72l-.24.736s-4.7099 3.788-5.3999 5.158c-.6389 1.249-1.1322 2.567-1.4701 3.929-.08.634.74.246.74.246 1.0392-1.978 2.5549-3.666 4.41-4.912 1.3175-.866 2.7138-1.606 4.1701-2.21l.98.982s-8.3201 5.69-10.0501 11.788c-1.0229 3.341-1.5188 6.821-1.47 10.315l.49 4.175s-2.6199-3.335-2.9499-5.649-.49-6.139-.49-6.139-1.7601 4.4-1.4701 6.139c.3764 1.668.8677 3.308 1.4701 4.909zm16.9198-22.594s-7.8299 6.734-8.0899 16.209 6.1499 10.97 10.7899 10.806 15.53-4.5 17.41-5.4 8.42-3.519 9.32-7.859.51-4.624-.49-5.894-5.15-5.4-5.15-5.4l-3.19-1.965c.152.207.26.443.317.693.058.25.064.51.018.762-.046.253-.143.493-.284.707-.142.214-.326.397-.541.538-1.61 1.063-6.13 4.175-6.13 4.175s-2.31.287-2.45-1.474.32-1.616 0-2.456c-.277-.588-.701-1.095-1.23-1.473 0 0-2.99 1.331-4.9.982-.519-.062-1.014-.251-1.441-.551-.428-.3-.774-.701-1.009-1.168l-1.72-.737zm-6.1299-11.051s1.8001-6.344 4.4199-8.35c2.62-2.006 3.57-2.537 4.17-2.456s5.41-2.107 8.33-.737c3.559 1.737 7 3.706 10.3 5.894 1.84 1.539 3.908 2.782 6.13 3.684 2.13.7 20.36 8.1 20.36 8.1l11.77 4.175s11.48 2.007 11.77 10.069-1.58 14.409-5.4 15.964-11.57.533-14.95-2.211-12.76-13.507-12.76-13.507-9.72-10.349-13.24-11.788c-3.735-1.25-7.6-2.074-11.52-2.456-.786.202-1.533.534-2.21.982 0 0-2.67 4.632-4.17 3.684-.287-.133-.539-.33-.738-.575-.2-.245-.34-.533-.412-.841-.071-.308-.071-.628 0-.936s.211-.595.41-.841c.65-1.132 2.46-3.929 2.46-3.929l.98-2.21c-1.49 1.199-2.884 2.513-4.17 3.929-.52.894-2 3.343-3.19 2.21s.15-3.1.98-4.42 2.94-4.421 2.94-4.421l-.24-.491s-3.59 2.606-3.68 3.193-2.36 4.755-3.19 2.456-.89-3.595.49-5.4 3.68-5.4 3.68-5.4l-.49-.491c-.495.035-.976.187-1.401.443-.426.256-.785.609-1.049 1.03-1.26 1.569-3.1898 3.929-3.1898 3.929s-1.9301 4.019-2.4501 3.193c-.2986-.465-.5467-.96-.74-1.478zm1.4701-26.2781 10.7898-4.421.98 16.2091-2.45.737zm-7.8401-7.122-5.89-10.315-15.2 7.613s7.1801 15.0171 10.0501 18.6651 9.0699 11.051 9.0699 11.051 4.1801-2.849 5.6501-3.192 8.5798-5.649 8.5798-5.649l-2.2098-3.193-16.9201.983s-7.65-11.2611-7.6-12.5251 16.6701.982 16.6701.982l-.24-1.473s-15.5601-2.113-16.1901-2.211c-.2021-.0777-.3781-.2113-.5073-.3852-.1292-.1738-.2064-.3808-.2226-.5968zm-6.87-7.368c1.63 0 2.9401 1.125 2.9401 2.21s-1.3101 1.965-2.9401 1.965-2.9399-.88-2.9399-1.965 1.3199-2.213 2.9399-2.213zm68.1699 44.7001c-.265-.619-.349-1.301-.24-1.965.228-.971.391-1.955.49-2.947-.04-.314-.25-1.473-.25-1.473s2.18.682 2.46 1.228c.336.408.538.909.581 1.436s-.076 1.054-.341 1.511c-.83 1.528-.82 2.647-1.47 2.7-.457-.008-.895-.184-1.23-.496zm5.15.737c.567-1.751 1.221-3.473 1.96-5.158.374-.242.792-.409 1.23-.491.58-.129 7.6-1.473 7.6-1.473.051.408.051.82 0 1.228-.09.238-3.82.989-4.9 1.228s-3.43 2.21-3.43 2.21zm3.68 3.438s-1.07-1.344-.49-2.21 1.63-3.432 2.7-3.93c1.044-.647 2.213-1.065 3.43-1.228 1.56-.129 4.91-.736 4.91-.736l-.49 1.719s-3.77.5-4.91 1.228c-1.292.986-2.521 2.052-3.68 3.192zm5.89 1.228-.98-.737s-.52-2.019-.25-2.456.83-1.9 1.72-2.21c.862-.315 1.772-.481 2.69-.491.742-.021 1.482-.103 2.21-.246.08.159.124.333.13.511.006.177-.027.354-.097.518-.069.163-.173.31-.305.429s-.288.208-.458.261c-1.33.73-2.61 1.174-2.95 1.474s-.76 1.05-.98 1.228c-.304.543-.549 1.117-.73 1.713zm-5.89-12.034v-.234c-.04-2.037-.34-16.779-.49-19.413-.16-2.831-.49-9.3321-.49-9.3321s11.01 1.419 13.73 8.8411c1.748 4.887 3.142 9.894 4.17 14.981l1.72 13.507-3.43-.491s4.83 8.966 5.39 12.771c.486 2.687.404 5.446-.24 8.1-.48 1.717-1.43 4.853-2.21 4.912-.426.051-.857-.035-1.23-.246 0 0 1.16-10.373 0-12.77-.928-2.083-2.078-4.059-3.43-5.895-.534-.462-1.11-.873-1.72-1.228-.137-.266-.208-.561-.208-.86s.071-.593.208-.859c.433-.858.762-1.764.98-2.7v-.981l-.49-.246.98-3.438h-1.47l.25-2.947-3.19-.246v-2.456h-3.92s.22-7.507-.98-10.56-.99-1.719-.99-1.719-.69 9.377-.98 11.542-.01 1.949-.73 1.965zm-43.89-73.6781s-4.98-3.409-3.68-8.1 2.62-5.558 4.9-5.648c2.156.0949 4.295.4242 6.38.982 0 0-2.47-1.874-1.72-3.193s6.43-5.742 13.98-4.666 10.04 2.915 12.02 4.666 5.5 7.09 5.64 7.859.47 4.634-1.48 3.93-7.6-6.386-7.6-6.386v3.684c-.175.4109-.499.7403-.907.9224s-.87.2034-1.293.0596c-1.77-.336-14.47-2.947-14.47-2.947l-2.95-.491c.904.9097 1.892 1.7321 2.95 2.456 1.05.585 1.71.982 1.71.982-2.827.5689-5.697.8978-8.58.983-3.6-.029-6.13 0-6.13 0s1.58 1.38 1.72 2.456c.02.842-.147 1.6778-.49 2.447zm4.16 4.911v-4.175s3.3-3.47 10.3-3.683c3.524-.1233 7.053.0409 10.55.491.2-.091 4.66 1.228 4.66 1.228v1.228s-4.61-.831-5.15-.983 5.15 3.438 5.15 3.438l-.25 1.72c-4.19-.8904-8.467-1.3024-12.75-1.228-8.14-.034-12.51 1.96-12.51 1.96zm1.72 16.946s-1.97-1.383-2.21-4.912-.24-6.385-.24-6.385-.32-6.6 12.51-5.4 15.2 4.175 15.2 4.175.54 7.581.49 8.35c-.23 1.1253-.646 2.2043-1.23 3.193-.272.4762-.516.9681-.73 1.4731l-.74 3.9299s.97.274-.49.245-3.99-.585-4.41-1.228c-.51-.8226-.843-1.7419-.98-2.7-.11-.951-.44-3.409-.49-3.93.008-.9476.26-1.8774.73-2.7.707-.2757 1.453-.4412 2.21-.491.87-.152 3.92-.246 3.92-.246.044-.544-.103-1.0864-.415-1.5343-.312-.448-.769-.7737-1.295-.9217-1.95-.705-2.41-1.076-2.46-1.228s-.19-.707 0-.737c.485-.1285.995-.1285 1.48 0 .62.217 2.94 1.474 2.94 1.474s-1.55-3.409-3.93-3.684-5.16 1.135-5.39 3.438-.25 5.9-.25 5.9l.74 3.683s.11 2.3-1.72 2.211-4.3-.953-4.41-1.719c-.094-.2859-.121-.5897-.08-.8879.042-.2981.151-.5828.32-.8321.293-.5522.54-1.127.74-1.719 0 0-2.53 2.363-2.45 3.439s0 2.455 0 2.455-3.39 2.24-4.42 1.965c-.913-.2788-1.812-.6066-2.69-.982l.49 2.456.49 1.228s-3.33-2.734-3.44-4.421c-.063-1.1451-.063-2.2928 0-3.438.697.3071 1.449.4694 2.21.477zm8.34 7.613c.633-.7465 1.494-1.2641 2.45-1.473.905.0081 1.808.09 2.7.245.833.2857 1.651.6138 2.45.983-1.035.6287-2.219.9678-3.43.982-1.069.0252-2.137-.0572-3.19-.246-.338-.1417-.665-.3071-.98-.495zm-4.91.246s1.16 5.7391 3.68 5.4c2.52-.339 2.95-1.474 2.95-1.474l4.41.246c.136.4525.443.8341.855 1.0635.413.2294.899.2885 1.355.1645.752-.1461 1.448-.4995 2.01-1.0202s.967-1.188 1.17-1.9268c.138-.894.222-1.7957.25-2.7 0 0-4.66 2.722-8.09 2.7-4.96-.03-7.11-2.7-7.11-2.7zm-2.69-18.419s2.07-2.872 4.66-2.7 5.32 3.33 4.9 4.666c-.291.8728-.706 1.6998-1.23 2.456 0 0-3.07-.477-4.41-.491-.904-.0198-1.807-.102-2.7-.246.026-.4353.179-.8535.44-1.2026.262-.3492.62-.6139 1.03-.7614 1.085-.4571 2.27-.6262 3.44-.491l.24-1.72c-.444-.2483-.936-.3987-1.443-.441-.507-.0422-1.018.0246-1.497.196-1.58.6-3.43 1.473-3.43 1.473v-.736zm-36.0498 50.3451 13.9798-.736s-4.7898 2.8-7.6098 2.7-5.51-.617-6.37-1.968z" fill="#003da6" fill-rule="evenodd"/></g><g fill="#003da6"><path d="m237.676 76.0061c-.75-1.0015-1.604-1.9102-2.529-2.7278 1.043-1.1543 1.634-2.6469 1.634-4.2314 0-3.4898-2.838-6.3281-6.328-6.3281h-1.544c-3.158 0-6.038-1.734-7.515-4.5251-3.207-6.0564-9.456-9.8187-16.308-9.8187-5.777 0-11.295 2.7599-14.762 7.3811-1.599 2.1313-2.48 4.774-2.48 7.4394v1.2107c0 6.0481 4.92 10.9688 10.968 10.9688h9.836c-.771.9416-1.458 1.9659-2.042 3.0687-1.477 2.7911-4.357 4.5251-7.515 4.5251h-1.544c-3.49 0-6.328 2.8383-6.328 6.3281 0 3.4897 2.838 6.3281 6.328 6.3281h31.641c6.048 0 10.968-4.9207 10.968-10.9688v-1.2107c0-2.6654-.881-5.3081-2.48-7.4394zm-48.145-11.5999v-1.2107c0-2.3026.76-4.5858 2.143-6.4277 3.148-4.1985 8.163-6.7053 13.412-6.7053 6.226 0 11.903 3.418 14.817 8.9201 1.77 3.3455 5.222 5.4236 9.006 5.4236h1.544c2.558 0 4.641 2.0824 4.641 4.6407 0 1.1922-.454 2.3144-1.257 3.1691-.468-.3426-.954-.6581-1.451-.9551.62-.5417 1.02-1.3281 1.02-2.214 0-1.6285-1.324-2.9531-2.953-2.9531h-1.853c-4.528 0-8.658-2.4866-10.776-6.4885-2.567-4.8456-7.566-7.8553-13.048-7.8553-4.588 0-8.836 2.0773-11.653 5.6987-1.228 1.5795-1.904 3.5505-1.904 5.5519v1.4056c0 4.1876 3.406 7.5938 7.593 7.5938h13.459c-.722.5096-1.405 1.0758-2.049 1.6875h-11.41c-5.117 0-9.281-4.1639-9.281-9.2813zm25.681 5.9063h-5.477c-.071-.988-.253-1.955-.564-2.878l.438-.1646c3.532-1.3238 7.232-2.0005 10.998-2.0174 2.296 1.6183 5.071 2.5287 7.993 2.5287h1.853c.698 0 1.266.5679 1.266 1.2657 0 .6615-.512 1.2006-1.16 1.2546-2.378-1.0842-4.982-1.6765-7.645-1.6765-2.713 0-5.328.5982-7.702 1.6875zm-22.306-5.9063v-1.4056c0-1.6276.55-3.2316 1.549-4.5158 2.495-3.2071 6.258-5.0473 10.321-5.0473 2.315 0 4.53.6126 6.464 1.712l-1.896 2.5287c-1.576 2.0992-4.083 3.353-6.708 3.353-2.691 0-5.222 1.048-7.123 2.9506l-2.297 2.2967c-.198-.5889-.31-1.2175-.31-1.8723zm15.6 1.4749c-.699-1.3753-1.664-2.6181-2.877-3.6391 1.996-.626 3.788-1.8503 5.064-3.553l1.959-2.6106c1.499 1.1324 2.765 2.5895 3.68 4.3158.641 1.2091 1.445 2.2925 2.374 3.2383-3.313.2017-6.564.8868-9.689 2.0579zm-11.8-.7062c1.583-1.5837 3.689-2.4561 5.93-2.4561.292 0 .582-.0262.87-.0515l1.002.8344c2.06 1.7171 3.315 4.1648 3.539 6.8108h-9.235c-1.969 0-3.711-.9728-4.785-2.4587zm41.763 19.4813c0 5.1174-4.164 9.2813-9.281 9.2813h-31.641c-2.558 0-4.641-2.0824-4.641-4.6406 0-2.5583 2.083-4.6407 4.641-4.6407h1.544c3.784 0 7.236-2.0781 9.007-5.4236 2.913-5.5021 8.591-8.9201 14.816-8.9201 5.249 0 10.263 2.5068 13.412 6.7053 1.383 1.8427 2.143 4.1251 2.143 6.4277z"/><path d="m223.224 72c-5.482 0-10.481 3.0097-13.047 7.8553-2.119 4.0019-6.249 6.4885-10.777 6.4885h-1.853c-1.629 0-2.953 1.3246-2.953 2.9531 0 1.6284 1.324 2.9531 2.953 2.9531h31.641c4.187 0 7.593-3.4062 7.593-7.5938v-1.4056c0-2.0014-.676-3.9724-1.905-5.5519-2.817-3.6214-7.064-5.6987-11.652-5.6987zm-11.556 8.6442c.914-1.7263 2.181-3.1834 3.68-4.3158l1.959 2.6106c1.276 1.7027 3.068 2.927 5.065 3.553-1.214 1.021-2.179 2.2638-2.877 3.6391l-.512-.1915c-3.124-1.1711-6.375-1.8563-9.688-2.0579.928-.945 1.733-2.0284 2.373-3.2375zm-15.387 8.6527c0-.6978.568-1.2657 1.266-1.2657h1.853c2.922 0 5.697-.9104 7.993-2.5278 3.766.0169 7.466.6935 10.997 2.0174l.439.1645c-.311.9222-.493 1.8892-.564 2.8772h-20.718c-.698 0-1.266-.5678-1.266-1.2656zm32.907 1.2656h-9.235c.223-2.646 1.478-5.0937 3.539-6.8107l1.001-.8345c.289.0253.579.0515.871.0515 2.241 0 4.347.8724 5.93 2.4561l2.679 2.6789c-1.074 1.4859-2.816 2.4587-4.785 2.4587zm5.906-5.9063c0 .6548-.112 1.2834-.31 1.8723l-2.297-2.2967c-1.902-1.9026-4.432-2.9506-7.123-2.9506-2.624 0-5.132-1.2538-6.707-3.3539l-1.896-2.5287c1.933-1.0985 4.148-1.7111 6.463-1.7111 4.063 0 7.826 1.8402 10.321 5.0473.999 1.2842 1.549 2.8882 1.549 4.5158z"/></g></svg>