<svg fill="none" height="181" viewBox="0 0 268 181" width="268" xmlns="http://www.w3.org/2000/svg"><path d="m0 41 134-41 134 41v96l-134 43.5-134-43.5z" fill="#eee"/><g fill="#003da6"><path clip-rule="evenodd" d="m5 133s41.245-.862 74 0c22.088.581 40 3 40 3s28.679-7.383 61-12c37.318-5.331 79-8 79-8s-42.557 5.893-76 12c-21.131 3.859-39 9-39 9l17 2c15.129-3.965 30.493-6.971 46-9 17.598-1.973 35.292-2.975 53-3 0 0-28.268 2.971-51 7-9.478 1.71-18.832 4.048-28 7l45 7-18 6c-29.04-6.355-58.422-11.03-88-14-51.888-5.163-115-7-115-7zm28 13s39.289 2.359 73 7c35.254 4.854 69 12 69 12l-15 5s-25.592-7.223-53-12c-27.091-4.722-62-8-62-8z" fill-rule="evenodd"/><path d="m159.616 84.0122c-.128-.1277-.279-.229-.446-.2982-.167-.0691-.346-.1046-.527-.1046-.18 0-.359.0355-.526.1046-.167.0692-.318.1705-.446.2982l-1.611 1.6108-1.375-1.375v-5.5687c0-3.4774-1.381-6.8123-3.84-9.2712-2.459-2.4588-5.794-3.8402-9.271-3.8402h-.069l-2.583-2.5832c-2.6-2.6143-6.096-4.1439-9.781-4.2797l-2.249-2.249 1.611-1.6108c.128-.1277.229-.2793.298-.4461s.105-.3456.105-.5262-.036-.3594-.105-.5262c-.069-.1669-.17-.3184-.298-.4461l-13.612-13.6125-1.945 1.9441 12.64 12.6395-19.445 19.4454-12.6396-12.639-1.9448 1.9439 13.6114 13.6125c.128.1277.28.229.446.2981.167.0692.346.1047.527.1047.18 0 .359-.0355.526-.1047.167-.0691.318-.1704.446-.2981l1.334-1.3346 2.238 2.2378v6.3054c0 .66.158 1.3105.461 1.8966.304.5862.743 1.091 1.282 1.472.539.3811 1.162.6271 1.815.7175.654.0905 1.32.0226 1.942-.1978v1.6117c0 .66.158 1.3104.461 1.8966.304.5862.743 1.091 1.282 1.472.539.3811 1.162.6271 1.815.7175.654.0905 1.32.0226 1.942-.1978v1.6117c0 .66.158 1.3104.461 1.8966.304.5862.743 1.091 1.282 1.472.539.3811 1.162.6271 1.815.7175.654.0905 1.32.0226 1.942-.1978v1.6117c0 .8349.253 1.6509.726 2.3389.474.688 1.145 1.216 1.925 1.515.78.298 1.633.352 2.445.155.811-.197 1.544-.636 2.101-1.259h1.859l1.375 1.375-1.335 1.335c-.127.127-.229.279-.298.446s-.104.345-.104.526.035.359.104.526.171.319.298.446l13.613 13.613 1.944-1.946-12.64-12.64 19.446-19.4451 12.639 12.6395 1.945-1.9446zm-28.306 17.3058c-.364-.001-.714-.146-.972-.404-.257-.257-.402-.607-.403-.9714v-11h-2.75v5.5c0 .3647-.145.7144-.402.9723-.258.2578-.608.4027-.973.4027-.364 0-.714-.1449-.972-.4027-.258-.2579-.403-.6076-.403-.9723v-11h-2.75v5.5c0 .3647-.145.7144-.402.9723-.258.2578-.608.4027-.973.4027-.364 0-.714-.1449-.972-.4027-.258-.2579-.403-.6076-.403-.9723v-9.625h-2.75v4.125c0 .3647-.145.7144-.402.9723-.258.2578-.608.4027-.973.4027-.364 0-.714-.1449-.972-.4027-.258-.2579-.403-.6076-.403-.9723v-6.875c0-.1806-.035-.3594-.104-.5262s-.171-.3184-.298-.4461l-2.641-2.6405 14.555-14.5554 2.641 2.6396c.128.1277.279.2291.446.2982s.346.1047.526.1047c1.564-.0043 3.113.3017 4.558.9001s2.756 1.4775 3.859 2.5862l.639.6387h-13.181c-.364 0-.714.1449-.972.4027-.258.2579-.403.6076-.403.9723.004 2.2753.754 4.4865 2.135 6.2947s3.317 3.1135 5.511 3.7158l1.979.5397v22.4505c0 .3644-.145.7144-.403.9714-.258.258-.607.403-.972.404zm6.473-.973c-.128-.127-.28-.229-.447-.298-.166-.0689-.345-.1044-.526-.1044h-1.375v-21.6999l2.75.7501v.3248c.002 1.8227.727 3.5702 2.016 4.8591s3.037 2.0138 4.859 2.0159c.365 0 .715-.1449.973-.4027.257-.2579.402-.6076.402-.9723s-.145-.7144-.402-.9723c-.258-.2578-.608-.4027-.973-.4027-1.093-.0012-2.142-.4362-2.915-1.2095-.773-.7734-1.208-1.8219-1.21-2.9155v-1.375c0-.3018-.099-.5952-.282-.8349-.184-.2398-.441-.4126-.732-.4918l-8.492-2.316c-1.385-.3807-2.635-1.1437-3.606-2.2017-.972-1.058-1.625-2.3682-1.887-3.7806h15.639c1.36 0 2.708.2679 3.965.7886s2.399 1.2839 3.361 2.246c.962.9622 1.726 2.1044 2.246 3.3615.521 1.2572.789 2.6045.789 3.9652v6.1387c0 .3646.145.7143.403.9721l1.777 1.7779-14.555 14.5554z"/><path d="m143.072 106.381 1.945-1.945 1.944 1.945-1.944 1.944z"/><path d="m104.191 67.4812 1.945-1.9443 1.944 1.9443-1.944 1.9443z"/><path d="m101.375 74.875h-2.75v42.625c0 .365.1449.714.4027.972.2579.258.6076.403.9723.403h41.25v-2.75h-39.875z"/><path d="m164.625 85.875h2.75v-45.375c0-.3647-.145-.7144-.403-.9723-.258-.2578-.607-.4027-.972-.4027h-45.375v2.75h44z"/><path d="m153.625 46c-1.36 0-2.689.4032-3.82 1.1586-1.13.7555-2.011 1.8292-2.532 3.0855-.52 1.2562-.656 2.6385-.391 3.9721.265 1.3337.92 2.5587 1.882 3.5202.961.9614 2.186 1.6162 3.52 1.8815 1.333.2653 2.716.1291 3.972-.3912 1.256-.5204 2.33-1.4016 3.085-2.5322.756-1.1305 1.159-2.4598 1.159-3.8195-.002-1.8227-.727-3.5702-2.016-4.8591s-3.036-2.0139-4.859-2.0159zm0 11c-.816 0-1.613-.2419-2.292-.6952-.678-.4533-1.207-1.0975-1.519-1.8512-.312-.7538-.394-1.5832-.235-2.3833.159-.8002.552-1.5352 1.129-2.1121s1.312-.9698 2.112-1.1289c.8-.1592 1.63-.0775 2.384.2347.753.3122 1.398.8409 1.851 1.5193.453.6783.695 1.4758.695 2.2917-.001 1.0936-.436 2.1421-1.21 2.9154-.773.7733-1.821 1.2083-2.915 1.2096z"/><path d="m152.25 51.5h2.75v2.75h-2.75z"/><path d="m152.25 62.5h8.25v2.75h-8.25z"/><path d="m156.375 68h4.125v2.75h-4.125z"/><path d="m157.75 73.5h2.75v2.75h-2.75z"/><path d="m105.5 109.25h2.75v2.75h-2.75z"/><path d="m105.5 102.375h19.25v2.75h-19.25z"/><path d="m105.5 96.875h13.75v2.75h-13.75z"/><path d="m105.5 91.375h8.25v2.75h-8.25z"/><path d="m111 109.25h2.75v2.75h-2.75z"/><path d="m116.5 109.25h2.75v2.75h-2.75z"/><path d="m93.125 81.75h2.75v27.5h-2.75z"/><path d="m93.125 112h2.75v2.75h-2.75z"/><path d="m170.125 46h2.75v30.25h-2.75z"/></g></svg>