<svg fill="none" height="181" viewBox="0 0 268 181" width="268" xmlns="http://www.w3.org/2000/svg" xmlns:xlink="http://www.w3.org/1999/xlink"><clipPath id="a"><path d="m31 126h23v23h-23z"/></clipPath><clipPath id="b"><path d="m47 131h23v23h-23z"/></clipPath><clipPath id="c"><path d="m63 137h23v23h-23z"/></clipPath><clipPath id="d"><path d="m79 126h23v23h-23z"/></clipPath><clipPath id="e"><path d="m90 141h23v23h-23z"/></clipPath><clipPath id="f"><path d="m98 116h23v23h-23z"/></clipPath><clipPath id="g"><path d="m176 135h23v23h-23z"/></clipPath><clipPath id="h"><path d="m111 112h23v23h-23z"/></clipPath><clipPath id="i"><path d="m124 116h23v23h-23z"/></clipPath><clipPath id="j"><path d="m215 123h23v23h-23z"/></clipPath><clipPath id="k"><path d="m160 141h23v23h-23z"/></clipPath><clipPath id="l"><path d="m148 132h23v23h-23z"/></clipPath><clipPath id="m"><path d="m135 139h23v23h-23z"/></clipPath><clipPath id="n"><path d="m99 136h36v36h-36z"/></clipPath><path d="m0 41 134-41 134 41v96l-134 43.5-134-43.5z" fill="#eee"/><g fill="#003da6"><path clip-rule="evenodd" d="m224.018 122 3-1v9h-3zm2-72c.156.117 6.491 32.773 5.958 53.008-.322 12.233-4.958 17.992-4.958 17.992l-3 1c-3.489-6.437-5.214-13.682-5-21 .588-21.18 7-51 7-51z" fill-rule="evenodd"/><path clip-rule="evenodd" d="m149.698 127.496 1.618-.561v5.065h-1.618zm1.079-40.496c.084.0661 3.492 18.434 3.206 29.817-.174 6.881-2.668 10.12-2.668 10.12l-1.615.563c-1.879-3.626-2.806-7.699-2.69-11.813.316-11.913 3.767-28.687 3.767-28.687z" fill-rule="evenodd"/><path clip-rule="evenodd" d="m5 133s41.245-.862 74 0c22.088.581 40 3 40 3s28.679-7.383 61-12c37.318-5.331 79-8 79-8s-42.557 5.893-76 12c-21.131 3.859-39 9-39 9l17 2c15.129-3.965 30.493-6.971 46-9 17.598-1.973 35.292-2.975 53-3 0 0-28.268 2.971-51 7-9.478 1.71-18.832 4.048-28 7l45 7-18 6c-29.04-6.355-58.422-11.03-88-14-51.888-5.163-115-7-115-7zm28 13s39.289 2.359 73 7c35.254 4.854 69 12 69 12l-15 5s-25.592-7.223-53-12c-27.091-4.722-62-8-62-8z" fill-rule="evenodd"/><path d="m14.9937 133.845c.7142-.06-.204-1.311-.6122-1.941-.153-.245-.2042-2.401.153-5.62.2857-2.574 2.4659-4.887 3.5203-5.721l.2041.766c.1361.426.4388 1.328.5612 1.533.1225.204.9354 1.617 1.3266 2.298.6802 1.533 2.0408 4.629 2.0408 4.751 0 .154.2551 1.022.4081 1.175.1225.123.3231.052.4082 0l.6122.665c.1191.204.5408.613 1.2755.613.9184 0 1.3776-.307 1.3776-.46s-.4592-.511-.6633-.715c-.1633-.164-.5442-.273-.7143-.307l-.5612-.715c-.2891-.783-.9592-2.503-1.3265-3.116-.3674-.613-.6973-2.231-.8163-2.963l.153-2.861c.4082-.971 1.2755-1.533 3.7755-.358 1.0544.154 3.7449.46 6.0714.46 2.9081 0 6.0203-.46 7.2448-.46.9796 0 1.0884.511 1.0204.767l.1531 4.086.4081 1.329-.153 2.503c.068.511.153 1.124.153 1.635 0 .091-.187.97-.153 1.328l.5612-.153c.034.119.2959.613.4592 1.021.2041.511 1.1734.409 1.7347.562.5612.153.7142-.051.7142-.306 0-.205-.6462-.937-.9693-1.277-.1361-.222-.449-.787-.6123-1.278-.1632-.49-.2721-2.724-.3061-3.78.102-.238.5102-.562.7653-2.146.2389-1.483.2551-3.928 1.3265-3.831.449.041 1.4456-.289 1.8878-.46.6632.307 2.2857 1.104 3.4693 1.839 1.4796.92 1.5306 1.891 1.5306 3.014 0 1.124-.2041 1.533-.5102 1.737-.2449.164-.3741.511-.4081.664h.4081c0 .137-.0408.45-.2041.613-.204.205-.204.767-.204 1.533s1.1224 1.226 1.1734.817c.051-.408.5102-1.175 1.1225-1.839.4898-.531.6122-1.685.6122-2.196-.068-.545-.2449-2.105-.4082-3.985-.204-2.35-.7653-2.043-1.0204-2.452s-1.6326-1.328-2.0918-1.686c-.3673-.286-.2891-.528-.2041-.613 1.1735-.954 3.7041-3.004 4.4388-3.576s2.8911-1.294 3.8775-1.584c.4082.171 1.2898.794 1.8877.869.8164.102 2.398.46 3.2653.511.3572.119 1.1735.429 1.5816.715.5102.357 1.0715-.102 1.4796-.358.4082-.255.6123-.919.7653-1.43.1531-.511-.7726-.984-1.0204-1.431-.2551-.459-.5442-.953-.6122-1.277l-.8674-1.992c-.051-.306-.1734-1.022-.2551-1.43-.0816-.409-.7483-1.26-1.0714-1.635l-.4592-1.124h.7653c.3062 0 .8931-.222 1.0204-.307.1531-.102-.9353-.238-1.3265-.357l.9184-.256.5612-.408h-1.4796c-.153 0-1.3775 0-1.9898.153-.5939.149-1.0034.579-1.1224.868-.119-.17-.398-.582-.5612-.868-.2041-.358-.6123-.511-1.2755-.306-.5306.163-.2211 1.192 0 1.685-.2721.137-1.0714.327-1.4796.409s-2.7041-.204-3.8775-.409c-1.6837-.459-5.4387-1.379-6.9898-1.379-1.9387 0-7.806.664-10.0509.92-1.7959.204-6.4625.085-8.5714 0-2.1428-.716-4.5509-.787-5.6122-.869-1.0612-.082-2.8911.307-3.6734.511-.1361-.17-.8367-.296-2.551.562s-1.6667 4.444-1.4286 6.13c.0511 1.958.1633 6.049.2041 6.743.051.869-.9693 2.657-1.7346 3.576-.7653.92-.306 2.555-.306 2.963 0 .327.204 2.044.306 2.861-.017 1.311-.102 4.026-.306 4.394-.2041.367-.0851.63 0 .715.119.051.3877.173.5101.255.1531.102-.102.307 0 .92.1021.613 1.7347.817 2.3469.766z"/><path d="m209.006 138.845c-.714-.06.204-1.311.613-1.941.152-.245.204-2.401-.153-5.62-.286-2.574-2.466-4.887-3.521-5.721l-.204.766c-.136.426-.439 1.328-.561 1.533-.123.204-.936 1.617-1.327 2.298-.68 1.533-2.04 4.629-2.04 4.751 0 .154-.256 1.022-.409 1.175-.122.123-.323.052-.408 0l-.612.665c-.119.204-.541.613-1.276.613-.918 0-1.377-.307-1.377-.46s.459-.511.663-.715c.163-.164.544-.273.714-.307l.562-.715c.289-.783.959-2.503 1.326-3.116.368-.613.697-2.231.817-2.963l-.154-2.861c-.408-.971-1.275-1.533-3.775-.358-1.054.154-3.745.46-6.071.46-2.909 0-6.021-.46-7.245-.46-.98 0-1.089.511-1.021.767l-.153 4.086-.408 1.329.153 2.503c-.068.511-.153 1.124-.153 1.635 0 .091.187.97.153 1.328l-.561-.153c-.034.119-.296.613-.459 1.021-.204.511-1.174.409-1.735.562s-.714-.051-.714-.306c0-.205.646-.937.969-1.277.136-.222.449-.787.612-1.278.164-.49.273-2.724.307-3.78-.102-.238-.511-.562-.766-2.146-.239-1.483-.255-3.928-1.326-3.831-.449.041-1.446-.289-1.888-.46-.663.307-2.286 1.104-3.469 1.839-1.48.92-1.531 1.891-1.531 3.014 0 1.124.204 1.533.51 1.737.245.164.374.511.408.664h-.408c0 .137.041.45.204.613.204.205.204.767.204 1.533s-1.122 1.226-1.173.817c-.051-.408-.51-1.175-1.122-1.839-.49-.531-.613-1.685-.613-2.196.068-.545.245-2.105.408-3.985.205-2.35.766-2.043 1.021-2.452s1.632-1.328 2.092-1.686c.367-.286.289-.528.204-.613-1.174-.954-3.704-3.004-4.439-3.576s-2.891-1.294-3.878-1.584c-.408.171-1.289.794-1.887.869-.817.102-2.398.46-3.266.511-.357.119-1.173.429-1.581.715-.51.357-1.072-.102-1.48-.358-.408-.255-.612-.919-.765-1.43s.773-.984 1.02-1.431c.255-.459.545-.953.613-1.277l.867-1.992c.051-.306.173-1.022.255-1.43.082-.409.748-1.26 1.071-1.635l.46-1.124h-.766c-.306 0-.893-.222-1.02-.307-.153-.102.935-.238 1.326-.357l-.918-.256-.561-.408h1.479c.154 0 1.378 0 1.99.153.594.149 1.004.579 1.123.868.119-.17.398-.582.561-.868.204-.358.612-.511 1.275-.306.531.163.222 1.192 0 1.685.273.137 1.072.327 1.48.409s2.704-.204 3.878-.409c1.683-.459 5.438-1.379 6.989-1.379 1.939 0 7.806.664 10.051.92 1.796.204 6.463.085 8.572 0 2.142-.716 4.551-.787 5.612-.869s2.891.307 3.673.511c.136-.17.837-.296 2.551.562s1.667 4.444 1.429 6.13c-.051 1.958-.164 6.049-.204 6.743-.051.869.969 2.657 1.734 3.576.766.92.306 2.555.306 2.963 0 .327-.204 2.044-.306 2.861.017 1.311.102 4.026.306 4.394.204.367.085.63 0 .715-.119.051-.387.173-.51.255-.153.102.102.307 0 .92s-1.734.817-2.347.766z"/><path d="m57.5241 137.92c.3636-.031-.1039-.677-.3117-1.002-.0779-.126-.1039-1.239.0779-2.9.1454-1.329 1.2554-2.523 1.7922-2.953l.1039.395c.0692.22.2233.686.2857.791.0623.106.4762.835.6753 1.187.3463.791 1.0389 2.388 1.0389 2.452 0 .079.1299.527.2078.606.0624.063.1645.027.2078 0l.3117.343c.0606.105.2753.316.6494.316.4675 0 .7012-.158.7012-.237s-.2337-.264-.3376-.369c-.0831-.084-.2771-.141-.3636-.158l-.2858-.369c-.1471-.405-.4883-1.292-.6753-1.609-.187-.316-.355-1.151-.4156-1.529l.078-1.477c.2078-.501.6493-.791 1.922-.184.5368.079 1.9065.237 3.0909.237 1.4805 0 3.0649-.237 3.6883-.237.4987 0 .5541.264.5195.395l.0779 2.11.2078.685-.0779 1.292c.0346.264.0779.58.0779.844 0 .047-.0953.501-.0779.685l.2857-.079c.0173.062.1506.317.2337.528.1039.263.5974.211.8831.29.2858.079.3637-.027.3637-.158 0-.106-.329-.484-.4935-.66-.0693-.114-.2286-.406-.3117-.659s-.1385-1.406-.1559-1.951c.052-.123.2598-.29.3897-1.107.1216-.766.1298-2.028.6753-1.978.2285.021.7359-.149.961-.237.3377.158 1.1636.569 1.7662.949.7533.475.7792.976.7792 1.556s-.1039.791-.2597.896c-.1247.085-.1905.264-.2078.343h.2078c0 .07-.0208.232-.1039.316-.1039.106-.1039.396-.1039.791 0 .396.5714.633.5974.422s.2597-.606.5714-.949c.2494-.274.3117-.87.3117-1.134-.0346-.281-.1247-1.086-.2078-2.056-.1039-1.213-.3896-1.055-.5194-1.266-.1299-.211-.8312-.686-1.065-.87-.187-.148-.1472-.273-.1039-.316.5974-.493 1.8857-1.551 2.2598-1.846.374-.295 1.4718-.668 1.974-.818.2078.088.6566.41.961.449.4156.052 1.2208.237 1.6623.263.1818.062.5974.222.8052.37.2597.184.5455-.053.7532-.185.2078-.132.3117-.475.3897-.738.0779-.264-.3934-.508-.5195-.739-.1299-.237-.2771-.492-.3117-.659l-.4416-1.028c-.0259-.158-.0883-.527-.1298-.738-.0416-.211-.381-.651-.5455-.844l-.2337-.58h.3896c.1558 0 .4546-.114.5194-.158.078-.053-.4761-.123-.6753-.185l.4675-.132.2858-.211h-.7533c-.0779 0-.7013 0-1.013.079-.3023.077-.5108.299-.5714.449-.0606-.088-.2026-.301-.2857-.449-.1039-.184-.3117-.263-.6493-.158-.2702.085-.1126.615 0 .87-.1386.071-.5455.169-.7533.211s-1.3766-.105-1.974-.211c-.8571-.237-2.7688-.712-3.5584-.712-.987 0-3.974.343-5.1168.475-.9143.106-3.2901.044-4.3636 0-1.0909-.369-2.3169-.406-2.8572-.448-.5402-.042-1.4718.158-1.8701.263-.0692-.087-.426-.152-1.2987.291-.8727.442-.8485 2.293-.7272 3.164.0259 1.01.0831 3.121.1039 3.48.0259.448-.4935 1.371-.8831 1.846-.3896.474-.1558 1.318-.1558 1.529 0 .169.1038 1.055.1558 1.476-.0087.677-.0519 2.078-.1558 2.268s-.0433.325 0 .369c.0606.026.1973.09.2597.132.0779.053-.052.158 0 .475.0519.316.8831.421 1.1948.395z"/><path d="m258.476 126.92c-.364-.031.104-.677.312-1.002.077-.126.104-1.239-.078-2.9-.146-1.329-1.256-2.523-1.792-2.953l-.104.395c-.07.22-.224.686-.286.791-.062.106-.476.835-.675 1.187-.347.791-1.039 2.388-1.039 2.452 0 .079-.13.527-.208.606-.062.063-.165.027-.208 0l-.312.343c-.06.105-.275.316-.649.316-.467 0-.701-.158-.701-.237s.234-.264.337-.369c.084-.084.277-.141.364-.158l.286-.369c.147-.405.488-1.292.675-1.609.187-.316.355-1.151.416-1.529l-.078-1.477c-.208-.501-.65-.791-1.922-.184-.537.079-1.907.237-3.091.237-1.481 0-3.065-.237-3.688-.237-.499 0-.555.264-.52.395l-.078 2.11-.208.685.078 1.292c-.034.264-.078.58-.078.844 0 .047.096.501.078.685l-.285-.079c-.018.062-.151.317-.234.528-.104.263-.598.211-.883.29-.286.079-.364-.027-.364-.158 0-.106.329-.484.494-.66.069-.114.228-.406.311-.659s.139-1.406.156-1.951c-.052-.123-.26-.29-.39-1.107-.121-.766-.129-2.028-.675-1.978-.228.021-.736-.149-.961-.237-.338.158-1.164.569-1.766.949-.753.475-.779.976-.779 1.556s.104.791.259.896c.125.085.191.264.208.343h-.208c0 .07.021.232.104.316.104.106.104.396.104.791 0 .396-.571.633-.597.422s-.26-.606-.572-.949c-.249-.274-.311-.87-.311-1.134.034-.281.124-1.086.207-2.056.104-1.213.39-1.055.52-1.266s.831-.686 1.065-.87c.187-.148.147-.273.104-.316-.598-.493-1.886-1.551-2.26-1.846s-1.472-.668-1.974-.818c-.208.088-.657.41-.961.449-.416.052-1.221.237-1.662.263-.182.062-.598.222-.806.37-.259.184-.545-.053-.753-.185s-.311-.475-.389-.738c-.078-.264.393-.508.519-.739.13-.237.277-.492.312-.659l.441-1.028c.026-.158.089-.527.13-.738.042-.211.381-.651.546-.844l.233-.58h-.389c-.156 0-.455-.114-.52-.158-.078-.053.477-.123.676-.185l-.468-.132-.286-.211h.754c.078 0 .701 0 1.013.079.302.077.51.299.571.449.061-.088.203-.301.286-.449.104-.184.311-.263.649-.158.27.085.113.615 0 .87.139.071.546.169.753.211.208.042 1.377-.105 1.974-.211.858-.237 2.769-.712 3.559-.712.987 0 3.974.343 5.117.475.914.106 3.29.044 4.363 0 1.091-.369 2.317-.406 2.857-.448.541-.042 1.472.158 1.87.263.07-.087.426-.152 1.299.291.873.442.849 2.293.727 3.164-.026 1.01-.083 3.121-.103 3.48-.026.448.493 1.371.883 1.846.389.474.155 1.318.155 1.529 0 .169-.103 1.055-.155 1.476.008.677.052 2.078.155 2.268.104.19.044.325 0 .369-.06.026-.197.09-.259.132-.078.053.052.158 0 .475-.052.316-.883.421-1.195.395z"/><g clip-path="url(#a)"><path d="m42.0578 131.928c.109.129.2694.204.4382.204.1693 0 .3296-.074.4392-.203.4905-.58 1.2184-1.645 1.2184-2.863s-.7274-2.282-1.2179-2.863c-.1096-.128-.2695-.203-.4387-.203-.1688 0-.3297.074-.4387.203-.4911.58-1.218 1.645-1.2185 2.863.0005 1.217.727 2.282 1.218 2.862z"/><path d="m42.5006 135.919c.0898.004 2.2473.09 3.52-1.182.8607-.862 1.1-2.129 1.1632-2.886.0138-.168-.0469-.334-.1663-.454-.1194-.119-.2857-.18-.4545-.166-.757.063-2.0253.302-2.8869 1.163-.9505.951-1.142 2.398-1.1765 3.105-.0341-.707-.226-2.154-1.177-3.105-.8616-.861-2.1289-1.1-2.8864-1.163-.1683-.014-.3346.047-.454.167s-.1796.285-.1658.454c.0632.757.302 2.024 1.1627 2.885 1.2741 1.272 3.4312 1.186 3.5215 1.182z"/><path d="m43.678 136.96c-.9504.951-1.1419 2.398-1.1764 3.105-.0341-.707-.2261-2.154-1.177-3.105-.8616-.861-2.1289-1.1-2.8864-1.163-.1683-.014-.3346.047-.454.167-.1195.119-.1797.285-.1658.454.0631.757.302 2.024 1.1626 2.884 1.2727 1.273 3.4293 1.187 3.5201 1.183.0898.004 2.2473.091 3.52-1.183.8611-.861 1.1-2.128 1.1632-2.885.0138-.169-.0469-.335-.1663-.454-.1195-.119-.2858-.18-.4545-.166-.7566.063-2.0238.302-2.8855 1.163z"/><path d="m43.678 141.527c-.9505.951-1.1419 2.397-1.1765 3.105-.034-.708-.226-2.154-1.1769-3.105-.8612-.862-2.1285-1.1-2.8855-1.163-.1687-.014-.3345.047-.454.166-.1194.119-.1806.285-.1668.453.0632.757.3015 2.025 1.1627 2.886.8705.871 2.1555 1.105 2.9091 1.165v3.291c0 .373.2586.675.6322.675.373 0 .6321-.302.6321-.675v-3.294c.7585-.065 2.0115-.307 2.8667-1.162.8606-.861 1.1-2.128 1.1631-2.885.0139-.169-.0468-.335-.1663-.454-.1194-.12-.2857-.18-.4545-.166-.7565.062-2.0238.301-2.8854 1.163z"/></g><g clip-path="url(#b)"><path d="m58.0578 136.928c.109.129.2694.204.4382.204.1693 0 .3296-.074.4392-.203.4905-.58 1.2184-1.645 1.2184-2.863s-.7274-2.282-1.2179-2.863c-.1096-.128-.2695-.203-.4387-.203-.1688 0-.3297.074-.4387.203-.4911.58-1.218 1.645-1.2185 2.863.0005 1.217.727 2.282 1.218 2.862z"/><path d="m58.5006 140.919c.0898.004 2.2473.09 3.52-1.182.8607-.862 1.1-2.129 1.1632-2.886.0138-.168-.0469-.334-.1663-.454-.1194-.119-.2857-.18-.4545-.166-.757.063-2.0253.302-2.8869 1.163-.9505.951-1.142 2.398-1.1765 3.105-.0341-.707-.226-2.154-1.177-3.105-.8616-.861-2.1289-1.1-2.8864-1.163-.1683-.014-.3346.047-.454.167s-.1796.285-.1658.454c.0632.757.302 2.024 1.1627 2.885 1.2741 1.272 3.4312 1.186 3.5215 1.182z"/><path d="m59.678 141.96c-.9504.951-1.1419 2.398-1.1764 3.105-.0341-.707-.2261-2.154-1.177-3.105-.8616-.861-2.1289-1.1-2.8864-1.163-.1683-.014-.3346.047-.454.167-.1195.119-.1797.285-.1658.454.0631.757.302 2.024 1.1626 2.884 1.2727 1.273 3.4293 1.187 3.5201 1.183.0898.004 2.2473.091 3.52-1.183.8611-.861 1.1-2.128 1.1632-2.885.0138-.169-.0469-.335-.1663-.454-.1195-.119-.2858-.18-.4545-.166-.7566.063-2.0238.302-2.8855 1.163z"/><path d="m59.678 146.527c-.9505.951-1.1419 2.397-1.1765 3.105-.034-.708-.226-2.154-1.1769-3.105-.8612-.862-2.1285-1.1-2.8855-1.163-.1687-.014-.3345.047-.454.166-.1194.119-.1806.285-.1668.453.0632.757.3015 2.025 1.1627 2.886.8705.871 2.1555 1.105 2.9091 1.165v3.291c0 .373.2586.675.6322.675.373 0 .6321-.302.6321-.675v-3.294c.7585-.065 2.0115-.307 2.8667-1.162.8606-.861 1.1-2.128 1.1631-2.885.0139-.169-.0468-.335-.1663-.454-.1194-.12-.2857-.18-.4545-.166-.7565.062-2.0238.301-2.8854 1.163z"/></g><g clip-path="url(#c)"><path d="m74.0578 142.928c.109.129.2694.204.4382.204.1693 0 .3296-.074.4392-.203.4905-.58 1.2184-1.645 1.2184-2.863s-.7274-2.282-1.2179-2.863c-.1096-.128-.2695-.203-.4387-.203-.1688 0-.3297.074-.4387.203-.4911.58-1.218 1.645-1.2185 2.863.0005 1.217.727 2.282 1.218 2.862z"/><path d="m74.5006 146.919c.0898.004 2.2473.09 3.52-1.182.8607-.862 1.1-2.129 1.1632-2.886.0138-.168-.0469-.334-.1663-.454-.1194-.119-.2857-.18-.4545-.166-.757.063-2.0253.302-2.8869 1.163-.9505.951-1.142 2.398-1.1765 3.105-.0341-.707-.226-2.154-1.177-3.105-.8616-.861-2.1289-1.1-2.8864-1.163-.1683-.014-.3346.047-.454.167s-.1796.285-.1658.454c.0632.757.302 2.024 1.1627 2.885 1.2741 1.272 3.4312 1.186 3.5215 1.182z"/><path d="m75.678 147.96c-.9504.951-1.1419 2.398-1.1764 3.105-.0341-.707-.2261-2.154-1.177-3.105-.8616-.861-2.1289-1.1-2.8864-1.163-.1683-.014-.3346.047-.454.167-.1195.119-.1797.285-.1658.454.0631.757.302 2.024 1.1626 2.884 1.2727 1.273 3.4293 1.187 3.5201 1.183.0898.004 2.2473.091 3.52-1.183.8611-.861 1.1-2.128 1.1632-2.885.0138-.169-.0469-.335-.1663-.454-.1195-.119-.2858-.18-.4545-.166-.7566.063-2.0238.302-2.8855 1.163z"/><path d="m75.678 152.527c-.9505.951-1.1419 2.397-1.1765 3.105-.034-.708-.226-2.154-1.1769-3.105-.8612-.862-2.1285-1.1-2.8855-1.163-.1687-.014-.3345.047-.454.166-.1194.119-.1806.285-.1668.453.0632.757.3015 2.025 1.1627 2.886.8705.871 2.1555 1.105 2.9091 1.165v3.291c0 .373.2586.675.6322.675.373 0 .6321-.302.6321-.675v-3.294c.7585-.065 2.0115-.307 2.8667-1.162.8606-.861 1.1-2.128 1.1631-2.885.0139-.169-.0468-.335-.1663-.454-.1194-.12-.2857-.18-.4545-.166-.7565.062-2.0238.301-2.8854 1.163z"/></g><g clip-path="url(#d)"><path d="m90.0578 131.928c.109.129.2694.204.4382.204.1693 0 .3296-.074.4392-.203.4905-.58 1.2184-1.645 1.2184-2.863s-.7274-2.282-1.2179-2.863c-.1096-.128-.2695-.203-.4387-.203-.1688 0-.3297.074-.4387.203-.4911.58-1.218 1.645-1.2185 2.863.0005 1.217.727 2.282 1.218 2.862z"/><path d="m90.5006 135.919c.0898.004 2.2473.09 3.52-1.182.8607-.862 1.1-2.129 1.1632-2.886.0138-.168-.0469-.334-.1663-.454-.1194-.119-.2857-.18-.4545-.166-.757.063-2.0253.302-2.8869 1.163-.9505.951-1.142 2.398-1.1765 3.105-.0341-.707-.226-2.154-1.177-3.105-.8616-.861-2.1289-1.1-2.8864-1.163-.1683-.014-.3346.047-.454.167s-.1796.285-.1658.454c.0632.757.302 2.024 1.1627 2.885 1.2741 1.272 3.4312 1.186 3.5215 1.182z"/><path d="m91.678 136.96c-.9504.951-1.1419 2.398-1.1764 3.105-.0341-.707-.2261-2.154-1.177-3.105-.8616-.861-2.1289-1.1-2.8864-1.163-.1683-.014-.3346.047-.454.167-.1195.119-.1797.285-.1658.454.0631.757.302 2.024 1.1626 2.884 1.2727 1.273 3.4293 1.187 3.5201 1.183.0898.004 2.2473.091 3.52-1.183.8611-.861 1.1-2.128 1.1632-2.885.0138-.169-.0469-.335-.1663-.454-.1195-.119-.2858-.18-.4545-.166-.7566.063-2.0238.302-2.8855 1.163z"/><path d="m91.678 141.527c-.9505.951-1.1419 2.397-1.1765 3.105-.034-.708-.226-2.154-1.1769-3.105-.8612-.862-2.1285-1.1-2.8855-1.163-.1687-.014-.3345.047-.454.166-.1194.119-.1806.285-.1668.453.0632.757.3015 2.025 1.1627 2.886.8705.871 2.1555 1.105 2.9091 1.165v3.291c0 .373.2586.675.6322.675.373 0 .6321-.302.6321-.675v-3.294c.7585-.065 2.0115-.307 2.8667-1.162.8606-.861 1.1-2.128 1.1631-2.885.0139-.169-.0468-.335-.1663-.454-.1194-.12-.2857-.18-.4545-.166-.7565.062-2.0238.301-2.8854 1.163z"/></g><g clip-path="url(#e)"><path d="m101.058 146.928c.109.129.269.204.438.204s.33-.074.439-.203c.491-.58 1.219-1.645 1.219-2.863s-.728-2.282-1.218-2.863c-.11-.128-.27-.203-.439-.203s-.33.074-.439.203c-.491.58-1.2177 1.645-1.2182 2.863.0005 1.217.7272 2.282 1.2182 2.862z"/><path d="m101.501 150.919c.089.004 2.247.09 3.52-1.182.86-.862 1.1-2.129 1.163-2.886.014-.168-.047-.334-.167-.454-.119-.119-.285-.18-.454-.166-.757.063-2.025.302-2.887 1.163-.95.951-1.142 2.398-1.176 3.105-.034-.707-.226-2.154-1.177-3.105-.862-.861-2.1293-1.1-2.8868-1.163-.1683-.014-.3346.047-.454.167s-.1796.285-.1658.454c.0632.757.302 2.024 1.1627 2.885 1.2741 1.272 3.4309 1.186 3.5219 1.182z"/><path d="m102.678 151.96c-.95.951-1.142 2.398-1.176 3.105-.034-.707-.226-2.154-1.177-3.105-.862-.861-2.1293-1.1-2.8868-1.163-.1683-.014-.3346.047-.454.167-.1195.119-.1797.285-.1658.454.0631.757.302 2.024 1.1626 2.884 1.2727 1.273 3.429 1.187 3.52 1.183.09.004 2.247.091 3.52-1.183.861-.861 1.1-2.128 1.163-2.885.014-.169-.047-.335-.166-.454s-.286-.18-.455-.166c-.756.063-2.023.302-2.885 1.163z"/><path d="m102.678 156.527c-.95.951-1.142 2.397-1.176 3.105-.035-.708-.226-2.154-1.177-3.105-.8616-.862-2.1289-1.1-2.8859-1.163-.1687-.014-.3345.047-.454.166-.1194.119-.1806.285-.1668.453.0632.757.3015 2.025 1.1627 2.886.8705.871 2.156 1.105 2.909 1.165v3.291c0 .373.259.675.632.675s.632-.302.632-.675v-3.294c.759-.065 2.012-.307 2.867-1.162.861-.861 1.1-2.128 1.163-2.885.014-.169-.047-.335-.166-.454-.119-.12-.286-.18-.455-.166-.756.062-2.023.301-2.885 1.163z"/></g><g clip-path="url(#f)"><path d="m109.058 121.928c.109.129.269.204.438.204s.33-.074.439-.203c.491-.58 1.219-1.645 1.219-2.863s-.728-2.282-1.218-2.863c-.11-.128-.27-.203-.439-.203s-.33.074-.439.203c-.491.58-1.218 1.645-1.218 2.863 0 1.217.727 2.282 1.218 2.862z"/><path d="m109.501 125.919c.089.004 2.247.09 3.52-1.182.86-.862 1.1-2.129 1.163-2.886.014-.168-.047-.334-.167-.454-.119-.119-.285-.18-.454-.166-.757.063-2.025.302-2.887 1.163-.95.951-1.142 2.398-1.176 3.105-.034-.707-.226-2.154-1.177-3.105-.862-.861-2.129-1.1-2.887-1.163-.168-.014-.334.047-.454.167-.119.12-.179.285-.166.454.064.757.302 2.024 1.163 2.885 1.274 1.272 3.431 1.186 3.522 1.182z"/><path d="m110.678 126.96c-.95.951-1.142 2.398-1.176 3.105-.034-.707-.226-2.154-1.177-3.105-.862-.861-2.129-1.1-2.887-1.163-.168-.014-.334.047-.454.167-.119.119-.179.285-.166.454.064.757.302 2.024 1.163 2.884 1.273 1.273 3.429 1.187 3.52 1.183.09.004 2.247.091 3.52-1.183.861-.861 1.1-2.128 1.163-2.885.014-.169-.047-.335-.166-.454s-.286-.18-.455-.166c-.756.063-2.023.302-2.885 1.163z"/><path d="m110.678 131.527c-.95.951-1.142 2.397-1.176 3.105-.035-.708-.226-2.154-1.177-3.105-.862-.862-2.129-1.1-2.886-1.163-.169-.014-.334.047-.454.166-.119.119-.18.285-.167.453.063.757.302 2.025 1.163 2.886.87.871 2.156 1.105 2.909 1.165v3.291c0 .373.259.675.632.675s.632-.302.632-.675v-3.294c.759-.065 2.012-.307 2.867-1.162.861-.861 1.1-2.128 1.163-2.885.014-.169-.047-.335-.166-.454-.119-.12-.286-.18-.455-.166-.756.062-2.023.301-2.885 1.163z"/></g><g clip-path="url(#g)"><path d="m187.058 140.928c.109.129.269.204.438.204s.33-.074.439-.203c.491-.58 1.219-1.645 1.219-2.863s-.728-2.282-1.218-2.863c-.11-.128-.27-.203-.439-.203s-.33.074-.439.203c-.491.58-1.218 1.645-1.218 2.863 0 1.217.727 2.282 1.218 2.862z"/><path d="m187.501 144.919c.089.004 2.247.09 3.52-1.182.86-.862 1.1-2.129 1.163-2.886.014-.168-.047-.334-.167-.454-.119-.119-.285-.18-.454-.166-.757.063-2.025.302-2.887 1.163-.95.951-1.142 2.398-1.176 3.105-.034-.707-.226-2.154-1.177-3.105-.862-.861-2.129-1.1-2.887-1.163-.168-.014-.334.047-.454.167-.119.12-.179.285-.166.454.064.757.302 2.024 1.163 2.885 1.274 1.272 3.431 1.186 3.522 1.182z"/><path d="m188.678 145.96c-.95.951-1.142 2.398-1.176 3.105-.034-.707-.226-2.154-1.177-3.105-.862-.861-2.129-1.1-2.887-1.163-.168-.014-.334.047-.454.167-.119.119-.179.285-.166.454.064.757.302 2.024 1.163 2.884 1.273 1.273 3.429 1.187 3.52 1.183.09.004 2.247.091 3.52-1.183.861-.861 1.1-2.128 1.163-2.885.014-.169-.047-.335-.166-.454s-.286-.18-.455-.166c-.756.063-2.023.302-2.885 1.163z"/><path d="m188.678 150.527c-.95.951-1.142 2.397-1.176 3.105-.035-.708-.226-2.154-1.177-3.105-.862-.862-2.129-1.1-2.886-1.163-.169-.014-.334.047-.454.166-.119.119-.18.285-.167.453.063.757.302 2.025 1.163 2.886.87.871 2.156 1.105 2.909 1.165v3.291c0 .373.259.675.632.675s.632-.302.632-.675v-3.294c.759-.065 2.012-.307 2.867-1.162.861-.861 1.1-2.128 1.163-2.885.014-.169-.047-.335-.166-.454-.119-.12-.286-.18-.455-.166-.756.062-2.023.301-2.885 1.163z"/></g><g clip-path="url(#h)"><path d="m122.058 117.928c.109.129.269.204.438.204s.33-.074.439-.203c.491-.58 1.219-1.645 1.219-2.863s-.728-2.282-1.218-2.863c-.11-.128-.27-.203-.439-.203s-.33.074-.439.203c-.491.58-1.218 1.645-1.218 2.863 0 1.217.727 2.282 1.218 2.862z"/><path d="m122.501 121.919c.089.004 2.247.09 3.52-1.182.86-.862 1.1-2.129 1.163-2.886.014-.168-.047-.334-.167-.454-.119-.119-.285-.18-.454-.166-.757.063-2.025.302-2.887 1.163-.95.951-1.142 2.398-1.176 3.105-.034-.707-.226-2.154-1.177-3.105-.862-.861-2.129-1.1-2.887-1.163-.168-.014-.334.047-.454.167-.119.12-.179.285-.166.454.064.757.302 2.024 1.163 2.885 1.274 1.272 3.431 1.186 3.522 1.182z"/><path d="m123.678 122.96c-.95.951-1.142 2.398-1.176 3.105-.034-.707-.226-2.154-1.177-3.105-.862-.861-2.129-1.1-2.887-1.163-.168-.014-.334.047-.454.167-.119.119-.179.285-.166.454.064.757.302 2.024 1.163 2.884 1.273 1.273 3.429 1.187 3.52 1.183.09.004 2.247.091 3.52-1.183.861-.861 1.1-2.128 1.163-2.885.014-.169-.047-.335-.166-.454s-.286-.18-.455-.166c-.756.063-2.023.302-2.885 1.163z"/><path d="m123.678 127.527c-.95.951-1.142 2.397-1.176 3.105-.035-.708-.226-2.154-1.177-3.105-.862-.862-2.129-1.1-2.886-1.163-.169-.014-.334.047-.454.166-.119.119-.18.285-.167.453.063.757.302 2.025 1.163 2.886.87.871 2.156 1.105 2.909 1.165v3.291c0 .373.259.675.632.675s.632-.302.632-.675v-3.294c.759-.065 2.012-.307 2.867-1.162.861-.861 1.1-2.128 1.163-2.885.014-.169-.047-.335-.166-.454-.119-.12-.286-.18-.455-.166-.756.062-2.023.301-2.885 1.163z"/></g><g clip-path="url(#i)"><path d="m135.058 121.928c.109.129.269.204.438.204s.33-.074.439-.203c.491-.58 1.219-1.645 1.219-2.863s-.728-2.282-1.218-2.863c-.11-.128-.27-.203-.439-.203s-.33.074-.439.203c-.491.58-1.218 1.645-1.218 2.863 0 1.217.727 2.282 1.218 2.862z"/><path d="m135.501 125.919c.089.004 2.247.09 3.52-1.182.86-.862 1.1-2.129 1.163-2.886.014-.168-.047-.334-.167-.454-.119-.119-.285-.18-.454-.166-.757.063-2.025.302-2.887 1.163-.95.951-1.142 2.398-1.176 3.105-.034-.707-.226-2.154-1.177-3.105-.862-.861-2.129-1.1-2.887-1.163-.168-.014-.334.047-.454.167-.119.12-.179.285-.166.454.064.757.302 2.024 1.163 2.885 1.274 1.272 3.431 1.186 3.522 1.182z"/><path d="m136.678 126.96c-.95.951-1.142 2.398-1.176 3.105-.034-.707-.226-2.154-1.177-3.105-.862-.861-2.129-1.1-2.887-1.163-.168-.014-.334.047-.454.167-.119.119-.179.285-.166.454.064.757.302 2.024 1.163 2.884 1.273 1.273 3.429 1.187 3.52 1.183.09.004 2.247.091 3.52-1.183.861-.861 1.1-2.128 1.163-2.885.014-.169-.047-.335-.166-.454s-.286-.18-.455-.166c-.756.063-2.023.302-2.885 1.163z"/><path d="m136.678 131.527c-.95.951-1.142 2.397-1.176 3.105-.035-.708-.226-2.154-1.177-3.105-.862-.862-2.129-1.1-2.886-1.163-.169-.014-.334.047-.454.166-.119.119-.18.285-.167.453.063.757.302 2.025 1.163 2.886.87.871 2.156 1.105 2.909 1.165v3.291c0 .373.259.675.632.675s.632-.302.632-.675v-3.294c.759-.065 2.012-.307 2.867-1.162.861-.861 1.1-2.128 1.163-2.885.014-.169-.047-.335-.166-.454-.119-.12-.286-.18-.455-.166-.756.062-2.023.301-2.885 1.163z"/></g><g clip-path="url(#j)"><path d="m226.058 128.928c.109.129.269.204.438.204s.33-.074.439-.203c.491-.58 1.219-1.645 1.219-2.863s-.728-2.282-1.218-2.863c-.11-.128-.27-.203-.439-.203s-.33.074-.439.203c-.491.58-1.218 1.645-1.218 2.863 0 1.217.727 2.282 1.218 2.862z"/><path d="m226.501 132.919c.089.004 2.247.09 3.52-1.182.86-.862 1.1-2.129 1.163-2.886.014-.168-.047-.334-.167-.454-.119-.119-.285-.18-.454-.166-.757.063-2.025.302-2.887 1.163-.95.951-1.142 2.398-1.176 3.105-.034-.707-.226-2.154-1.177-3.105-.862-.861-2.129-1.1-2.887-1.163-.168-.014-.334.047-.454.167-.119.12-.179.285-.166.454.064.757.302 2.024 1.163 2.885 1.274 1.272 3.431 1.186 3.522 1.182z"/><path d="m227.678 133.96c-.95.951-1.142 2.398-1.176 3.105-.034-.707-.226-2.154-1.177-3.105-.862-.861-2.129-1.1-2.887-1.163-.168-.014-.334.047-.454.167-.119.119-.179.285-.166.454.064.757.302 2.024 1.163 2.884 1.273 1.273 3.429 1.187 3.52 1.183.09.004 2.247.091 3.52-1.183.861-.861 1.1-2.128 1.163-2.885.014-.169-.047-.335-.166-.454s-.286-.18-.455-.166c-.756.063-2.023.302-2.885 1.163z"/><path d="m227.678 138.527c-.95.951-1.142 2.397-1.176 3.105-.035-.708-.226-2.154-1.177-3.105-.862-.862-2.129-1.1-2.886-1.163-.169-.014-.334.047-.454.166-.119.119-.18.285-.167.453.063.757.302 2.025 1.163 2.886.87.871 2.156 1.105 2.909 1.165v3.291c0 .373.259.675.632.675s.632-.302.632-.675v-3.294c.759-.065 2.012-.307 2.867-1.162.861-.861 1.1-2.128 1.163-2.885.014-.169-.047-.335-.166-.454-.119-.12-.286-.18-.455-.166-.756.062-2.023.301-2.885 1.163z"/></g><g clip-path="url(#k)"><path d="m171.058 146.928c.109.129.269.204.438.204s.33-.074.439-.203c.491-.58 1.219-1.645 1.219-2.863s-.728-2.282-1.218-2.863c-.11-.128-.27-.203-.439-.203s-.33.074-.439.203c-.491.58-1.218 1.645-1.218 2.863 0 1.217.727 2.282 1.218 2.862z"/><path d="m171.501 150.919c.089.004 2.247.09 3.52-1.182.86-.862 1.1-2.129 1.163-2.886.014-.168-.047-.334-.167-.454-.119-.119-.285-.18-.454-.166-.757.063-2.025.302-2.887 1.163-.95.951-1.142 2.398-1.176 3.105-.034-.707-.226-2.154-1.177-3.105-.862-.861-2.129-1.1-2.887-1.163-.168-.014-.334.047-.454.167-.119.12-.179.285-.166.454.064.757.302 2.024 1.163 2.885 1.274 1.272 3.431 1.186 3.522 1.182z"/><path d="m172.678 151.96c-.95.951-1.142 2.398-1.176 3.105-.034-.707-.226-2.154-1.177-3.105-.862-.861-2.129-1.1-2.887-1.163-.168-.014-.334.047-.454.167-.119.119-.179.285-.166.454.064.757.302 2.024 1.163 2.884 1.273 1.273 3.429 1.187 3.52 1.183.09.004 2.247.091 3.52-1.183.861-.861 1.1-2.128 1.163-2.885.014-.169-.047-.335-.166-.454s-.286-.18-.455-.166c-.756.063-2.023.302-2.885 1.163z"/><path d="m172.678 156.527c-.95.951-1.142 2.397-1.176 3.105-.035-.708-.226-2.154-1.177-3.105-.862-.862-2.129-1.1-2.886-1.163-.169-.014-.334.047-.454.166-.119.119-.18.285-.167.453.063.757.302 2.025 1.163 2.886.87.871 2.156 1.105 2.909 1.165v3.291c0 .373.259.675.632.675s.632-.302.632-.675v-3.294c.759-.065 2.012-.307 2.867-1.162.861-.861 1.1-2.128 1.163-2.885.014-.169-.047-.335-.166-.454-.119-.12-.286-.18-.455-.166-.756.062-2.023.301-2.885 1.163z"/></g><g clip-path="url(#l)"><path d="m159.058 137.928c.109.129.269.204.438.204s.33-.074.439-.203c.491-.58 1.219-1.645 1.219-2.863s-.728-2.282-1.218-2.863c-.11-.128-.27-.203-.439-.203s-.33.074-.439.203c-.491.58-1.218 1.645-1.218 2.863 0 1.217.727 2.282 1.218 2.862z"/><path d="m159.501 141.919c.089.004 2.247.09 3.52-1.182.86-.862 1.1-2.129 1.163-2.886.014-.168-.047-.334-.167-.454-.119-.119-.285-.18-.454-.166-.757.063-2.025.302-2.887 1.163-.95.951-1.142 2.398-1.176 3.105-.034-.707-.226-2.154-1.177-3.105-.862-.861-2.129-1.1-2.887-1.163-.168-.014-.334.047-.454.167-.119.12-.179.285-.166.454.064.757.302 2.024 1.163 2.885 1.274 1.272 3.431 1.186 3.522 1.182z"/><path d="m160.678 142.96c-.95.951-1.142 2.398-1.176 3.105-.034-.707-.226-2.154-1.177-3.105-.862-.861-2.129-1.1-2.887-1.163-.168-.014-.334.047-.454.167-.119.119-.179.285-.166.454.064.757.302 2.024 1.163 2.884 1.273 1.273 3.429 1.187 3.52 1.183.09.004 2.247.091 3.52-1.183.861-.861 1.1-2.128 1.163-2.885.014-.169-.047-.335-.166-.454s-.286-.18-.455-.166c-.756.063-2.023.302-2.885 1.163z"/><path d="m160.678 147.527c-.95.951-1.142 2.397-1.176 3.105-.035-.708-.226-2.154-1.177-3.105-.862-.862-2.129-1.1-2.886-1.163-.169-.014-.334.047-.454.166-.119.119-.18.285-.167.453.063.757.302 2.025 1.163 2.886.87.871 2.156 1.105 2.909 1.165v3.291c0 .373.259.675.632.675s.632-.302.632-.675v-3.294c.759-.065 2.012-.307 2.867-1.162.861-.861 1.1-2.128 1.163-2.885.014-.169-.047-.335-.166-.454-.119-.12-.286-.18-.455-.166-.756.062-2.023.301-2.885 1.163z"/></g><g clip-path="url(#m)"><path d="m146.058 144.928c.109.129.269.204.438.204s.33-.074.439-.203c.491-.58 1.219-1.645 1.219-2.863s-.728-2.282-1.218-2.863c-.11-.128-.27-.203-.439-.203s-.33.074-.439.203c-.491.58-1.218 1.645-1.218 2.863 0 1.217.727 2.282 1.218 2.862z"/><path d="m146.501 148.919c.089.004 2.247.09 3.52-1.182.86-.862 1.1-2.129 1.163-2.886.014-.168-.047-.334-.167-.454-.119-.119-.285-.18-.454-.166-.757.063-2.025.302-2.887 1.163-.95.951-1.142 2.398-1.176 3.105-.034-.707-.226-2.154-1.177-3.105-.862-.861-2.129-1.1-2.887-1.163-.168-.014-.334.047-.454.167-.119.12-.179.285-.166.454.064.757.302 2.024 1.163 2.885 1.274 1.272 3.431 1.186 3.522 1.182z"/><path d="m147.678 149.96c-.95.951-1.142 2.398-1.176 3.105-.034-.707-.226-2.154-1.177-3.105-.862-.861-2.129-1.1-2.887-1.163-.168-.014-.334.047-.454.167-.119.119-.179.285-.166.454.064.757.302 2.024 1.163 2.884 1.273 1.273 3.429 1.187 3.52 1.183.09.004 2.247.091 3.52-1.183.861-.861 1.1-2.128 1.163-2.885.014-.169-.047-.335-.166-.454s-.286-.18-.455-.166c-.756.063-2.023.302-2.885 1.163z"/><path d="m147.678 154.527c-.95.951-1.142 2.397-1.176 3.105-.035-.708-.226-2.154-1.177-3.105-.862-.862-2.129-1.1-2.886-1.163-.169-.014-.334.047-.454.166-.119.119-.18.285-.167.453.063.757.302 2.025 1.163 2.886.87.871 2.156 1.105 2.909 1.165v3.291c0 .373.259.675.632.675s.632-.302.632-.675v-3.294c.759-.065 2.012-.307 2.867-1.162.861-.861 1.1-2.128 1.163-2.885.014-.169-.047-.335-.166-.454-.119-.12-.286-.18-.455-.166-.756.062-2.023.301-2.885 1.163z"/></g><g clip-path="url(#n)"><path d="m116.309 145.279c.17.202.421.318.686.318s.516-.115.687-.317c.768-.908 1.907-2.575 1.907-4.482 0-1.905-1.138-3.571-1.906-4.48-.172-.201-.422-.318-.687-.318-.264 0-.516.115-.687.317-.768.908-1.906 2.575-1.907 4.481.001 1.907 1.138 3.573 1.907 4.481z"/><path d="m117.001 151.525c.14.007 3.517.141 5.509-1.85 1.348-1.348 1.722-3.332 1.821-4.517.022-.263-.073-.523-.26-.71s-.447-.282-.712-.26c-1.185.099-3.17.473-4.518 1.82-1.488 1.489-1.788 3.754-1.842 4.861-.053-1.107-.353-3.372-1.842-4.861-1.349-1.348-3.332-1.722-4.518-1.82-.263-.022-.523.074-.71.261s-.282.447-.26.71c.099 1.185.473 3.169 1.82 4.516 1.994 1.991 5.37 1.857 5.512 1.85z"/><path d="m118.843 153.155c-1.488 1.489-1.788 3.753-1.842 4.86-.053-1.107-.354-3.371-1.842-4.86-1.349-1.348-3.332-1.722-4.518-1.82-.263-.022-.524.073-.71.26-.187.187-.282.447-.26.711.099 1.185.473 3.169 1.82 4.515 1.992 1.992 5.367 1.857 5.509 1.851.141.007 3.518.142 5.51-1.851 1.348-1.348 1.722-3.331 1.821-4.517.021-.263-.074-.524-.261-.71-.187-.187-.447-.282-.711-.259-1.184.098-3.168.472-4.516 1.82z"/><path d="m118.843 160.303c-1.488 1.489-1.788 3.752-1.842 4.86-.053-1.108-.354-3.371-1.842-4.86-1.348-1.349-3.331-1.722-4.516-1.82-.264-.022-.524.073-.711.259s-.283.447-.261.71c.099 1.184.472 3.17 1.82 4.516 1.362 1.364 3.374 1.731 4.553 1.825v5.15c0 .584.405 1.058.99 1.058.584 0 .989-.474.989-1.058v-5.156c1.187-.101 3.148-.48 4.487-1.818 1.347-1.347 1.722-3.33 1.821-4.516.021-.264-.074-.525-.261-.711-.187-.187-.447-.282-.711-.259-1.184.097-3.168.471-4.516 1.82z"/></g></g></svg>