<svg fill="none" height="181" viewBox="0 0 268 181" width="268" xmlns="http://www.w3.org/2000/svg"><path d="m0 41 134-41 134 41v96l-134 43.5-134-43.5z" fill="#eee"/><g fill="#003da6"><path clip-rule="evenodd" d="m117.86 129.7 2.308-.788v7.088h-2.308zm1.539-56.7c.12.092 4.993 25.808 4.583 41.743-.248 9.634-3.814 14.169-3.814 14.169l-2.308.788c-2.689-5.088-4.014-10.786-3.846-16.538.452-16.678 5.385-40.162 5.385-40.162z" fill-rule="evenodd"/><path clip-rule="evenodd" d="m224.018 122 3-1v9h-3zm2-72c.156.117 6.491 32.773 5.958 53.008-.322 12.233-4.958 17.992-4.958 17.992l-3 1c-3.489-6.437-5.214-13.682-5-21 .588-21.18 7-51 7-51z" fill-rule="evenodd"/><path clip-rule="evenodd" d="m133.03 127.893 3.016-1.01v9.117h-3.016zm2.01-72.893c.157.119 6.511 33.182 5.977 53.67-.324 12.386-4.974 18.217-4.974 18.217l-3.009 1.013c-3.503-6.527-5.232-13.859-5.016-21.263.59-21.444 7.022-51.637 7.022-51.637z" fill-rule="evenodd"/><path clip-rule="evenodd" d="m5 133s41.245-.862 74 0c22.088.581 40 3 40 3s28.679-7.383 61-12c37.318-5.331 79-8 79-8s-42.557 5.893-76 12c-21.131 3.859-39 9-39 9l17 2c15.129-3.965 30.493-6.971 46-9 17.598-1.973 35.292-2.975 53-3 0 0-28.268 2.971-51 7-9.478 1.71-18.832 4.048-28 7l45 7-18 6c-29.04-6.355-58.422-11.03-88-14-51.888-5.163-115-7-115-7zm28 13s39.289 2.359 73 7c35.254 4.854 69 12 69 12l-15 5s-25.592-7.223-53-12c-27.091-4.722-62-8-62-8z" fill-rule="evenodd"/><path d="m100.993 134.5v-33.237l.695.578c.263.224.582.336.902.336.395 0 .789-.168 1.071-.504.507-.597.432-1.473-.169-1.9767l-19.5423-16.4116c-.1503-.1306-.3382-.2238-.5449-.2798l-22.5486-5.9678c-.2443-.056-.4885-.056-.7328 0l-22.5486 5.9678c-.2067.056-.3946.1492-.5449.2798l-19.5421 16.4116c-.6013.5037-.6765 1.3797-.1692 1.9767.5074.597 1.3905.671 1.9918.168l.6953-.578v31.737s-.9458.5 1.9943.5l73.5 3s8.387-2 5.493-2zm-78.2063-35.5684 15.8404-13.2971 21.8721-5.8 21.8721 5.8 15.8404 13.2971c-.0376.1119-.0376.2238-.0376.3544v32.916h-7.7041v-28.44c0-.765-.6388-1.399-1.4092-1.399h-57.1232c-.7704 0-1.4092.634-1.4092 1.399v28.44h-7.7041v-32.916c0-.1119-.0188-.2425-.0376-.3544zm64.8648 15.3674h-54.3046v-3.171h54.3046zm-54.3046 2.797h54.3046v3.171h-54.3046zm54.3046-8.765h-54.3046v-3.17h54.3046zm-54.3046 14.733h54.3046v3.171h-54.3046zm0 9.138v-3.17h54.3046v3.17z"/><path d="m57.4933 97.7011h6.0129c.7704 0 1.4093-.6341 1.4093-1.3987v-5.9679c0-.7646-.6389-1.3987-1.4093-1.3987h-6.0129c-.7704 0-1.4093.6341-1.4093 1.3987v5.9679c0 .7646.6389 1.3987 1.4093 1.3987zm1.4093-5.9679h3.1943v3.1704h-3.1943z"/><path d="m45.4679 97.7011h6.0129c.7705 0 1.4093-.6341 1.4093-1.3987v-5.9679c0-.7646-.6388-1.3987-1.4093-1.3987h-6.0129c-.7704 0-1.4093.6341-1.4093 1.3987v5.9679c0 .7646.6389 1.3987 1.4093 1.3987zm1.4093-5.9679h3.1944v3.1704h-3.1944z"/><path d="m69.5187 97.7011h6.0129c.7704 0 1.4093-.6341 1.4093-1.3987v-5.9679c0-.7646-.6389-1.3987-1.4093-1.3987h-6.0129c-.7704 0-1.4093.6341-1.4093 1.3987v5.9679c0 .7646.6389 1.3987 1.4093 1.3987zm1.4092-5.9679h3.1944v3.1704h-3.1944z"/><path d="m217.562 121v-61.1562c.43-.2056.727-.6428.727-1.1506 0-.5235-.315-.9728-.766-1.1697-.605-9.2129-8.291-16.5235-17.654-16.5235s-17.049 7.3106-17.653 16.5233c-.451.1969-.766.6462-.766 1.1697 0 .5078.297.9452.726 1.1506v31.302l-23.3 5.1977c-.688.1535-1.122.8358-.968 1.5237.132.5944.66.9988 1.244.9988.092 0 .186-.01.279-.0308l.434-.0967v29.2627zm-35.386-27.2388v3.513c0 .7048.571 1.2759 1.276 1.2764.706 0 1.277-.5715 1.277-1.2764v-37.3048h15.187v50.9296c0 .705.571 1.277 1.276 1.277s1.277-.572 1.277-1.277v-7.424h6.275v7.424c0 .705.571 1.277 1.276 1.277s1.277-.572 1.277-1.277v-50.9296h3.712v61.0306l-30.28 3.5v-22.12c0-.705-.571-1.277-1.276-1.277-.706.001-1.277.572-1.277 1.277v22.12l-19.759 3.5v-29.8311zm17.693-50.2084c7.919 0 14.436 6.1106 15.086 13.8638h-3.658v-.3836c0-.7049-.571-1.2764-1.277-1.2764-.705 0-1.276.5715-1.276 1.2764v.3836h-6.275v-.3836c0-.7049-.571-1.2764-1.276-1.2764-.706 0-1.277.5715-1.277 1.2764v.3836h-15.132c.65-7.7532 7.167-13.8638 15.085-13.8638zm2.6 33.8187h6.275v6.1482h-6.275zm0 8.7012h6.275v6.1482h-6.275zm6.275-11.254h-6.275v-6.1482h6.275zm-6.275 19.955h6.275v6.1483h-6.275zm6.275-28.656h-6.275v-6.1481h6.275z"/><path d="m205.606 54.8638c.706 0 1.277-.5715 1.277-1.2764v-3.9228c0-.7049-.571-1.2764-1.277-1.2764-.705 0-1.276.5715-1.276 1.2764v3.923c0 .7047.571 1.2762 1.276 1.2762z"/><path d="m167.253 109.249h5.957c.705 0 1.276-.571 1.276-1.276v-5.957c0-.705-.571-1.276-1.276-1.276h-5.957c-.705 0-1.276.571-1.276 1.276v5.957c0 .705.571 1.276 1.276 1.276zm1.276-5.956h3.404v3.404h-3.404z"/></g></svg>