<svg fill="none" height="181" viewBox="0 0 268 181" width="268" xmlns="http://www.w3.org/2000/svg"><path d="m0 41 134-41 134 41v96l-134 43.5-134-43.5z" fill="#eee"/><g fill="#003da6"><path clip-rule="evenodd" d="m5 133s41.245-.862 74 0c22.088.581 40 3 40 3s28.679-7.383 61-12c37.318-5.331 79-8 79-8s-42.557 5.893-76 12c-21.131 3.859-39 9-39 9l17 2c15.129-3.965 30.493-6.971 46-9 17.598-1.973 35.292-2.975 53-3 0 0-28.268 2.971-51 7-9.478 1.71-18.832 4.048-28 7l45 7-18 6c-29.04-6.355-58.422-11.03-88-14-51.888-5.163-115-7-115-7zm28 13s39.289 2.359 73 7c35.254 4.854 69 12 69 12l-15 5s-25.592-7.223-53-12c-27.091-4.722-62-8-62-8z" fill-rule="evenodd"/><path d="m127.551 105.858 2.957-11.049h1.051v-2.9297h-23.747l-.77-2.8793h-7.042v2.9297h4.792l4.722 17.6723h.527c-.114.377-.175.776-.175 1.19 0 2.271 1.848 4.119 4.119 4.119 2.272 0 4.12-1.848 4.12-4.119 0-.414-.061-.813-.175-1.19h2.852c-.114.377-.175.776-.175 1.19 0 2.271 1.848 4.119 4.12 4.119 2.271 0 4.12-1.848 4.12-4.119 0-2.272-1.849-4.12-4.12-4.12h-12.963l-.218-.814zm-11.139-2.93v-2.595h3.25v2.595zm6.179 0v-2.595h3.406l-.694 2.595zm4.884-8.119-.694 2.5948h-4.19v-2.5948zm-7.813 0v2.5948h-3.25v-2.5948zm-6.18 0v2.5948h-4.19l-.694-2.5948zm1.694 15.982c0 .656-.534 1.19-1.191 1.19-.656 0-1.19-.533-1.19-1.19 0-.656.534-1.189 1.19-1.189.657 0 1.191.533 1.191 1.189zm10.74 0c0 .656-.534 1.19-1.19 1.19s-1.19-.533-1.19-1.19c0-.656.534-1.189 1.19-1.189s1.19.533 1.19 1.189zm-15.146-7.863-.694-2.595h3.406v2.595z"/><path d="m162.005 84.7364-3.289-5.5001h-2.435l-3.352 5.5001h-2.32v8.8646h13.832v-8.8646zm-4.518-1.8479 1.105 1.8471h-2.232zm4.025 7.7828h-7.972v-3.006h7.972z"/><path d="m177.286 46.1797h-88.5716l-5.7144 6.1417v19.0299l5.7007 5.7007h7.7064l4.2359-4.2358 4.236 4.2358h7.706l4.236-4.2358 4.236 4.2358h7.706l4.237-4.2358 4.236 4.2358h7.706l4.236-4.2358 4.236 4.2358h7.706l4.236-4.2358 4.236 4.2358h7.707l5.701-5.7007v-19.0299zm-82.0919 27.9426h-5.2796l-3.9848-3.9848v-11.0641h13.2484v11.0641zm16.1779 0h-5.279l-3.984-3.9848v-11.0641h13.248v11.0641zm16.178 0h-5.278l-3.985-3.9848v-11.0641h13.248v11.0641zm16.179 0h-5.279l-3.985-3.9848v-11.0641h13.248v11.0641zm16.178 0h-5.279l-3.984-3.9848v-11.0641h13.248v11.0641zm20.163-3.9848-3.985 3.9848h-5.278l-3.985-3.9848v-11.0641h13.248zm-94.1403-13.9938v-2.6703l4.0604-4.364h86.0199l4.06 4.364v2.6703z"/><path d="m178 78h3v48h-3z"/><path d="m85 78h3v56h-3z"/><path d="m97.9336 79.4935h-2.9297l.0092 46.0065h42.2489l-.01-46.4429-2.929.0008.009 43.5121h-36.39z"/><path d="m171 79h-2.956v50l-21.088 3v-53h-2.956v53l27-3z"/><path d="m166.02 115.562h-2.93v-9.86h2.93zm0-11.813h-2.93v-2.93h2.93zm0-4.883h-2.93v-2.9297h2.93z"/><path d="m131.913 82.3323h-11.315v-2.9297h11.315zm-13.268 0h-2.93v-2.9297h2.93zm-4.883 0h-2.93v-2.9297h2.93z"/><path d="m176.164 54.1907h-41.488v-2.9297h41.488zm-43.441 0h-2.93v-2.9297h2.93zm-4.883 0h-2.93v-2.9297h2.93z"/></g></svg>